<?xml version="1.0" encoding="utf-8"?>
<!-- Generator: Adobe Illustrator 19.2.1, SVG Export Plug-In . SVG Version: 6.00 Build 0)  -->
<svg version="1.1" id="Layer_1" xmlns="http://www.w3.org/2000/svg" xmlns:xlink="http://www.w3.org/1999/xlink" x="0px" y="0px"
	 viewBox="0 0 301 90" style="enable-background:new 0 0 301 90;" xml:space="preserve">
<style type="text/css">
	.st0{fill:#5E5E5E;}
	.st1{fill:#869C50;}
</style>
<g>
	<g>
		<g>
			<path class="st0" d="M16,51.8v7.2c0,3.3-2.8,6.1-6.1,6.1H2.7C2.3,65,2,64.8,2,64.4V31.9c0-0.4,0.3-0.7,0.7-0.7h7.3
				c3.3,0,6.1,2.8,6.1,6.1v4.8c0,1.5-0.5,2.8-1.4,3.7c-0.5,0.5-1,0.9-1.7,1.3c0.7,0.2,1.3,0.6,1.7,1.1C15.6,49,16,50.3,16,51.8z
				 M10.4,37.5c0-0.6-0.5-1.2-1.2-1.2H7.7v8.2h1.5c0.6,0,1.2-0.5,1.2-1.2V37.5z M10.4,51c0-0.6-0.5-1.2-1.2-1.2H7.7v10h1.5
				c0.6,0,1.2-0.5,1.2-1.2V51z"/>
			<path class="st0" d="M34.1,65h-4.4c-0.4,0-0.8-0.3-0.9-0.7l-3.5-11.8v12c-0.1,0.3-0.4,0.5-0.7,0.5h-4.3c-0.4,0-0.7-0.3-0.7-0.7
				V31.9c0-0.4,0.3-0.7,0.7-0.7h7.3c3.3,0,6.1,2.8,6.1,6.1v7.9c0,2.4-1.4,4.4-3.3,5.4l4.3,13.8C34.7,64.8,34.5,65,34.1,65z
				 M25.3,46.1h1.5c0.6,0,1.2-0.5,1.2-1.2v-7.4c0-0.6-0.5-1.2-1.2-1.2h-1.5V46.1z"/>
			<path class="st0" d="M43.5,64.4c0,0.4-0.3,0.7-0.7,0.7h-4.3c-0.4,0-0.7-0.3-0.7-0.7V31.9c0-0.4,0.3-0.7,0.7-0.7h4.3
				c0.4,0,0.7,0.3,0.7,0.7V64.4z"/>
			<path class="st0" d="M61.9,37.3v21.7c0,3.3-2.8,6.1-6.1,6.1h-7.3c-0.4,0-0.7-0.3-0.7-0.7V31.9c0-0.4,0.3-0.7,0.7-0.7h7.3
				C59.1,31.2,61.9,33.9,61.9,37.3z M56.2,37.5c0-0.6-0.5-1.2-1.2-1.2h-1.5v23.5h1.5c0.6,0,1.2-0.5,1.2-1.2V37.5z"/>
			<path class="st0" d="M79.3,36.9v1.5c0,0.4-0.3,0.8-0.6,0.9L74.3,41c-0.3,0.1-0.6-0.1-0.6-0.5v-3.3c0-0.6-0.5-1.2-1.2-1.2h-0.4
				c-0.6,0-1.2,0.5-1.2,1.2V59c0,0.6,0.5,1.2,1.2,1.2h0.4c0.6,0,1.2-0.5,1.2-1.2v-8.6h-1.4v-5.5h6.3c0.4,0,0.7,0.3,0.7,0.7v13.7
				c0,3.3-2.8,6.1-6.1,6.1h-1.8c-3.3,0-6.1-2.8-6.1-6.1V36.9c0-3.3,2.8-6.1,6.1-6.1h1.8C76.5,30.8,79.3,33.6,79.3,36.9z"/>
			<path class="st0" d="M95,60.1v4.3c0,0.4-0.3,0.7-0.7,0.7H83.8c-0.4,0-0.7-0.3-0.7-0.7V31.9c0-0.4,0.3-0.7,0.7-0.7h10.5
				c0.4,0,0.7,0.3,0.7,0.7v4.3c0,0.4-0.3,0.7-0.7,0.7h-5.5v7h4.8c0.4,0,0.7,0.3,0.7,0.7v4.3c0,0.4-0.3,0.7-0.7,0.7h-4.8v9.9h5.5
				C94.7,59.4,95,59.7,95,60.1z"/>
		</g>
	</g>
	<g>
		<g>
			<path class="st0" d="M191.3,60.1v4.3c0,0.4-0.3,0.7-0.7,0.7h-10.5c-0.4,0-0.7-0.3-0.7-0.7V31.9c0-0.4,0.3-0.7,0.7-0.7h10.5
				c0.4,0,0.7,0.3,0.7,0.7v4.3c0,0.4-0.3,0.7-0.7,0.7h-5.5v7h4.8c0.4,0,0.7,0.3,0.7,0.7v4.3c0,0.4-0.3,0.7-0.7,0.7h-4.8v9.9h5.5
				C191,59.4,191.3,59.7,191.3,60.1z"/>
			<path class="st0" d="M208,60.1v4.3c0,0.4-0.3,0.7-0.7,0.7h-6.5c0,0,0,0-0.1,0h0h-4.3c-0.4,0-0.7-0.3-0.7-0.7V31.9
				c0-0.4,0.3-0.7,0.7-0.7h4.3c0.4,0,0.7,0.3,0.7,0.7v27.5h6C207.7,59.4,208,59.7,208,60.1z"/>
			<path class="st0" d="M223.3,60.1v4.3c0,0.4-0.3,0.7-0.7,0.7h-10.5c-0.4,0-0.7-0.3-0.7-0.7V31.9c0-0.4,0.3-0.7,0.7-0.7h10.5
				c0.4,0,0.7,0.3,0.7,0.7v4.3c0,0.4-0.3,0.7-0.7,0.7h-5.5v7h4.8c0.4,0,0.7,0.3,0.7,0.7v4.3c0,0.4-0.3,0.7-0.7,0.7h-4.8v9.9h5.5
				C223,59.4,223.3,59.7,223.3,60.1z"/>
			<path class="st0" d="M246.2,31.9v32.5c0,0.4-0.3,0.7-0.7,0.7h-4.6c-0.4,0-0.7-0.3-0.7-0.7V49.1L237,61.6c-0.1,0.3-0.4,0.3-0.5,0
				l-3.2-12.5v15.3c0,0.4-0.3,0.7-0.7,0.7H228c-0.4,0-0.7-0.3-0.7-0.7V31.9c0-0.4,0.3-0.7,0.7-0.7h4.1c0.4,0,0.7,0.3,0.8,0.7
				l3.8,17.3l3.8-17.3c0.1-0.3,0.4-0.7,0.8-0.7h4.1C245.9,31.2,246.2,31.5,246.2,31.9z"/>
			<path class="st0" d="M262.4,60.1v4.3c0,0.4-0.3,0.7-0.7,0.7h-10.5c-0.4,0-0.7-0.3-0.7-0.7V31.9c0-0.4,0.3-0.7,0.7-0.7h10.5
				c0.4,0,0.7,0.3,0.7,0.7v4.3c0,0.4-0.3,0.7-0.7,0.7h-5.5v7h4.8c0.4,0,0.7,0.3,0.7,0.7v4.3c0,0.4-0.3,0.7-0.7,0.7h-4.8v9.9h5.5
				C262.1,59.4,262.4,59.7,262.4,60.1z"/>
			<path class="st0" d="M281.8,31.9v32.5c0,0.4-0.3,0.7-0.7,0.7H278c-0.4,0-0.8-0.3-0.9-0.6l-5.1-16v16c0,0.4-0.3,0.7-0.7,0.7H267
				c-0.4,0-0.7-0.3-0.7-0.7V31.9c0-0.4,0.3-0.7,0.7-0.7h3.2c0.4,0,0.8,0.3,0.9,0.6l5,15.5V31.9c0-0.4,0.3-0.7,0.7-0.7h4.3
				C281.5,31.2,281.8,31.5,281.8,31.9z"/>
			<path class="st0" d="M299,31.9v4.3c0,0.4-0.3,0.7-0.7,0.7h-3.4v27.5c0,0.4-0.3,0.7-0.7,0.7h-4.3c-0.3,0-0.7-0.3-0.7-0.7V36.8
				h-3.4c-0.4,0-0.7-0.3-0.7-0.7v-4.3c0-0.4,0.3-0.7,0.7-0.7h12.5C298.7,31.2,299,31.5,299,31.9z"/>
		</g>
	</g>
	<path class="st1" d="M169.6,45.3c0,17.6-14.3,31.9-31.9,31.9s-31.9-14.3-31.9-31.9c0-17.6,14.3-31.9,31.9-31.9
		S169.6,27.8,169.6,45.3z M122.2,46.3c0,2.8,7.7-3.9,14.8-4.3c8.9-0.4,15.7,7.2,16.4,3.9l-0.1-12.3c0-1.6-1.3-2.8-2.8-2.8h-25.4
		c-1.6,0-2.8,1.3-2.8,2.8L122.2,46.3z M122.4,57.2c0,1.6,1.1,2.8,2.6,2.8h25.4c1.6,0,2.6-1.3,2.6-2.8v-6.5c-3.8-3-9.1-4.9-15.3-4.9
		c-6.1,0-11.4,1.8-15.3,4.7V57.2z"/>
</g>
</svg>
