<?xml version="1.0" encoding="utf-8"?>
<svg xmlns="http://www.w3.org/2000/svg" width="300" height="90" viewBox="0 0 300 90">
  <g fill="none" fill-rule="evenodd" transform="translate(0 23.082)">
    <path fill="#0C81C5" d="M278.293151,0 C290.09589,0 299.664384,9.56849315 299.664384,21.3712329 C299.664384,33.1726027 290.09589,42.7410959 278.293151,42.7410959 C266.489041,42.7410959 256.920548,33.1726027 256.920548,21.3712329 C256.920548,9.56849315 266.489041,0 278.293151,0 Z"/>
    <path fill="#FFF" d="M277.341096 14.3465753C276.880822 14.3465753 276.652055 14.2479452 276.389041 14.1164384L273.430137 14.8082192 273.430137 30.9178082C273.527397 31.0821918 273.724658 31.4109589 273.724658 31.739726 273.724658 32.5945205 273.2 33.2520548 271.719178 33.2520548 270.831507 33.2520548 270.371233 32.7917808 270.371233 31.9369863 270.371233 31.4767123 270.469863 31.0821918 270.60137 30.8191781L270.60137 15.3 267.938356 15.9589041C267.708219 16.1219178 267.346575 16.2863014 266.952055 16.2863014 266.09726 16.3191781 265.571233 15.7287671 265.571233 14.9712329 265.571233 14.0506849 266.130137 13.360274 266.754795 13.360274 267.313699 13.360274 267.445205 13.4589041 267.642466 13.5246575L270.79863 12.7356164C271.160274 12.3082192 272.376712 12.0780822 272.969863 12.3410959L276.321918 11.5849315C276.749315 11.4205479 276.946575 11.3547945 277.309589 11.3547945 278 11.3547945 278.591781 11.7821918 278.591781 12.8671233 278.591781 13.6232877 278.064384 14.3465753 277.341096 14.3465753zM292.858904 15.1684932C291.247945 17.9643836 289.99863 20.8232877 289.406849 22.2712329 287.828767 26.1835616 286.809589 30.0630137 286.809589 31.1150685 286.809589 32.7917808 286.184932 33.3835616 284.672603 33.3178082 283.949315 33.3835616 282.99589 32.7260274 283.094521 32.0684932 283.094521 31.4438356 283.258904 30.9506849 283.258904 30.3917808 283.258904 28.6821918 282.469863 24.8356164 281.549315 21.1534247 280.628767 17.6342466 280.10274 15.0383562 280.10274 13.1958904 280.10274 12.2753425 280.661644 11.7164384 281.647945 11.7164384 282.864384 11.7164384 282.99589 12.8342466 282.99589 14.0506849 282.99589 14.8726027 283.258904 16.6164384 284.310959 21.1534247 284.90274 23.7506849 285.132877 25.4931507 285.330137 27.1369863L285.39589 27.1369863C286.382192 23.2575342 289.078082 16.4191781 290.261644 13.8534247 290.623288 12.3410959 291.116438 11.9465753 291.938356 11.9465753 292.760274 11.9465753 293.353425 12.3082192 293.353425 13.5575342 293.353425 14.0178082 293.154795 14.609589 292.858904 15.1684932zM266.528767 32.9315068C267.490411 32.9315068 267.884932 32.1671233 267.884932 31.3780822 267.884932 30.3917808 267.441096 29.9972603 266.8 29.9972603 265.936986 29.9972603 265.443836 30.860274 265.443836 31.5506849 265.443836 32.4876712 266.035616 32.9315068 266.528767 32.9315068z"/>
    <path fill="#4D4D4E" d="M8.77534247,34.3273973 C9.21643836,34.3273973 9.65890411,34.1849315 10.1013699,33.8986301 L10.1013699,38.5657534 C9.50273973,39.0643836 8.76712329,39.3136986 7.89726027,39.3136986 C5.5,39.3136986 3.58356164,37.7383562 2.14931507,34.5835616 C0.716438356,31.430137 0,27.0219178 0,21.3561644 C0,15.0205479 1.05479452,10.2328767 3.16712329,6.99452055 C4.5369863,4.9109589 6.07808219,3.86849315 7.79041096,3.86849315 C8.57534247,3.86849315 9.34520548,4.09041096 10.1013699,4.53287671 L10.1013699,8.9630137 C9.61643836,8.70547945 9.15342466,8.57808219 8.70958904,8.57808219 C7.83972603,8.57808219 7.09726027,9.12054795 6.48493151,10.2054795 C5.42876712,12.0876712 4.9,15.6136986 4.9,20.7780822 C4.9,26.2287671 5.25342466,29.8506849 5.96027397,31.6410959 C6.66712329,33.4315068 7.60410959,34.3273973 8.77534247,34.3273973 Z M23.2821918,39.0356164 L23.2821918,24.309589 L20.8849315,24.309589 L20.8849315,39.0356164 L16.1767123,39.0356164 L16.1767123,4.14657534 L20.8849315,4.14657534 L20.8849315,19.7726027 L23.2821918,19.7726027 L23.2821918,4.14657534 L27.9917808,4.14657534 L27.9917808,39.0356164 L23.2821918,39.0356164 Z M44.3178082,37.1958904 C43.2479452,38.6082192 42.0356164,39.3136986 40.6794521,39.3136986 C39.7520548,39.3136986 38.8205479,38.9547945 37.8863014,38.2328767 C36.9520548,37.5123288 36.2410959,36.460274 35.7561644,35.0767123 C35.1136986,33.1931507 34.7945205,31.3589041 34.7945205,29.5753425 L34.7945205,4.14657534 L39.5027397,4.14657534 L39.5027397,29.5753425 C39.5027397,31.7013699 39.8945205,33.1287671 40.6794521,33.8561644 C41.3643836,32.9424658 41.7068493,31.6589041 41.7068493,30.0041096 L41.7068493,4.14657534 L46.4369863,4.14657534 L46.4369863,29.5753425 C46.4369863,32.7712329 45.7315068,35.3109589 44.3178082,37.1958904 Z M65.2369863,29.2547945 C65.6575342,31.6232877 66.0178082,34.8835616 66.3178082,39.0356164 L61.5657534,39.0356164 C61.3657534,33.8424658 60.8945205,30.0315068 60.1534247,27.6068493 C59.5972603,25.7794521 58.8616438,24.4958904 57.9479452,23.7534247 L57.9479452,39.0356164 L53.239726,39.0356164 L53.239726,4.14657534 L55.7657534,4.14657534 C58.7191781,4.14657534 61.0191781,4.99589041 62.6684932,6.69452055 C64.3164384,8.39178082 65.139726,10.7684932 65.139726,13.8219178 C65.139726,15.5479452 64.8041096,17.0821918 64.1342466,18.4232877 C63.6630137,19.3794521 62.9287671,20.2931507 61.930137,21.1630137 C62.6575342,21.9630137 63.1931507,22.7191781 63.5356164,23.4328767 C64.2479452,24.9452055 64.8150685,26.8863014 65.2369863,29.2547945 Z M60.1315068,10.960274 C59.7041096,10.1 59.1041096,9.50547945 58.3342466,9.17671233 L58.3342466,19.2164384 C59.090411,18.8876712 59.6849315,18.2794521 60.1205479,17.390411 C60.5561644,16.5 60.7739726,15.4356164 60.7739726,14.1972603 C60.7739726,12.9013699 60.560274,11.8219178 60.1315068,10.960274 Z M79.5410959,34.3273973 C79.9835616,34.3273973 80.4260274,34.1849315 80.8684932,33.8986301 L80.8684932,38.5657534 C80.2684932,39.0643836 79.5342466,39.3136986 78.6630137,39.3136986 C76.2657534,39.3136986 74.3506849,37.7383562 72.9164384,34.5835616 C71.4821918,31.430137 70.7657534,27.0219178 70.7657534,21.3561644 C70.7657534,15.0205479 71.8219178,10.2328767 73.9328767,6.99452055 C75.3027397,4.9109589 76.8438356,3.86849315 78.5561644,3.86849315 C79.3410959,3.86849315 80.1109589,4.09041096 80.8684932,4.53287671 L80.8684932,8.9630137 C80.3835616,8.70547945 79.9191781,8.57808219 79.4767123,8.57808219 C78.6054795,8.57808219 77.8643836,9.12054795 77.2506849,10.2054795 C76.1945205,12.0876712 75.6671233,15.6136986 75.6671233,20.7780822 C75.6671233,26.2287671 76.0205479,29.8506849 76.7260274,31.6410959 C77.4328767,33.4315068 78.3712329,34.3273973 79.5410959,34.3273973 Z M94.0493151,39.0356164 L94.0493151,24.309589 L91.6520548,24.309589 L91.6520548,39.0356164 L86.9424658,39.0356164 L86.9424658,4.14657534 L91.6520548,4.14657534 L91.6520548,19.7726027 L94.0493151,19.7726027 L94.0493151,4.14657534 L98.7575342,4.14657534 L98.7575342,39.0356164 L94.0493151,39.0356164 Z M110.310959,9.5630137 C109.754795,10.2191781 109.476712,11.1753425 109.476712,12.430137 C109.476712,13.2589041 109.567123,14.0726027 109.750685,14.8712329 C110.10137,16.3684932 110.7,18.2315068 111.545205,20.4575342 C112.605479,23.239726 113.379452,25.730137 113.864384,27.9273973 C114.106849,29.039726 114.228767,30.2315068 114.228767,31.5013699 C114.228767,34.0136986 113.617808,35.9424658 112.39863,37.2917808 C111.178082,38.639726 109.654795,39.3136986 107.828767,39.3136986 C107.030137,39.3136986 106.038356,39.1287671 104.853425,38.7575342 L104.853425,33.9630137 C105.580822,34.2767123 106.252055,34.4342466 106.865753,34.4342466 C107.706849,34.4342466 108.375342,34.1630137 108.867123,33.6205479 C109.358904,33.0780822 109.605479,32.2794521 109.605479,31.2232877 C109.605479,30.3821918 109.512329,29.5753425 109.326027,28.8054795 C108.969863,27.2780822 108.313699,25.2986301 107.357534,22.8657534 C106.40137,20.4328767 105.69589,18.2232877 105.238356,16.2410959 C104.982192,15.1136986 104.853425,13.8575342 104.853425,12.4739726 C104.853425,9.47671233 105.434247,7.29315068 106.59726,5.92328767 C107.760274,4.55479452 109.276712,3.86849315 111.146575,3.86849315 C112.016438,3.86849315 113.015068,4.04794521 114.142466,4.40410959 L114.142466,9.04794521 C113.486301,8.73561644 112.887671,8.57808219 112.345205,8.57808219 C111.545205,8.57808219 110.868493,8.90684932 110.310959,9.5630137 Z M127.730137,8.70547945 L127.730137,39.0356164 L123.020548,39.0356164 L123.020548,8.70547945 L119.70411,8.70547945 L119.70411,4.14657534 L131.026027,4.14657534 L131.026027,8.70547945 L127.730137,8.70547945 Z M149.076712,29.2547945 C149.49726,31.6232877 149.857534,34.8835616 150.157534,39.0356164 L145.405479,39.0356164 C145.205479,33.8424658 144.735616,30.0315068 143.993151,27.6068493 C143.436986,25.7794521 142.70137,24.4958904 141.789041,23.7534247 L141.789041,39.0356164 L137.079452,39.0356164 L137.079452,4.14657534 L139.605479,4.14657534 C142.558904,4.14657534 144.860274,4.99589041 146.508219,6.69452055 C148.156164,8.39178082 148.980822,10.7684932 148.980822,13.8219178 C148.980822,15.5479452 148.645205,17.0821918 147.973973,18.4232877 C147.50274,19.3794521 146.768493,20.2931507 145.769863,21.1630137 C146.49726,21.9630137 147.032877,22.7191781 147.375342,23.4328767 C148.087671,24.9452055 148.656164,26.8863014 149.076712,29.2547945 Z M143.972603,10.960274 C143.543836,10.1 142.943836,9.50547945 142.173973,9.17671233 L142.173973,19.2164384 C142.930137,18.8876712 143.526027,18.2794521 143.961644,17.390411 C144.39589,16.5 144.613699,15.4356164 144.613699,14.1972603 C144.613699,12.9013699 144.4,11.8219178 143.972603,10.960274 Z M164.108219,34.4561644 L164.108219,39.0356164 L156.082192,39.0356164 L156.082192,4.14657534 L164.108219,4.14657534 L164.108219,8.76986301 L160.791781,8.76986301 L160.791781,19.7726027 L164.108219,19.7726027 L164.108219,24.309589 L160.791781,24.309589 L160.791781,34.4561644 L164.108219,34.4561644 Z M177.353425,39.0356164 L177.121918,32.7643836 L174.490411,32.7643836 L174.021918,39.0356164 L169.347945,39.0356164 L173.308219,3.86849315 L178.423288,3.86849315 L182.105479,39.0356164 L177.353425,39.0356164 Z M176.446575,21.1205479 L175.952055,9.64794521 L175.564384,9.64794521 C175.420548,14.5273973 175.313699,17.6534247 175.241096,19.0232877 L174.746575,28.2054795 L176.805479,28.2054795 L176.446575,21.1205479 Z M201.128767,39.0356164 L200.005479,22.0630137 L197.471233,39.0356164 L195.908219,39.0356164 L193.583562,22.0630137 L192.310959,39.0356164 L187.794521,39.0356164 L191.467123,4.14657534 L195.275342,4.14657534 L196.794521,23.4534247 L198.528767,4.14657534 L202.347945,4.14657534 L205.79589,39.0356164 L201.128767,39.0356164 Z M212.041096,39.0356164 L216.750685,39.0356164 L216.750685,4.14657534 L212.041096,4.14657534 L212.041096,39.0356164 Z M230.979452,39.0356164 L227.779452,19.6657534 L227.59863,19.6657534 L228.110959,39.0356164 L223.467123,39.0356164 L223.467123,4.14657534 L227.768493,4.14657534 L230.690411,22.3616438 L230.979452,22.3616438 L230.445205,4.14657534 L235.110959,4.14657534 L235.110959,39.0356164 L230.979452,39.0356164 Z M247.606849,26.1726027 L247.606849,21.6342466 L254.091781,21.6342466 L254.091781,39.0356164 C253.406849,39.2219178 252.479452,39.3136986 251.309589,39.3136986 C249.782192,39.3136986 248.583562,39.1068493 247.713699,38.6931507 C246.5,38.1369863 245.441096,37.1712329 244.534247,35.7931507 C243.628767,34.4164384 242.9,32.5438356 242.350685,30.1753425 C241.80274,27.8068493 241.527397,25.0369863 241.527397,21.869863 C241.527397,16.2616438 242.326027,11.860274 243.924658,8.6630137 C245.523288,5.46712329 247.606849,3.86849315 250.175342,3.86849315 C250.760274,3.86849315 251.312329,3.94794521 251.832877,4.10410959 C252.353425,4.26164384 253.106849,4.6109589 254.091781,5.15342466 L254.091781,10.6109589 C253.020548,9.24109589 251.943836,8.55753425 250.860274,8.55753425 C249.461644,8.55753425 248.369863,9.61232877 247.584932,11.7246575 C246.8,13.8356164 246.408219,16.9753425 246.408219,21.1424658 C246.408219,23.7246575 246.543836,26.0082192 246.813699,27.9917808 C247.084932,29.9753425 247.456164,31.4657534 247.927397,32.4657534 C248.283562,33.2068493 248.79726,33.8630137 249.468493,34.4342466 L249.468493,26.1726027 L247.606849,26.1726027 Z"/>
  </g>
</svg>
