<?xml version="1.0" encoding="utf-8"?>
<!-- Generator: Adobe Illustrator 19.2.1, SVG Export Plug-In . SVG Version: 6.00 Build 0)  -->
<svg version="1.1" xmlns="http://www.w3.org/2000/svg" xmlns:xlink="http://www.w3.org/1999/xlink" x="0px" y="0px"
	 viewBox="0 0 301 90" style="enable-background:new 0 0 301 90;" xml:space="preserve">
<style type="text/css">
	.st0{display:none;fill:#F5C671;}
	.st1{fill:#EAAA39;}
	.st2{fill:#FFFFFF;}
	.st3{fill:#636364;}
</style>
<g id="Layer_2">
	<polygon class="st0" points="-163.1,-154.8 -142.5,-188.4 -81.3,-200.6 -43.9,-187.9 -28.5,-147.3 -25.3,-153.8 40.6,-165.5 
		67.7,-155.2 91.1,-96.4 70.1,-51 91.1,5.5 69.1,54.1 30.8,56.9 12.1,100.4 -67.8,106.9 -85.5,100.4 -101.9,63 -111.7,79.3 
		-177.1,86.8 -207,79.3 -234.6,20.5 -209.4,-32.3 -234.6,-96.4 -206.6,-145.4 	"/>
	<g>
		<circle class="st1" cx="40.4" cy="45" r="34.9"/>
		<path class="st2" d="M27.5,52.2v0.2l0,0L27.5,52.2L27.5,52.2z"/>
		<path class="st2" d="M27.5,66.5l13,7.6l13-7.5l0-14.4l12.2-7l0-15l-13-7.6l-12.3,7.1l-12.2-7.1l-13,7.5l0,15l12.3,7.1l0,0
			 M40.6,45.6l10.8,6.3L51.2,52l-10.7,6.1L29.9,52l-0.2-0.1L40.6,45.6z M39.8,32.1l0,12.3l-10.7,6.1v-0.2l0-12.1L39.8,32.1
			L39.8,32.1z M16.8,44.2l0-13.2l11.5-6.6l10.8,6.3l-11.6,6.7l0,13L16.8,44.2z M52,65.7l-11.5,6.6l-11.4-6.6l0-12.3l11.4,6.6
			L52,53.3L52,65.7z M52,50.4v0.2l-10.7-6.2l0-12.3l0,0L52,38.3L52,50.4z M64.2,44.3l-10.7,6.1l0-13l-11.7-6.8l10.9-6.3L64.3,31
			L64.2,44.3z"/>
	</g>
	<g>
		<path class="st3" d="M93,37.1c2.9,0,4.9,1.5,5.9,3.5l-1,0.5c-1.1-2.2-3.2-3-5-3c-4.1,0-6.4,3.6-6.4,7c0,3.8,2.8,7.2,6.4,7.2
			c1.9,0,4.2-1,5.3-3.1l1,0.5c-1.1,2.4-3.9,3.7-6.4,3.7c-4.4,0-7.5-4.2-7.5-8.3C85.4,41.2,88.2,37.1,93,37.1z"/>
		<path class="st3" d="M111.4,53.3h-1.1v-6.6c0-2.9-1-4.4-2.9-4.4c-1.9,0-3.9,1.6-4.4,3.6v7.3h-1.1V36.7h1.1v7.6c1-1.8,2.8-3,4.8-3
			c2.6,0,3.7,2,3.7,5.2V53.3z"/>
		<path class="st3" d="M114.6,48.3v-6.8h1.1v6.6c0,2.9,1,4.3,3,4.3s3.9-1.4,4.6-3.6v-7.4h1.1v10.2c0,0.4,0.1,0.6,0.5,0.6v1
			c-0.2,0-0.3,0-0.4,0c-0.6,0-1.1-0.4-1.1-1v-1.8c-1,1.9-3,3-5,3C115.9,53.5,114.6,51.7,114.6,48.3z"/>
		<path class="st3" d="M133.6,42.5c-2.1,0.1-3.8,1.3-4.4,3.4v7.4H128V41.5h1.1v2.9c0.8-1.7,2.3-2.8,3.8-2.9c0.3,0,0.5,0,0.7,0V42.5z
			"/>
		<path class="st3" d="M140.7,41.3c2.1,0,3.8,1,4.7,2.7l-1.1,0.4c-0.7-1.3-2.1-2.1-3.6-2.1c-2.6,0-4.6,2.2-4.6,5
			c0,2.8,2.1,5.1,4.6,5.1c1.6,0,3.3-1,3.7-2.2l1.1,0.3c-0.6,1.7-2.6,2.9-4.8,2.9c-3.3,0-5.8-2.8-5.8-6.2
			C134.9,44,137.4,41.3,140.7,41.3z"/>
		<path class="st3" d="M157.7,53.3h-1.1v-6.6c0-2.9-1-4.4-2.9-4.4c-1.9,0-3.9,1.6-4.4,3.6v7.3h-1.1V36.7h1.1v7.6c1-1.8,2.8-3,4.8-3
			c2.6,0,3.7,2,3.7,5.2V53.3z"/>
		<path class="st3" d="M166.3,45.2c0-4.3,3.3-8.1,7.5-8.1c4.5,0,7.5,4.1,7.5,8.1c0,4.3-3.2,8.1-7.5,8.1
			C169.3,53.3,166.3,49.3,166.3,45.2z M173.8,52.3c3.8,0,6.4-3.6,6.4-7.1c0-3.7-2.7-7.1-6.4-7.1c-3.8,0-6.4,3.6-6.4,7.1
			C167.4,48.9,170.1,52.3,173.8,52.3z"/>
		<path class="st3" d="M184.7,43.8h-1.7v-0.9h1.7v-1.1c0-2.2,1.1-4.4,3.4-4.4c1.2,0,2,0.3,2.5,0.6c0.6-0.9,1.7-1.5,3.1-1.5
			c1.6,0,2.8,0.7,3.2,1l-0.6,0.8c-0.4-0.4-1.4-0.7-2.5-0.7c-2.1,0-2.9,1.9-2.9,3.6v1.8h5.8v10.4h-1.1v-9.5h-4.6v9.5h-1.1v-9.5h-3.9
			v9.5h-1.1V43.8z M189.7,42.9v-1.7c0-0.7,0.2-1.6,0.5-2.3c-0.5-0.4-1.3-0.5-1.9-0.5c-1.9,0-2.5,2-2.5,3.4v1.1H189.7z"/>
		<path class="st3" d="M205.1,41.3c2.1,0,3.8,1,4.7,2.7l-1.1,0.4c-0.7-1.3-2.1-2.1-3.6-2.1c-2.6,0-4.6,2.2-4.6,5
			c0,2.8,2.1,5.1,4.6,5.1c1.6,0,3.3-1,3.7-2.2l1.1,0.3c-0.6,1.7-2.6,2.9-4.8,2.9c-3.3,0-5.8-2.8-5.8-6.2
			C199.3,44,201.8,41.3,205.1,41.3z"/>
		<path class="st3" d="M211.7,47.3c0-3.3,2.5-6,5.8-6c3.3,0,5.7,2.8,5.8,6c0,0.2,0,0.4,0,0.5h-10.3c0.2,2.7,2.2,4.8,4.7,4.8
			c1.7,0,3.3-0.9,3.8-2.3l1,0.3c-0.7,1.7-2.7,2.9-4.9,2.9C214.2,53.5,211.7,50.7,211.7,47.3z M222.1,46.9c-0.2-2.8-2.2-4.7-4.7-4.7
			c-2.5,0-4.5,2-4.6,4.7H222.1z"/>
		<path class="st3" d="M230.9,45.2c0-4.3,3.3-8.1,7.5-8.1c4.5,0,7.5,4.1,7.5,8.1c0,4.3-3.2,8.1-7.5,8.1
			C234,53.3,230.9,49.3,230.9,45.2z M238.5,52.3c3.8,0,6.4-3.6,6.4-7.1c0-3.7-2.7-7.1-6.4-7.1c-3.8,0-6.4,3.6-6.4,7.1
			C232.1,48.9,234.7,52.3,238.5,52.3z"/>
		<path class="st3" d="M258.3,53.3h-1.1v-6.6c0-3-0.8-4.4-2.7-4.4c-2,0-4,1.6-4.6,3.6v7.3h-1.1V41.5h1v2.8c1-1.8,3-3,5.1-3
			c2.6,0,3.5,1.9,3.5,5.2V53.3z"/>
		<path class="st3" d="M261.7,36.7h1.2v14.2c0,0.9,0.5,1.4,1.4,1.4c0.3,0,0.9-0.1,1.2-0.2l0.2,0.9c-0.5,0.2-1.4,0.4-1.9,0.4
			c-1.3,0-2.1-0.8-2.1-2.1V36.7z"/>
		<path class="st3" d="M267.3,38.8v-2.1h1.1v2.1H267.3z M267.3,53.3V41.5h1.1v11.8H267.3z"/>
		<path class="st3" d="M281.5,53.3h-1.1v-6.6c0-3-0.8-4.4-2.7-4.4c-2,0-4,1.6-4.6,3.6v7.3h-1.1V41.5h1v2.8c1-1.8,3-3,5.1-3
			c2.6,0,3.5,1.9,3.5,5.2V53.3z"/>
		<path class="st3" d="M284.1,47.3c0-3.3,2.5-6,5.8-6c3.3,0,5.7,2.8,5.8,6c0,0.2,0,0.4,0,0.5h-10.3c0.2,2.7,2.2,4.8,4.7,4.8
			c1.7,0,3.3-0.9,3.8-2.3l1,0.3c-0.7,1.7-2.7,2.9-4.9,2.9C286.6,53.5,284.1,50.7,284.1,47.3z M294.5,46.9c-0.2-2.8-2.2-4.7-4.7-4.7
			c-2.5,0-4.5,2-4.6,4.7H294.5z"/>
	</g>
</g>
<g id="Layer_1">
</g>
</svg>
