<?xml version="1.0" standalone="no"?><!DOCTYPE svg PUBLIC "-//W3C//DTD SVG 1.1//EN" "http://www.w3.org/Graphics/SVG/1.1/DTD/svg11.dtd"><svg width="100%" height="100%" viewBox="0 0 500 150" version="1.1" xmlns="http://www.w3.org/2000/svg" xmlns:xlink="http://www.w3.org/1999/xlink" xml:space="preserve" style="fill-rule:evenodd;clip-rule:evenodd;stroke-linejoin:round;stroke-miterlimit:1.41421;"><g id="Ekklesia_360"><g><g><path d="M137.788,17.871l-4.9,0l-0.1,1.1l1.8,0l-0.6,5l1.3,0.1l0.6,-5.1l1.8,0l0.1,-1.1Z" style="fill:url(#_Linear1);fill-rule:nonzero;"/><path d="M146.088,17.871l-1.8,0l-2.1,4.2l-1.1,-4.2l-1.9,0l-0.7,6.2l1.2,0l0.6,-4.7l1.2,4.7l0.9,0l2.3,-4.7l-0.6,4.7l1.3,0l0.7,-6.2Z" style="fill:url(#_Linear2);fill-rule:nonzero;"/></g><path d="M82.288,116.871c-12.6,0.9 -26.1,-2.2 -34.2,-11c-8.1,-8.8 -12.2,-21.3 -10.6,-33.9c1.5,-12.6 8.6,-25.2 18.9,-33.7c9.8,-8.2 22.4,-12.4 34.3,-11.8c8.5,0.7 16.5,4 22,9.5c6.6,6.5 9.7,16.3 8,26.2c-1.2,8.3 -5.9,16.3 -12.4,22.2l-0.1,0c-11.5,10.7 -26.7,10.4 -32,9.5c-3.7,-0.6 -8.1,-3.1 -8.1,-7.2c0,-2.6 2.3,-7 6.9,-8.6c4.6,-1.6 13.3,-1.7 19.5,-1.7c6.2,0 11.6,-11.6 3.8,-11.6c-7.9,0 -18.4,0.1 -21.1,-0.9c-2.2,-0.8 -5.9,-3.1 -5.4,-7c0.1,-0.7 0.5,-3.5 3,-5.4c8.1,-6.1 27.7,1.4 27.7,1.4l4.4,-10.7c-0.1,-0.1 -12.4,-8.5 -29.2,-4.6c-17.2,3.9 -20.3,16 -20.8,17.8c-1.1,4 -0.3,9.2 4.9,15.6c-6.7,3.8 -9,10.8 -9.5,14.6c-2.6,20.1 26,28.1 50.8,15.9c2.1,-1 23.7,-11.1 29.4,-37.5c2.9,-13.4 -1.3,-27.2 -10.2,-36.3c-7.4,-7.2 -18.3,-12.8 -35.2,-12.8c-10.8,0 -26.2,5.7 -36.9,14.4c-13,10.4 -21.9,25.8 -24.2,41.4c-5.2,31.9 18.2,58.1 51.3,56.8c21.2,-0.9 54.3,-19.2 58.5,-50.9c-9.9,23.2 -29.2,37.8 -53.5,40.3Z" style="fill:url(#_Linear3);fill-rule:nonzero;"/></g><g><path d="M168.488,77.171c0.1,5.5 2.9,8 7.4,8c3,0 6.3,-1 9.3,-2.2l0.8,6.2c-3.1,1.3 -7.2,2.1 -11.2,2.1c-8.3,0 -13.3,-5.7 -13.3,-14.2c0,-11.1 6.6,-21 18.8,-21c6.2,0 10.9,3 10.9,8.9c0,7 -7.2,12.4 -18.3,12.4c-1.7,0.1 -3.7,-0.1 -4.4,-0.2ZM169.288,71.471l3.6,0c7.2,0 11.3,-2.8 11.3,-6.1c0,-2 -1.8,-3 -4.6,-3c-4.8,0 -8.7,3.7 -10.3,9.1Z" style="fill:#172630;fill-rule:nonzero;"/><path d="M264.788,39.871l7,0l-8,50.9l-7,0l8,-50.9Z" style="fill:#172630;fill-rule:nonzero;"/><path d="M278.788,77.171c0.1,5.5 2.9,8 7.4,8c3,0 6.3,-1 9.3,-2.2l0.8,6.2c-3.1,1.3 -7.2,2.1 -11.2,2.1c-8.3,0 -13.3,-5.7 -13.3,-14.2c0,-11.1 6.6,-21 18.8,-21c6.2,0 10.9,3 10.9,8.9c0,7 -7.2,12.4 -18.3,12.4c-1.6,0.1 -3.6,-0.1 -4.4,-0.2ZM279.588,71.471l3.6,0c7.2,0 11.3,-2.8 11.3,-6.1c0,-2 -1.8,-3 -4.6,-3c-4.7,0 -8.6,3.7 -10.3,9.1Z" style="fill:#172630;fill-rule:nonzero;"/><path d="M313.488,85.371c3.9,0 6.5,-1.7 6.5,-3.9c0,-1.5 -1.2,-2.7 -4.4,-4.6l-3.5,-2.1c-4.2,-2.5 -6.5,-5.1 -6.5,-9.3c0,-5.3 3.9,-9.5 12.5,-9.5c3.9,0 7.6,1.1 11.1,2.5l-1.9,5.6c-3,-1.1 -6.4,-2.2 -9.7,-2.2c-3.1,0 -5,1.5 -5,3.6c0,1.8 1.3,3 3.7,4.4l3.5,2.1c4.6,2.7 7.2,5.4 7.2,9.6c0,6 -6,9.8 -13.9,9.8c-3.8,0 -7.4,-0.9 -10.3,-1.9l1.4,-6.1c2.4,0.9 5.8,2 9.3,2Z" style="fill:#172630;fill-rule:nonzero;"/><path d="M337.388,56.471l7,0l-5.4,34.4l-7,0l5.4,-34.4ZM342.188,41.971c2.5,0 4.6,2.1 4.6,4.6c0,2.5 -2.1,4.6 -4.6,4.6c-2.5,0 -4.6,-2.1 -4.6,-4.6c0,-2.5 2.1,-4.6 4.6,-4.6Z" style="fill:#172630;fill-rule:nonzero;"/><path d="M377.388,90.671c0,0 -1.4,0.4 -3.4,0.4c-4.2,0 -6.5,-1.6 -7.4,-5.4c-2.8,3.8 -6.6,5.5 -10.7,5.5c-6.6,0 -9.7,-4.1 -9.7,-9.1c0,-6.5 6.6,-11.7 16.1,-11.7c1.9,0 3.6,0.1 5.4,0.4c0.3,-2.1 0.5,-3.2 0.5,-4.2c0,-3.1 -1.7,-4.4 -4.8,-4.4c-3.7,0 -7.4,0.9 -11.4,2l0,-6.2c3.7,-0.9 7.7,-1.9 12.4,-1.9c7.3,0 11,3.1 11,9.3c0,1.1 -0.2,2.9 -0.5,5l-1.4,8.6c-0.2,1.2 -0.3,2.4 -0.3,2.9c0,2.1 1,3.3 3,3.3c1.3,0 2.9,-0.2 2.9,-0.2l-1.7,5.7ZM366.688,76.171c-1.5,-0.2 -3.1,-0.4 -4.5,-0.4c-4.8,0 -9.1,2.1 -9.1,6c0,1.9 1.5,3.7 4,3.7c3.6,0 8.5,-2.4 9.6,-9.3Z" style="fill:#172630;fill-rule:nonzero;"/><path d="M225.088,55.971l-8.8,0l-12.7,13l4.6,-29.1l-7,0l-8.1,51l7,0l2.8,-17.3l9.9,17.3l7.5,0l-11.1,-18.8l15.9,-16.1Z" style="fill:#172630;"/><path d="M257.088,55.971l-8.9,0l-12.7,13l4.6,-29.1l-7,0l-8.1,51l7.1,0l2.7,-17.3l10,17.3l7.4,0l-11.1,-18.8l16,-16.1Z" style="fill:#172630;"/></g><g><path d="M442.388,53.071c-9.7,2 -17.9,7.3 -20.9,15.8c2.8,-2.8 6.5,-4.3 9.7,-4.3c6.6,0 10.9,3.7 10.9,10.8c0,9.2 -7.5,16 -15.2,16c-7.7,0 -13,-5.2 -13,-14c0,-15.8 12,-26.8 27,-29.6l1.5,5.3ZM420.588,79.471c0,3.6 3.1,6.1 6.6,6.1c4.3,0 8.8,-4.2 8.8,-10.2c0,-3 -1.8,-5.4 -5.4,-5.4c-5.4,0.1 -10,4.4 -10,9.5Z" style="fill:#9d9fa1;fill-rule:nonzero;"/><path d="M463.088,55.471c-10.4,0 -18.2,9.4 -18.2,21.8c0,8.7 4.7,14.1 12.2,14.1c10.4,0 18.3,-9.4 18.3,-21.9c-0.1,-8.6 -4.8,-14 -12.3,-14ZM457.388,85.871c-5.2,0 -5.9,-5.4 -5.9,-8.7c0,-9.2 5.9,-16.1 11.2,-16.1c5,0 6,4.7 6,8.6c0,9.2 -6,16.2 -11.3,16.2Z" style="fill:#9d9fa1;fill-rule:nonzero;"/><path d="M404.688,74.571c4.3,-2.4 6.8,-6 6.8,-10.1c0,-5.9 -3.9,-9.5 -10.3,-9.5c-3.8,0 -7.9,1 -10.5,1.9l-0.3,0.1l0,6.2l0.5,-0.2c3.6,-1.2 6.6,-1.8 9.5,-1.8c3.2,0 4.8,1.1 4.8,3.3c0,4.1 -4.8,7.3 -10.7,7.3l-2.5,0l-0.4,0l-0.1,0.4l-0.8,5.2l-0.1,0.5l4.4,0c5.5,0 8.8,2 8.8,5.4c0,4.3 -3.9,7.6 -9.1,7.6c-4.8,0 -8.9,-1.5 -11.3,-2.7c0,0.2 -1.5,5.7 -1.5,5.7c2.5,1.4 6.8,3.2 12.4,3.2c7.7,0 15.9,-4.3 15.9,-13.7c0.1,-3.7 -2,-6.8 -5.5,-8.8Z" style="fill:#9d9fa1;fill-rule:nonzero;"/></g></g><defs><linearGradient id="_Linear1" x1="0" y1="0" x2="1" y2="0" gradientUnits="userSpaceOnUse" gradientTransform="matrix(106.213,216.59,-216.59,106.213,118.098,-15.357)"><stop offset="0%" style="stop-color:#008ca9;stop-opacity:1"/><stop offset="100%" style="stop-color:#fff5be;stop-opacity:1"/></linearGradient><linearGradient id="_Linear2" x1="0" y1="0" x2="1" y2="0" gradientUnits="userSpaceOnUse" gradientTransform="matrix(106.259,216.684,-216.684,106.259,123.225,-17.8903)"><stop offset="0%" style="stop-color:#008ca9;stop-opacity:1"/><stop offset="100%" style="stop-color:#fff5be;stop-opacity:1"/></linearGradient><linearGradient id="_Linear3" x1="0" y1="0" x2="1" y2="0" gradientUnits="userSpaceOnUse" gradientTransform="matrix(106.24,216.646,-216.646,106.24,53.6139,16.2549)"><stop offset="0%" style="stop-color:#008ca9;stop-opacity:1"/><stop offset="100%" style="stop-color:#fff5be;stop-opacity:1"/></linearGradient></defs></svg>