<?xml version="1.0" encoding="utf-8"?>
<!-- Generator: Adobe Illustrator 19.2.1, SVG Export Plug-In . SVG Version: 6.00 Build 0)  -->
<svg version="1.1" id="Layer_1_copy" xmlns="http://www.w3.org/2000/svg" xmlns:xlink="http://www.w3.org/1999/xlink" x="0px"
	 y="0px" viewBox="0 0 301 90" style="enable-background:new 0 0 301 90;" xml:space="preserve">
<style type="text/css">
	.st0{fill:#407CCA;}
	.st1{fill:#76787B;}
	.st2{fill:#525354;}
</style>
<g>
	<path class="st0" d="M144.9,43.3c2-1,4.1-2.2,6.2-3.6c2-1.4,4-2.9,6.1-4.5c-2.8,1.4-3.9,1.8-4.3,2.2c-1.4,1-8.6,4.6-11.1,1.9
		c-1.1-1.1-1.8-2.3-1.9-4.1c0-0.8,0-1.4,0.1-1.9c0.1-0.5,0.3-1.2,0.5-2l1.7-0.3c3.8-0.6,7.3-1.9,10.7-4.1c3.4-2.2,5-4.7,4.9-7.6
		c0-1.4-0.5-2.5-1.5-3.2c-1-0.7-2.2-1-3.8-1c-4.3,0.1-8.4,2.3-12.3,6.6c-4,4.3-5.9,8.7-5.8,13.2c0.1,2.8,0.9,5,2.6,6.5
		c1.5,1.3,3.1,2,5,2.1c-4.9,2.2-9.7,3.6-13.7,3.9C132.7,48,138.6,46.5,144.9,43.3z M141.8,27c0.6-1.5,1.4-3.1,2.4-4.8
		c1-1.4,2.1-2.7,3.3-3.9c1.2-1.2,2.5-1.8,3.8-1.8c0.7,0,1.3,0.2,1.6,0.6c0.4,0.4,0.6,1.1,0.6,1.8c0.1,2.1-1.1,4.3-3.5,6.5
		c-2.4,2.2-5.5,3.7-9.4,4.3C141.2,28.8,141.5,27.8,141.8,27z"/>
	<path class="st1" d="M144.9,43.3c2-1,4.1-2.2,6.2-3.6c2-1.4,4.1-2.9,6.1-4.5C171,23.6,178,9.3,172.8,3.1c-1.1-1.3-2.6-2.1-4.4-2.5
		c-4-0.3-8.9,0.5-14.2,2.3c-3.4,1.4-6.9,3.4-10.5,5.8c12.2-6.4,22.4-7,26.2-1.5c4.6,6.6-2.4,19.7-17.1,30c-1.4,1-3.8,3.1-10.8,6.2
		c-4.9,2.2-9.7,3.6-13.7,3.9C132.7,48,138.6,46.5,144.9,43.3z"/>
	<g>
		<path class="st2" d="M120.1,75.2c-1.6,1.6-3.7,2.4-6.3,2.4c-4.8,0-7.7-1.9-8.6-5.7h1.7c0.3,1.4,1.2,2.4,2.7,3.1
			c1.2,0.5,2.6,0.8,4.2,0.8c2.2,0,3.9-0.6,5.1-1.8c1.2-1.2,1.8-2.9,1.8-5.1v-2.6c-1.8,2.2-4.2,3.3-7,3.3c-2.6,0-4.7-0.9-6.4-2.6
			c-1.8-1.8-2.6-3.9-2.6-6.5c0-2.6,0.9-4.7,2.6-6.4c1.8-1.8,3.9-2.6,6.5-2.6c2.8,0,5.2,1.1,7,3.3v-3.1h1.7v17.2
			C122.5,71.5,121.7,73.6,120.1,75.2z M118.9,55.3c-1.5-1.5-3.2-2.2-5.2-2.2c-2,0-3.8,0.7-5.2,2.1c-1.5,1.5-2.2,3.2-2.2,5.2
			c0,2,0.7,3.8,2.2,5.2c1.5,1.5,3.2,2.2,5.2,2.2c2,0,3.8-0.7,5.2-2.1c1.5-1.5,2.2-3.2,2.2-5.2C121.1,58.5,120.3,56.8,118.9,55.3z"/>
		<path class="st2" d="M129.3,48.6c-0.3,0-0.6-0.1-1-0.4c-0.3-0.3-0.4-0.6-0.4-1c0-0.8,0.5-1.2,1.4-1.4c0.7,0,1.2,0.5,1.4,1.4
			C130.7,48.1,130.2,48.6,129.3,48.6z M128.4,69.3V51.7h1.7v17.6H128.4z"/>
		<path class="st2" d="M143,70.1l-8.3-18.4h1.9l6.4,14l6.4-14h2L143,70.1z"/>
		<path class="st2" d="M156.6,48.6c-0.3,0-0.6-0.1-1-0.4c-0.3-0.3-0.4-0.6-0.4-1c0-0.8,0.5-1.2,1.4-1.4c0.7,0,1.2,0.5,1.4,1.4
			C158,48.1,157.5,48.6,156.6,48.6z M155.7,69.3V51.7h1.7v17.6H155.7z"/>
		<path class="st2" d="M173.4,69.3V58.8c0-3.7-1.7-5.6-5-5.6c-1.6,0-2.9,0.5-3.8,1.5c-0.9,1-1.3,2.3-1.3,4v10.7h-1.7V51.7h1.7v2.1
			c0.8-1.6,2.5-2.3,5.1-2.3c2.2,0,3.9,0.6,5,1.9c1.2,1.3,1.7,3,1.7,5.2v10.7H173.4z"/>
		<path class="st2" d="M195,75.2c-1.6,1.6-3.7,2.4-6.3,2.4c-4.8,0-7.7-1.9-8.6-5.7h1.7c0.3,1.4,1.2,2.4,2.7,3.1
			c1.2,0.5,2.6,0.8,4.2,0.8c2.2,0,3.9-0.6,5.1-1.8c1.2-1.2,1.8-2.9,1.8-5.1v-2.6c-1.8,2.2-4.2,3.3-7,3.3c-2.6,0-4.7-0.9-6.4-2.6
			c-1.8-1.8-2.6-3.9-2.6-6.5c0-2.6,0.9-4.7,2.6-6.4c1.8-1.8,3.9-2.6,6.5-2.6c2.8,0,5.2,1.1,7,3.3v-3.1h1.7v17.2
			C197.4,71.5,196.6,73.6,195,75.2z M193.8,55.3c-1.5-1.5-3.2-2.2-5.2-2.2c-2,0-3.8,0.7-5.2,2.1c-1.5,1.5-2.2,3.2-2.2,5.2
			c0,2,0.7,3.8,2.2,5.2c1.5,1.5,3.2,2.2,5.2,2.2c2,0,3.8-0.7,5.2-2.1c1.5-1.5,2.2-3.2,2.2-5.2C196,58.5,195.2,56.8,193.8,55.3z"/>
	</g>
	<g>
		<g>
			<path class="st1" d="M129.9,73.9c-0.4-0.4-1-0.6-1.6-0.6c-0.5,0-1,0.1-1.3,0.4v-0.4h-0.9v6.2h0.9v-2.2c0.4,0.3,0.8,0.4,1.3,0.4
				c0.6,0,1.2-0.2,1.6-0.7s0.6-1,0.6-1.6C130.5,74.8,130.3,74.3,129.9,73.9z M128.3,76.8c-0.4,0-0.7-0.1-1-0.4
				c-0.3-0.3-0.4-0.6-0.4-1c0-0.4,0.1-0.7,0.4-1c0.3-0.3,0.6-0.4,1-0.4c0.4,0,0.7,0.1,1,0.4c0.3,0.3,0.4,0.6,0.4,1
				c0,0.4-0.1,0.7-0.4,1C129,76.7,128.7,76.8,128.3,76.8z"/>
		</g>
		<g>
			<path class="st1" d="M135.1,73.9c-0.4-0.4-1-0.7-1.6-0.7c-0.6,0-1.2,0.2-1.6,0.7c-0.4,0.4-0.7,1-0.7,1.6c0,0.6,0.2,1.2,0.7,1.6
				s1,0.6,1.6,0.6c0.6,0,1.2-0.2,1.6-0.7c0.4-0.4,0.6-1,0.6-1.6C135.8,74.8,135.6,74.3,135.1,73.9z M133.5,76.8
				c-0.4,0-0.7-0.1-1-0.4c-0.3-0.3-0.4-0.6-0.4-1c0-0.4,0.1-0.7,0.4-1c0.3-0.3,0.6-0.4,1-0.4c0.4,0,0.7,0.1,1,0.4
				c0.3,0.3,0.4,0.6,0.4,1c0,0.4-0.1,0.7-0.4,1C134.2,76.7,133.9,76.8,133.5,76.8z"/>
		</g>
		<g>
			<polygon class="st1" points="143.1,73.3 141,78.2 139.8,75.1 138.6,78.2 136.5,73.3 137.4,73.3 138.5,75.9 139.8,72.7 141,75.9 
				142.2,73.3 			"/>
		</g>
		<g>
			<path class="st1" d="M148.2,75.4c0-0.6-0.2-1.2-0.6-1.6c-0.4-0.4-1-0.6-1.6-0.6c-0.6,0-1.2,0.2-1.6,0.6c-0.4,0.4-0.6,1-0.6,1.6
				c0,0.6,0.2,1.2,0.6,1.6c0.4,0.4,1,0.6,1.6,0.6c0.3,0,0.5,0,0.7-0.1c0.6-0.2,1-0.5,1.3-1.1l0.1-0.2l-0.8-0.4l-0.1,0.2
				c-0.2,0.3-0.4,0.5-0.6,0.6c-0.2,0.1-0.4,0.1-0.6,0.1c-0.4,0-0.8-0.1-1-0.4c-0.2-0.2-0.3-0.5-0.3-0.8h3.6V75.4z M144.8,74.8
				c0.2-0.5,0.6-0.7,1.2-0.7c0.3,0,0.6,0.1,0.9,0.3l0,0c0.2,0.1,0.3,0.3,0.4,0.4H144.8z"/>
		</g>
		<g>
			<path class="st1" d="M151.9,73.7l-0.5,0.7l-0.2-0.2c-0.1-0.1-0.2-0.1-0.3-0.1c-0.1,0-0.3-0.1-0.4,0c-0.1,0-0.1,0.1-0.2,0.2
				c-0.1,0.1-0.1,0.2-0.1,0.3c0,0.1,0,0.2,0,0.2v2.8h-0.9v-4.3h0.9v0.1c0.3-0.2,0.8-0.2,1.1-0.1c0.1,0.1,0.3,0.1,0.5,0.3L151.9,73.7
				z"/>
		</g>
		<g>
			<path class="st1" d="M157.1,75.4c0-0.6-0.2-1.2-0.6-1.6c-0.4-0.4-1-0.6-1.6-0.6c-0.6,0-1.2,0.2-1.6,0.6c-0.4,0.4-0.6,1-0.6,1.6
				c0,0.6,0.2,1.2,0.6,1.6c0.4,0.4,1,0.6,1.6,0.6c0.3,0,0.5,0,0.7-0.1c0.6-0.2,1-0.5,1.3-1.1l0.1-0.2l-0.8-0.4l-0.1,0.2
				c-0.2,0.3-0.4,0.5-0.6,0.6c-0.2,0.1-0.4,0.1-0.6,0.1c-0.4,0-0.8-0.1-1-0.4c-0.2-0.2-0.3-0.5-0.3-0.8h3.6V75.4z M153.7,74.8
				c0.2-0.5,0.6-0.7,1.2-0.7c0.3,0,0.6,0.1,0.9,0.3v0c0.2,0.1,0.3,0.3,0.4,0.4H153.7z"/>
		</g>
		<g>
			<path class="st1" d="M161.5,70.2v3.4c-0.4-0.3-0.8-0.4-1.3-0.4c-0.6,0-1.2,0.2-1.6,0.7s-0.6,1-0.6,1.6c0,0.6,0.2,1.2,0.7,1.6
				s1,0.6,1.6,0.6c0.5,0,1-0.1,1.3-0.4v0.4h0.9v-7.4H161.5z M161.2,76.4c-0.3,0.3-0.6,0.4-1,0.4c-0.4,0-0.7-0.1-1-0.4
				c-0.3-0.3-0.4-0.6-0.4-1c0-0.4,0.1-0.7,0.4-1c0.3-0.3,0.6-0.4,1-0.4c0.4,0,0.7,0.1,1,0.4c0.3,0.3,0.4,0.6,0.4,1
				C161.6,75.8,161.5,76.2,161.2,76.4z"/>
		</g>
		<g>
			<path class="st1" d="M170.5,73.9c-0.4-0.4-1-0.6-1.6-0.6c-0.5,0-1,0.1-1.3,0.4v-3.4h-0.9v7.4h0.9v-0.4c0.4,0.3,0.8,0.4,1.3,0.4
				c0.6,0,1.2-0.2,1.6-0.7c0.4-0.4,0.6-1,0.6-1.6C171.2,74.8,171,74.3,170.5,73.9z M169,76.8c-0.4,0-0.7-0.1-1-0.4
				c-0.3-0.3-0.4-0.6-0.4-1c0-0.4,0.1-0.7,0.4-1c0.3-0.3,0.6-0.4,1-0.4c0.4,0,0.7,0.1,1,0.4c0.3,0.3,0.4,0.6,0.4,1
				c0,0.4-0.1,0.7-0.4,1C169.7,76.7,169.3,76.8,169,76.8z"/>
		</g>
		<g>
			<polygon class="st1" points="176.3,73.3 173.5,79.4 172.5,79.4 173.6,77 171.9,73.3 172.8,73.3 174.1,76 175.4,73.3 			"/>
		</g>
	</g>
	<g>
		<g>
			<polygon class="st1" points="113.4,80.3 113.4,90 107.6,83.2 107.6,89 106.2,89 106.2,79.4 112,86.2 112,80.3 			"/>
		</g>
		<g>
			<path class="st1" d="M118.1,82.4c-0.6,0.6-0.9,1.3-0.9,2.2c0,0.9,0.3,1.6,0.8,2.2c0.6,0.6,1.3,0.9,2.2,0.9c0.6,0,1.1-0.1,1.5-0.3
				c0.3-0.1,0.6-0.3,1-0.6l0.8-0.6V88l-0.7,0.5c-0.5,0.4-1.1,0.6-1.9,0.6c-0.1,0-0.2,0-0.3,0c-0.1,0-0.2,0-0.3,0
				c-1.3,0-2.4-0.4-3.2-1.3c-0.8-0.8-1.3-1.9-1.3-3.2c0-1.3,0.4-2.4,1.3-3.2c0.8-0.8,1.9-1.3,3.2-1.3c0.7,0,1.4,0.1,2,0.3
				c0.4,0.1,0.7,0.4,1.1,0.6l0.2,0.1v1.8l-0.8-0.7c-0.3-0.2-0.6-0.4-0.9-0.5c-0.5-0.2-1-0.3-1.5-0.3
				C119.4,81.6,118.7,81.9,118.1,82.4z"/>
		</g>
		<g>
			<path class="st1" d="M131.1,86.5c0,1.2-0.5,2-1.6,2.4c-0.3,0.1-0.7,0.2-1.2,0.2c-1.4,0-2.4-0.7-2.8-2l-0.1-0.4l1.4-0.5l0.1,0.5
				c0.2,0.7,0.6,1,1.4,1c0.4,0,0.8-0.1,1-0.3c0.2-0.2,0.3-0.5,0.3-0.9c0-0.4-0.1-0.7-0.4-0.9c0,0-0.2-0.1-0.4-0.3
				c-0.2-0.1-0.5-0.2-0.8-0.4c-0.7-0.3-1.1-0.6-1.4-0.8c-0.5-0.4-0.7-1-0.7-1.7c0-0.7,0.3-1.2,0.8-1.7c0.5-0.4,1-0.6,1.7-0.6
				c1.4,0,2,0.7,2.4,1.3l0.3,0.5l-1.3,0.6l-0.2-0.4c-0.1-0.2-0.2-0.3-0.4-0.4c-0.4-0.2-1.1-0.3-1.5,0.1c-0.2,0.2-0.3,0.4-0.3,0.6
				c0,0.1,0,0.4,0.3,0.6c0.1,0,0.3,0.2,1,0.5c0.4,0.2,0.7,0.3,0.9,0.5c0.3,0.2,0.5,0.3,0.7,0.5C130.9,85.1,131.1,85.8,131.1,86.5z"
				/>
		</g>
		<g>
			<path class="st1" d="M143.7,86.5c0,1.2-0.5,2-1.6,2.4h0c-0.3,0.1-0.7,0.2-1.2,0.2c-1.4,0-2.4-0.7-2.8-2l-0.1-0.4l1.4-0.5l0.1,0.5
				c0.2,0.7,0.6,1,1.4,1c0.4,0,0.8-0.1,1-0.3c0.2-0.2,0.3-0.5,0.3-0.9c0-0.4-0.1-0.7-0.4-0.9c0,0-0.2-0.1-0.4-0.3
				c-0.2-0.1-0.5-0.2-0.8-0.4c-0.7-0.3-1.1-0.6-1.4-0.8c-0.5-0.4-0.7-1-0.7-1.7c0-0.7,0.3-1.2,0.8-1.7c0.5-0.4,1-0.6,1.7-0.6
				c1.4,0,2,0.7,2.4,1.3l0.3,0.5l-1.3,0.6l-0.2-0.4c-0.1-0.2-0.2-0.3-0.4-0.4c-0.4-0.2-1.1-0.3-1.5,0.1c-0.2,0.2-0.3,0.4-0.3,0.6
				c0,0.1,0,0.4,0.3,0.6c0.1,0,0.3,0.2,1,0.5c0.4,0.2,0.7,0.3,0.9,0.5c0.3,0.2,0.5,0.3,0.7,0.5C143.5,85.1,143.7,85.8,143.7,86.5z"
				/>
		</g>
		<g>
			<polygon class="st1" points="147.6,81.7 147.6,83.6 150.9,83.6 150.9,85 147.6,85 147.6,87.6 150.9,87.6 150.9,89 146.2,89 
				146.2,80.3 150.9,80.3 150.9,81.7 			"/>
		</g>
		<g>
			<path class="st1" d="M156.7,85c0.1,0,0.1,0,0.2,0c0.3-0.1,0.6-0.2,0.9-0.4c0.3-0.2,0.4-0.5,0.6-0.8c0.1-0.3,0.2-0.7,0.2-1.1
				c0-0.4-0.1-0.7-0.2-1c-0.1-0.3-0.3-0.6-0.6-0.8c-0.2-0.2-0.5-0.4-0.8-0.5c-0.3-0.1-0.6-0.1-1-0.1h-2.3V89h1.4v-3.9h0.1l2.5,3.9
				h1.7L156.7,85z M155,81.7h0.9c0.2,0,0.4,0,0.5,0.1c0.1,0,0.3,0.1,0.4,0.2c0.1,0.1,0.2,0.2,0.2,0.3h0c0,0.1,0.1,0.3,0.1,0.4
				c0,0.4-0.1,0.6-0.3,0.8c-0.2,0.2-0.5,0.3-0.8,0.3h-1V81.7z"/>
		</g>
		<g>
			<polygon class="st1" points="166.8,80.3 163.6,90.3 160.4,80.3 161.9,80.3 163.6,85.6 165.3,80.3 			"/>
		</g>
		<g>
			<rect x="169" y="80.3" class="st1" width="1.4" height="8.8"/>
		</g>
		<g>
			<path class="st1" d="M175.2,82.4c-0.6,0.6-0.9,1.3-0.9,2.2c0,0.9,0.3,1.6,0.9,2.2c0.6,0.6,1.3,0.9,2.2,0.9c0.6,0,1.1-0.1,1.5-0.3
				c0.2-0.1,0.6-0.3,1-0.6l0.8-0.6V88l-0.7,0.5c-0.5,0.4-1.1,0.6-1.9,0.6c-0.1,0-0.2,0-0.3,0c-0.1,0-0.2,0-0.3,0
				c-1.3,0-2.4-0.4-3.2-1.3c-0.8-0.8-1.3-1.9-1.3-3.2c0-1.3,0.4-2.4,1.2-3.2c0.8-0.8,1.9-1.3,3.2-1.3c0.7,0,1.4,0.1,2,0.3
				c0.4,0.1,0.7,0.4,1.1,0.6l0.2,0.1v1.8l-0.8-0.7c-0.3-0.2-0.6-0.4-0.9-0.5c-0.5-0.2-1-0.3-1.5-0.3
				C176.5,81.6,175.8,81.9,175.2,82.4z"/>
		</g>
		<g>
			<polygon class="st1" points="184.5,81.7 184.5,83.6 187.8,83.6 187.8,85 184.5,85 184.5,87.6 187.8,87.6 187.8,89 183,89 
				183,80.3 187.8,80.3 187.8,81.7 			"/>
		</g>
		<g>
			<path class="st1" d="M195.6,86.5c0,1.2-0.5,2-1.6,2.4h0c-0.3,0.1-0.7,0.2-1.2,0.2c-1.4,0-2.4-0.7-2.8-2l-0.1-0.4l1.4-0.5l0.1,0.5
				c0.2,0.7,0.6,1,1.4,1c0.4,0,0.8-0.1,1-0.3c0.2-0.2,0.3-0.5,0.3-0.9c0-0.4-0.1-0.7-0.4-0.9c0,0-0.2-0.1-0.4-0.3
				c-0.2-0.1-0.5-0.2-0.8-0.4c-0.7-0.3-1.1-0.6-1.4-0.8c-0.5-0.4-0.7-1-0.7-1.7c0-0.7,0.3-1.2,0.8-1.7c0.5-0.4,1-0.6,1.7-0.6
				c1.4,0,2.1,0.7,2.4,1.3l0.3,0.5l-1.3,0.6l-0.2-0.4c-0.1-0.2-0.2-0.3-0.4-0.4c-0.4-0.2-1.1-0.3-1.5,0.1c-0.2,0.2-0.3,0.4-0.3,0.6
				c0,0.1,0,0.4,0.3,0.6c0.1,0,0.3,0.2,1,0.5c0.4,0.2,0.7,0.3,0.9,0.5c0.3,0.2,0.5,0.3,0.7,0.5C195.3,85.1,195.6,85.8,195.6,86.5z"
				/>
		</g>
	</g>
</g>
<rect x="-74.1" y="32.4" class="st2" width="21.5" height="20"/>
<rect x="-74.1" y="55.4" class="st0" width="21.5" height="20"/>
<rect x="-74.1" y="78.4" class="st1" width="21.5" height="20.1"/>
</svg>
