<?xml version="1.0" standalone="no"?><!DOCTYPE svg PUBLIC "-//W3C//DTD SVG 1.1//EN" "http://www.w3.org/Graphics/SVG/1.1/DTD/svg11.dtd"><svg width="100%" height="100%" viewBox="0 0 500 150" version="1.1" xmlns="http://www.w3.org/2000/svg" xmlns:xlink="http://www.w3.org/1999/xlink" xml:space="preserve" style="fill-rule:evenodd;clip-rule:evenodd;stroke-linejoin:round;stroke-miterlimit:1.41421;"><g id="EasyTithe"><g><path d="M34.126,83.244c2.3,5.2 9.6,13.2 20.1,13.2c8.2,0 15.3,-4.3 21.4,-9.4l0,7.9c-5,5 -14,8 -21,8c-17.5,0.1 -29.3,-13.1 -29.3,-30.3c0,-17.2 12.6,-29 29.6,-29c10.4,0 19,6.7 22.3,13.2l-43.1,26.4ZM66.926,55.144c-2.6,-2.8 -6.9,-5 -12.1,-5c-13.3,0 -23,9.8 -23,22.6c0,1.5 0.1,3.2 0.5,4.6l34.6,-22.2Z" style="fill:#808184;fill-rule:nonzero;"/><path d="M88.926,47.044c5.2,-2.1 10.8,-3.4 16.5,-3.4c8.8,0 17.7,4.6 17.7,14.3l0,43.7l-6.5,1.4l0,-7.1l-0.2,0c-2.3,4.2 -7.2,7.1 -13.9,7.1c-11.6,0 -21.6,-7.4 -21.6,-19.7c0,-12.5 8.2,-21.4 20.8,-21.4c5.6,0 11.1,3.2 14.9,6.5l0,-9.5c0,-4.7 -5.8,-8.7 -13.3,-8.7c-5.4,0 -11.5,2.8 -16.5,4.5l2.1,-7.7ZM102.926,96.444c8,0 13.7,-6 13.7,-14c0,-8.4 -5.8,-14.1 -13.9,-14.1c-8.7,0 -15.2,5.9 -15.2,14.9c0,8.4 7.9,13.2 15.4,13.2Z" style="fill:#808184;fill-rule:nonzero;"/><path d="M136.126,90.244c4.3,4.1 8.1,6.2 14.2,6.2c6.7,0 12.2,-3.5 12.2,-10.5c0,-14.2 -29.9,-6 -29.9,-25.8c0,-10.4 9,-16.5 18.7,-16.5c6.9,0 11.5,2.8 16.9,6.7l-3.7,5.2c-4,-2.9 -8.4,-5.3 -13.5,-5.3c-6.4,0 -11.8,3.2 -11.8,9.6c0,14.2 29.9,4.9 29.9,25.8c0,11.8 -9.1,17.4 -20.2,17.4c-7,0 -13.3,-3.4 -17.7,-8.6l4.9,-4.2Z" style="fill:#808184;fill-rule:nonzero;"/><path d="M170.426,45.044l6.4,-1.4l22.7,41.3l19.9,-41.3l6.5,1.4l-37.8,77.4l-6.3,-1.4l14,-29.2l-25.4,-46.8Z" style="fill:#808184;fill-rule:nonzero;"/></g><g><path d="M253.426,101.644l-7,0.9l0,-71.3l-21.4,0l1.6,-7l47.3,0l0,7l-20.4,0l0,70.4l-0.1,0Z" style="fill:#3598cb;fill-rule:nonzero;"/><path d="M289.426,25.844l-5.2,5.9l-5.2,-5.9l5.2,-5.9l5.2,5.9ZM281.526,103.044l0,-58l6.5,-1.4l0,58l-6.5,1.4Z" style="fill:#3598cb;fill-rule:nonzero;"/><path d="M306.926,31.144l6.5,-3.6l0,17.5l15.3,0l0,6.5l-15.3,0l0,35c0,6.9 2.9,9.5 10.2,9.5c1.8,0 3.5,0 5.3,-0.2l0,6.1c-1.8,0.3 -3.8,0.7 -5.9,0.7c-10.4,0 -16.1,-6 -16.1,-16.1l0,-35l-7.6,0l1.6,-6.5l6,0l0,-13.9Z" style="fill:#3598cb;fill-rule:nonzero;"/><path d="M337.726,102.544l0,-81.2l6.6,-1.4l0,31.9l0.2,0c3,-5.1 9.5,-8.2 16.4,-8.2c10.9,0 21.1,4.3 21.1,20l0,38l-6.5,0.9l0,-40.4c0,-8.2 -5.3,-12.6 -14.3,-12.6c-6.2,0 -16.8,4.5 -16.8,15.5l0,36.7l-6.7,0.8Z" style="fill:#3598cb;fill-rule:nonzero;"/><path d="M400.926,83.244c2.3,5.2 9.6,13.2 20.1,13.2c8.2,0 15.3,-4.3 21.4,-9.4l0,7.9c-5,5 -14,8 -21,8c-17.5,0 -29.3,-13.2 -29.3,-30.4c0,-17.2 12.6,-29 29.6,-29c10.4,0 19,6.7 22.3,13.2l-43.1,26.5ZM433.726,55.144c-2.6,-2.8 -6.9,-5 -12.1,-5c-13.3,0 -23,9.8 -23,22.6c0,1.5 0.1,3.2 0.5,4.6l34.6,-22.2Z" style="fill:#3598cb;fill-rule:nonzero;"/></g><g><path d="M457.126,56.844l-1.2,0.2l0,-11.9l-3.6,0l0.3,-1.2l7.9,0l0,1.2l-3.4,0l0,11.7Z" style="fill:#808184;fill-rule:nonzero;"/><path d="M472.726,43.644l2.6,13.2l-1.2,0.2l-1.8,-9.6l-3.9,9.7l-4.1,-9.7l-1.8,9.6l-1.2,-0.2l2.6,-13.2l4.4,10.5l4.4,-10.5Z" style="fill:#808184;fill-rule:nonzero;"/></g></g></svg>