<?xml version="1.0" encoding="utf-8"?>
<!-- Generator: Adobe Illustrator 19.2.1, SVG Export Plug-In . SVG Version: 6.00 Build 0)  -->
<svg version="1.1" id="Layer_1" xmlns="http://www.w3.org/2000/svg" xmlns:xlink="http://www.w3.org/1999/xlink" x="0px" y="0px"
	 viewBox="0 0 301 90" style="enable-background:new 0 0 301 90;" xml:space="preserve">
<style type="text/css">
	.st0{fill:#58595B;}
	.st1{fill:url(#SVGID_1_);}
	.st2{fill:url(#SVGID_2_);}
	.st3{fill:url(#SVGID_3_);}
	.st4{fill:url(#SVGID_4_);}
	.st5{fill:#1B344D;}
</style>
<g>
	<g>
		<path class="st0" d="M76.3,61.4V29.9h18.4V33h-15v10.9h13.5V47H79.7v11.3h15v3.1H76.3z"/>
		<path class="st0" d="M105.9,52.5v-2.9h10.3v2.9H105.9z"/>
		<path class="st0" d="M131.9,58.3h17.6v3.1h-22.8l-0.2-0.5L144.3,33h-16.7v-3.1h21.9l0.2,0.5L131.9,58.3z"/>
		<path class="st0" d="M162.8,61.4V29.9h18.4V33h-15v10.9h13.5V47h-13.5v11.3h15v3.1H162.8z"/>
		<path class="st0" d="M212.7,61.4L198.5,46v15.4h-3.4V29.9h3.4v14.6l13.7-14.6h4.3l-14.6,15.3l15.3,16.2H212.7z"/>
		<path class="st0" d="M229.7,61.4V29.9h3.4v31.5H229.7z"/>
		<path class="st0" d="M248.8,61.4V29.9h18.4V33h-15v10.9h13.5V47h-13.5v11.3h15v3.1H248.8z"/>
		<path class="st0" d="M281.1,61.4V29.9h3.4v28.4h15v3.1H281.1z"/>
	</g>
</g>
<g>
	<radialGradient id="SVGID_1_" cx="17.8379" cy="34.6377" r="8.9169" gradientUnits="userSpaceOnUse">
		<stop  offset="0" style="stop-color:#B4D569"/>
		<stop  offset="0.5828" style="stop-color:#9CCC58"/>
		<stop  offset="1" style="stop-color:#6AB652"/>
	</radialGradient>
	<path class="st1" d="M8.9,25.7c0,0,2.7,18.4,10.7,17.8c1.4,0.1,2.8-0.6,4.1-1.6c-4.5-4.6-10.1-11.6-10.1-11.6s7,5.5,11.6,10.1
		c1-1.3,1.6-2.7,1.6-4.1C27.4,28.4,8.9,25.7,8.9,25.7z"/>
	<radialGradient id="SVGID_2_" cx="39.9108" cy="56.711" r="8.9169" gradientUnits="userSpaceOnUse">
		<stop  offset="0" style="stop-color:#B4D569"/>
		<stop  offset="0.5828" style="stop-color:#9CCC58"/>
		<stop  offset="1" style="stop-color:#6AB652"/>
	</radialGradient>
	<path class="st2" d="M48.8,65.6c0,0-18.4-2.7-17.8-10.7c-0.1-1.4,0.6-2.8,1.6-4.1c4.6,4.5,11.6,10.1,11.6,10.1S38.6,54,34,49.4
		c1.3-1,2.7-1.6,4.1-1.6C46.2,47.2,48.8,65.6,48.8,65.6z"/>
	<radialGradient id="SVGID_3_" cx="39.9108" cy="34.6377" r="8.9169" gradientUnits="userSpaceOnUse">
		<stop  offset="0" style="stop-color:#B4D569"/>
		<stop  offset="0.5828" style="stop-color:#9CCC58"/>
		<stop  offset="1" style="stop-color:#6AB652"/>
	</radialGradient>
	<path class="st3" d="M48.8,25.7c0,0-18.4,2.7-17.8,10.7c-0.1,1.4,0.6,2.8,1.6,4.1c4.6-4.5,11.6-10.1,11.6-10.1S38.6,37.4,34,42
		c1.3,1,2.7,1.6,4.1,1.6C46.2,44.2,48.8,25.7,48.8,25.7z"/>
	<radialGradient id="SVGID_4_" cx="17.8379" cy="56.7111" r="8.9169" gradientUnits="userSpaceOnUse">
		<stop  offset="0" style="stop-color:#B4D569"/>
		<stop  offset="0.5828" style="stop-color:#9CCC58"/>
		<stop  offset="1" style="stop-color:#6AB652"/>
	</radialGradient>
	<path class="st4" d="M8.9,65.6c0,0,2.7-18.4,10.7-17.8c1.4-0.1,2.8,0.6,4.1,1.6C19.2,54,13.6,60.9,13.6,60.9s7-5.5,11.6-10.1
		c1,1.3,1.6,2.7,1.6,4.1C27.4,63,8.9,65.6,8.9,65.6z"/>
	<path class="st5" d="M1.8,45.7c0,0,8.9,6.7,12.1,3c0.7-0.7,1.1-1.8,1.1-3c0-1.2-0.3-2.3-1.1-3C10.8,39,1.8,45.7,1.8,45.7z"/>
	<path class="st5" d="M55.9,45.7c0,0-8.9,6.7-12.1,3c-0.7-0.7-1.1-1.8-1.1-3c0-1.2,0.3-2.3,1.1-3C47,39,55.9,45.7,55.9,45.7z"/>
	<path class="st5" d="M28.9,18.6c0,0-6.7,8.9-3,12.1c0.7,0.7,1.8,1.1,3,1.1c1.2,0,2.3-0.3,3-1.1C35.6,27.5,28.9,18.6,28.9,18.6z"/>
	<path class="st5" d="M28.9,72.7c0,0-6.7-8.9-3-12.1c0.7-0.7,1.8-1.1,3-1.1c1.2,0,2.3,0.3,3,1.1C35.6,63.8,28.9,72.7,28.9,72.7z"/>
</g>
</svg>
