<svg xmlns="http://www.w3.org/2000/svg" width="300" height="90" viewBox="0 0 300 90"><g fill="#314260"><path d="M298.223 57.4l-1.195 3.047-1.196-3.048h-.836v3.764h.538v-2.988h.06l1.195 2.988h.417l1.255-2.988v2.988H299V57.4M291.41 57.877h1.195v3.287h.538v-3.287h1.195V57.4h-2.928M288.243 57.817c-1.853.658-3.646.956-5.26.956-2.63 0-4.72-.836-6.035-2.33-1.315-1.554-1.853-3.825-1.494-6.574h17.69l.12-.48c.238-.776.417-1.493.536-2.15.658-3.885 0-7.29-1.912-9.503-1.613-1.912-4.004-2.928-7.052-2.928-8.127 0-12.25 7.29-13.326 13.505-.718 4.243.06 8.008 2.21 10.518 1.853 2.21 4.662 3.406 8.068 3.406 2.57 0 5.08-.48 7.29-1.435l.48-.18-.658-2.987-.657.18zm-3.885-19.542c1.733 0 3.407.538 4.363 1.674 1.196 1.433 1.674 3.764 1.256 6.453H276.05c.838-4.064 3.647-8.128 8.308-8.128zm-41.892-6.036c-2.032-2.39-5.14-3.646-9.084-3.646-8.904 0-15.538 6.275-17.39 16.434-.957 5.2-.12 9.622 2.27 12.49 2.032 2.45 5.2 3.706 9.084 3.706 8.725 0 15.538-6.395 17.33-16.315.957-5.38.24-9.742-2.21-12.67zm-1.913 12.788c-1.135 6.215-5.02 12.85-12.43 12.85-2.69 0-4.78-.838-6.215-2.57-2.57-3.108-2.15-7.83-1.733-10.4 1.494-8.127 6.155-12.967 12.49-12.967 2.69 0 4.78.837 6.215 2.57 1.912 2.27 2.51 5.917 1.673 10.518zm27.43-7.71c-1.314-1.732-3.824-2.57-7.41-2.57-3.645 0-7.59 1.256-11.354 2.63-.06.658-.12 2.45-.3 3.407l-3.825 20.38h3.944l3.764-19.96c.06-.48.12-1.316.12-1.316v-.24l.24-.06c2.33-.956 4.9-1.554 6.93-1.554 1.973 0 3.467.598 4.364 1.733.896 1.135.777 2.868.418 4.9l-3.107 16.554h3.943L269 43.594c.478-2.69.12-4.84-1.016-6.275zM37.366 57.817c-1.852.658-3.645.956-5.26.956-2.628 0-4.72-.836-6.035-2.33-1.313-1.554-1.85-3.825-1.493-6.574h17.69l.12-.48c.238-.776.417-1.493.537-2.15.657-3.885 0-7.29-1.912-9.503-1.614-1.912-4.004-2.928-7.052-2.928-8.128 0-12.25 7.29-13.327 13.505-.717 4.243.06 8.008 2.21 10.518 1.854 2.21 4.663 3.406 8.07 3.406 2.57 0 5.08-.48 7.29-1.435l.478-.18-.656-2.987-.658.18zm-3.884-19.542c1.733 0 3.406.538 4.362 1.674 1.195 1.433 1.674 3.764 1.255 6.453H25.174c.837-4.064 3.645-8.128 8.307-8.128zM6.11 28.654L.196 61.224H4.2l2.808-15.3h11.235l.597-3.406H7.605L9.518 32.12h13.446l.597-3.466M44 61.164l4.84-26.474h3.765l-4.303 23.187h11.056l-.597 3.287H44M62.227 61.164l4.84-26.474h3.765L66.59 57.877h11.055l-.598 3.287h-14.82M79.916 48.614c1.494-8.128 6.932-13.745 14.582-13.745s11.055 5.616 9.56 13.744C102.566 56.682 97.07 62.3 89.54 62.3c-7.53-.06-11.056-5.678-9.622-13.686zm20.2 0c1.075-5.916-.658-10.458-6.216-10.458-5.498 0-8.964 4.482-10.04 10.458-.956 5.08.3 10.34 6.275 10.34 5.976 0 9.084-5.26 9.98-10.34zm43.087-13.865l-9.92 19.302c-.42.717-.897 1.673-.897 1.673l-.06-.418-.12-.956-3.465-19.6h-4.183l-9.92 19.302c-.418.717-.896 1.673-.896 1.673l-.06-.418-.12-.956-3.465-19.66h-4.064l4.245 23.127c.24 1.375 1.254 3.347 3.824 3.347l11.593-20.917 3.227 17.57c.24 1.375 1.255 3.347 3.825 3.347l14.64-26.474h-4.182v.06zM186.35 61.164l4.84-26.355h3.766l-4.84 26.354M144.518 57.757c1.972.718 3.884 1.136 5.976 1.136 2.57 0 5.617-1.076 6.155-4.064 1.075-5.798-11.535-4.543-9.98-13.03.895-4.96 5.676-7.05 10.1-7.05 2.21 0 4.242.477 6.214 1.254l-1.674 3.048c-1.434-.538-3.286-1.016-5.08-1.016-2.45 0-4.96.897-5.497 3.646-.897 5.02 11.653 4.183 10.1 12.79-.957 5.257-6.156 7.648-10.877 7.648-2.39 0-4.78-.418-6.873-1.255l1.435-3.108zM178.402 61.164l2.21-12.132h-12.847l-2.212 12.132h-3.705l4.78-26.415h3.706l-1.972 10.936h12.85l1.97-10.937h3.706l-4.78 26.414M194.358 61.164l4.662-25.757c2.21-.478 4.422-.658 6.573-.658 5.08 0 8.905 2.39 7.89 7.888-.958 5.378-5.68 8.187-10.878 8.187-.956 0-1.793-.06-2.63-.24l-1.97 10.58h-3.647zm6.215-13.805c.717.118 1.674.238 2.57.238 3.287 0 5.916-1.614 6.514-5.08.598-3.406-1.375-4.542-4.66-4.542-.898 0-1.854.12-2.75.24l-1.674 9.143z"/></g></svg>