<?xml version="1.0" encoding="utf-8"?>
<!-- Generator: Adobe Illustrator 19.2.1, SVG Export Plug-In . SVG Version: 6.00 Build 0)  -->
<svg version="1.1" id="Layer_1" xmlns="http://www.w3.org/2000/svg" xmlns:xlink="http://www.w3.org/1999/xlink" x="0px" y="0px"
	 viewBox="0 0 301 90" style="enable-background:new 0 0 301 90;" xml:space="preserve">
<style type="text/css">
	.st0{fill:#12A1F9;}
</style>
<g>
	<path class="st0" d="M15.1,36.9h6L19.9,42h-5.7L9.7,61.2H1.8L6.3,42H2.9l1.2-5.1h3.3l0.2-0.6c0.7-2.9,1.9-5.2,3.6-6.7
		c1.8-1.5,4.4-2.3,7.8-2.3c1.3,0,2.4,0,3.3,0.1c0.9,0.1,1.7,0.2,2.4,0.3l-1.3,5.5h-0.6c-0.3-0.1-0.8-0.2-1.4-0.4
		c-0.6-0.1-1.2-0.2-1.7-0.2c-1.4,0-2.5,0.3-3.1,0.8c-0.7,0.6-1.2,1.6-1.6,3.2L15.1,36.9z"/>
	<path class="st0" d="M31.9,58.7c-0.5,0.3-1.1,0.7-1.8,1.2c-0.7,0.5-1.3,0.8-1.9,1.1c-0.8,0.3-1.6,0.6-2.3,0.8
		c-0.7,0.2-1.7,0.3-3,0.3c-2,0-3.7-0.6-5-1.7c-1.3-1.1-1.9-2.6-1.9-4.4c0-1.9,0.5-3.6,1.4-4.9c0.9-1.3,2.3-2.4,4-3.2
		c1.7-0.8,3.7-1.3,6-1.6c2.3-0.3,4.8-0.6,7.5-0.7c0-0.1,0-0.2,0.1-0.4c0-0.2,0.1-0.4,0.1-0.7c0-1-0.5-1.7-1.4-2.2
		c-1-0.4-2.4-0.6-4.3-0.6c-1.3,0-2.7,0.2-4.3,0.7c-1.6,0.4-2.7,0.8-3.5,1.1H21l1.1-5.8c0.9-0.2,2.3-0.5,4.2-0.8
		c1.9-0.3,3.8-0.4,5.7-0.4c3.8,0,6.6,0.5,8.4,1.5c1.8,1,2.7,2.5,2.7,4.6c0,0.3,0,0.7-0.1,1.1c-0.1,0.5-0.1,0.9-0.2,1.2l-3.8,16.6
		h-7.8L31.9,58.7z M34,49.8c-1.4,0.1-2.7,0.3-3.9,0.4c-1.2,0.2-2.3,0.4-3.1,0.7c-0.9,0.3-1.6,0.8-2,1.3c-0.5,0.6-0.7,1.3-0.7,2.3
		c0,0.8,0.3,1.4,0.9,1.8c0.6,0.3,1.5,0.5,2.7,0.5c0.8,0,1.6-0.2,2.5-0.5c0.9-0.4,1.7-0.8,2.5-1.4L34,49.8z"/>
	<path class="st0" d="M56.5,36.9l-5.6,24.3H43l5.6-24.3H56.5z M58.9,27.5l-1.4,5.9h-8.3l1.4-5.9H58.9z"/>
	<path class="st0" d="M64.4,61.7c-2.7,0-4.6-0.4-5.8-1.3c-1.2-0.9-1.7-2.2-1.7-4c0-0.5,0-0.9,0.1-1.3c0.1-0.4,0.2-0.9,0.3-1.5L60,42
		h-3.2l1.2-5.1h3.2l1.6-7h7.8l-1.6,7h7.3L75.1,42h-7.3l-2,8.8c-0.1,0.6-0.3,1.2-0.4,1.8c-0.1,0.6-0.2,1.1-0.2,1.6
		c0,0.9,0.2,1.5,0.7,1.8c0.5,0.3,1.2,0.5,2.2,0.5c0.4,0,0.9-0.1,1.6-0.2c0.7-0.2,1.2-0.3,1.6-0.5h0.6L70.7,61
		c-0.9,0.2-1.8,0.4-2.8,0.5C67,61.7,65.8,61.7,64.4,61.7z"/>
	<path class="st0" d="M101.2,42.4c0,0.3,0,0.8-0.1,1.3c-0.1,0.5-0.2,1.1-0.3,1.6l-3.7,15.8h-7.9l2.8-12.1c0.2-0.9,0.4-1.7,0.5-2.3
		c0.1-0.6,0.2-1.2,0.2-1.7c0-1-0.2-1.7-0.7-2.1c-0.5-0.4-1.4-0.6-2.6-0.6c-0.6,0-1.3,0.1-2.1,0.4c-0.8,0.3-1.7,0.7-2.7,1.2l-4,17.3
		h-7.9l7.8-33.7h7.9l-2.8,12.1c1.6-1.1,3.1-1.9,4.4-2.5c1.3-0.6,2.8-0.9,4.4-0.9c2.2,0,3.9,0.5,5.1,1.6
		C100.6,38.9,101.2,40.4,101.2,42.4z"/>
	<path class="st0" d="M138,29l-7.4,32.3h-8.4l3.3-14.3h-12.2L110,61.2h-8.4L109,29h8.4l-2.7,11.9h12.2l2.7-11.9H138z"/>
	<path class="st0" d="M148.9,36.9l-5.6,24.3h-7.9l5.6-24.3H148.9z M151.2,27.5l-1.4,5.9h-8.3l1.4-5.9H151.2z"/>
	<path class="st0" d="M176.8,36.9l-4.9,21.5c-0.5,2.3-1.3,4.2-2.3,5.8c-1,1.5-2.2,2.8-3.6,3.7c-1.4,0.9-3,1.6-4.7,2
		c-1.7,0.4-3.6,0.6-5.7,0.6c-1.7,0-3.4-0.1-5-0.3c-1.6-0.2-3-0.5-4.1-0.7l1.2-6h1c1.2,0.5,2.4,0.8,3.6,1.1c1.2,0.3,2.3,0.4,3.3,0.4
		c1.4,0,2.6-0.1,3.6-0.4c1-0.3,1.8-0.6,2.4-1.1c0.6-0.5,1.1-1.1,1.5-1.9c0.4-0.7,0.7-1.6,0.9-2.7l0.1-0.5c-1.1,0.8-2.2,1.4-3.4,1.8
		c-1.1,0.4-2.4,0.7-3.8,0.7c-2.7,0-4.9-0.7-6.4-2.1c-1.5-1.4-2.3-3.4-2.3-6.2c0-4.8,1.4-8.7,4.1-11.8c2.7-3.1,6-4.6,9.8-4.6
		c1.4,0,2.6,0.2,3.8,0.5c1.1,0.3,2,0.8,2.7,1.3l0.5-1.1H176.8z M167.7,42.5c-0.4-0.2-1-0.4-1.7-0.5c-0.7-0.2-1.3-0.2-1.8-0.2
		c-2.3,0-4.2,0.9-5.6,2.6c-1.4,1.7-2.1,4-2.1,6.7c0,1.2,0.3,2.2,0.9,2.9c0.6,0.7,1.7,1,3.3,1c0.8,0,1.5-0.1,2.3-0.4
		c0.8-0.3,1.5-0.6,2.2-1.1L167.7,42.5z"/>
	<path class="st0" d="M203.9,42.4c0,0.3,0,0.8-0.1,1.3c-0.1,0.5-0.2,1.1-0.3,1.6l-3.7,15.8H192l2.8-12.1c0.2-0.9,0.4-1.7,0.5-2.3
		c0.1-0.6,0.2-1.2,0.2-1.7c0-1-0.2-1.7-0.7-2.1c-0.5-0.4-1.4-0.6-2.6-0.6c-0.6,0-1.3,0.1-2.1,0.4s-1.7,0.7-2.7,1.2l-4,17.3h-7.9
		l7.8-33.7h7.9l-2.8,12.1c1.6-1.1,3.1-1.9,4.4-2.5c1.3-0.6,2.8-0.9,4.4-0.9c2.2,0,3.9,0.5,5.1,1.6C203.3,38.9,203.9,40.4,203.9,42.4
		z"/>
	<path class="st0" d="M247.6,36.9l-12.7,24.3h-8.3L225,44.8l-8.2,16.4h-8.4l-2.3-24.3h8l0.7,16.8l8.6-16.8h6.9l1.5,16.8l7.5-16.8
		H247.6z"/>
	<path class="st0" d="M258.6,58.7c-0.5,0.3-1.1,0.7-1.8,1.2c-0.7,0.5-1.3,0.8-1.9,1.1c-0.8,0.3-1.6,0.6-2.3,0.8
		c-0.7,0.2-1.7,0.3-3,0.3c-2,0-3.7-0.6-5-1.7c-1.3-1.1-1.9-2.6-1.9-4.4c0-1.9,0.5-3.6,1.4-4.9c0.9-1.3,2.3-2.4,4-3.2
		c1.7-0.8,3.7-1.3,6-1.6c2.3-0.3,4.8-0.6,7.5-0.7c0-0.1,0-0.2,0.1-0.4c0-0.2,0.1-0.4,0.1-0.7c0-1-0.5-1.7-1.4-2.2
		c-1-0.4-2.4-0.6-4.3-0.6c-1.3,0-2.7,0.2-4.3,0.7c-1.6,0.4-2.7,0.8-3.5,1.1h-0.7l1.1-5.8c0.9-0.2,2.3-0.5,4.2-0.8
		c1.9-0.3,3.8-0.4,5.7-0.4c3.8,0,6.6,0.5,8.4,1.5c1.8,1,2.7,2.5,2.7,4.6c0,0.3,0,0.7-0.1,1.1c-0.1,0.5-0.1,0.9-0.2,1.2l-3.8,16.6
		H258L258.6,58.7z M260.7,49.8c-1.4,0.1-2.7,0.3-3.9,0.4c-1.2,0.2-2.3,0.4-3.1,0.7c-0.9,0.3-1.6,0.8-2,1.3c-0.5,0.6-0.7,1.3-0.7,2.3
		c0,0.8,0.3,1.4,0.9,1.8c0.6,0.3,1.5,0.5,2.7,0.5c0.8,0,1.6-0.2,2.5-0.5c0.9-0.4,1.7-0.8,2.5-1.4L260.7,49.8z"/>
	<path class="st0" d="M277.9,70.2h-8.6l6.2-9.4l-4-23.9h8l2.1,15.9l9.3-15.9h8.2L277.9,70.2z"/>
</g>
</svg>
