<?xml version="1.0" encoding="utf-8"?>
<!-- Generator: Adobe Illustrator 19.2.1, SVG Export Plug-In . SVG Version: 6.00 Build 0)  -->
<svg version="1.1" id="Layer_1" xmlns="http://www.w3.org/2000/svg" xmlns:xlink="http://www.w3.org/1999/xlink" x="0px" y="0px"
	 viewBox="0 0 301 90" style="enable-background:new 0 0 301 90;" xml:space="preserve">
<style type="text/css">
	.st0{display:none;}
	.st1{display:inline;}
	.st2{fill:#45B979;}
	.st3{font-family:'ATSackersHeavyGothic';}
	.st4{font-size:48.2304px;}
	.st5{letter-spacing:2;}
	.st6{font-family:'ATSackersGothic-Light';}
	.st7{fill:#526C73;}
</style>
<g class="st0">
	<g class="st1">
		<g>
			<text transform="matrix(1 0 0 1 -71.6587 41.6597)"><tspan x="0" y="0" class="st2 st3 st4 st5">GIVIN</tspan><tspan x="124.7" y="0" class="st2 st3 st4">G</tspan></text>
		</g>
	</g>
</g>
<g class="st0">
	<g class="st1">
		<g>
			<text transform="matrix(1 0 0 1 154.3809 41.6597)"><tspan x="0" y="0" class="st2 st6 st4 st5">KIOS</tspan><tspan x="104.1" y="0" class="st2 st6 st4">K</tspan></text>
		</g>
	</g>
</g>
<g>
	<path class="st2" d="M16.1,43.8h12.3V51c0,1.2-0.3,2.3-0.9,3.3c-0.6,1-1.5,1.8-2.6,2.5c-1.1,0.7-2.4,1.2-3.8,1.6
		c-1.5,0.4-3,0.6-4.7,0.6c-1.8,0-3.6-0.3-5.3-0.9c-1.8-0.6-3.3-1.5-4.7-2.7C5,54.2,3.9,52.8,3,51c-0.9-1.7-1.3-3.8-1.3-6
		c0-1.9,0.4-3.7,1.1-5.4c0.7-1.7,1.7-3.2,3-4.4c1.3-1.3,2.8-2.3,4.6-3c1.8-0.7,3.8-1.1,5.9-1.1c1.6,0,3,0.2,4.3,0.6
		c1.2,0.4,2.3,0.8,3.2,1.3c0.9,0.5,1.7,1,2.3,1.6c0.6,0.5,1.1,1,1.5,1.4l-2.7,2.8c-0.3-0.3-0.7-0.7-1.2-1.1c-0.4-0.4-1-0.9-1.6-1.2
		c-0.6-0.4-1.4-0.7-2.3-1c-0.9-0.3-1.9-0.4-3.2-0.4c-1.8,0-3.4,0.3-4.8,0.8c-1.4,0.5-2.6,1.3-3.5,2.2c-1,0.9-1.7,2-2.2,3.3
		c-0.5,1.2-0.8,2.6-0.8,4c0,1.3,0.3,2.6,0.8,3.8c0.5,1.2,1.2,2.3,2.2,3.2c0.9,0.9,2.1,1.6,3.4,2.2c1.4,0.5,2.9,0.8,4.6,0.8
		c1.2,0,2.2-0.1,3.2-0.4c1-0.2,1.8-0.6,2.5-1c0.7-0.4,1.3-0.9,1.6-1.4c0.4-0.5,0.6-1.1,0.6-1.7v-3h-8.4V43.8z"/>
	<path class="st2" d="M39.6,31.6v26.8h-3.9V31.6H39.6z"/>
	<path class="st2" d="M51.4,31.6l9.8,22.4l9.9-22.4h4.3L63.5,58.4h-4.6L47.2,31.6H51.4z"/>
	<path class="st2" d="M86.8,31.6v26.8H83V31.6H86.8z"/>
	<path class="st2" d="M98.8,31.6L114.7,52h0.1V31.6h3.9v26.8h-3.9L98.9,38.1h-0.1v20.4h-3.9V31.6H98.8z"/>
	<path class="st2" d="M140.4,43.8h12.3V51c0,1.2-0.3,2.3-0.9,3.3c-0.6,1-1.5,1.8-2.6,2.5c-1.1,0.7-2.4,1.2-3.8,1.6
		c-1.5,0.4-3,0.6-4.7,0.6c-1.8,0-3.6-0.3-5.3-0.9c-1.8-0.6-3.3-1.5-4.7-2.7c-1.4-1.2-2.5-2.6-3.3-4.4c-0.9-1.7-1.3-3.8-1.3-6
		c0-1.9,0.4-3.7,1.1-5.4c0.7-1.7,1.7-3.2,3-4.4c1.3-1.3,2.8-2.3,4.6-3c1.8-0.7,3.8-1.1,5.9-1.1c1.6,0,3,0.2,4.3,0.6
		c1.2,0.4,2.3,0.8,3.2,1.3c0.9,0.5,1.7,1,2.3,1.6c0.6,0.5,1.1,1,1.5,1.4l-2.7,2.8c-0.3-0.3-0.7-0.7-1.2-1.1c-0.4-0.4-1-0.9-1.6-1.2
		c-0.6-0.4-1.4-0.7-2.3-1c-0.9-0.3-1.9-0.4-3.2-0.4c-1.8,0-3.4,0.3-4.8,0.8c-1.4,0.5-2.6,1.3-3.5,2.2c-1,0.9-1.7,2-2.2,3.3
		c-0.5,1.2-0.8,2.6-0.8,4c0,1.3,0.3,2.6,0.8,3.8c0.5,1.2,1.2,2.3,2.2,3.2c0.9,0.9,2.1,1.6,3.4,2.2c1.4,0.5,2.9,0.8,4.6,0.8
		c1.2,0,2.2-0.1,3.2-0.4c1-0.2,1.8-0.6,2.5-1c0.7-0.4,1.3-0.9,1.6-1.4c0.4-0.5,0.6-1.1,0.6-1.7v-3h-8.4V43.8z"/>
	<g>
		<path class="st2" d="M185.1,58.4h-2.9L172,43.3l-8.1,8.1v7h-2.4V31.6h2.4V48l16.4-16.4h3.4l-9.8,9.9L185.1,58.4z"/>
		<path class="st2" d="M196.5,58.4H194V31.6h2.4V58.4z"/>
		<path class="st2" d="M235.2,45c0,2-0.4,3.9-1.1,5.6c-0.7,1.7-1.7,3.2-3,4.4c-1.3,1.2-2.8,2.2-4.5,2.9c-1.8,0.7-3.7,1.1-5.7,1.1
			c-2.1,0-4-0.4-5.7-1.1c-1.8-0.7-3.3-1.7-4.5-2.9c-1.3-1.2-2.3-2.7-3-4.4c-0.7-1.7-1.1-3.6-1.1-5.6c0-2,0.4-3.9,1.1-5.6
			c0.7-1.7,1.7-3.2,3-4.4c1.3-1.2,2.8-2.2,4.5-2.9c1.8-0.7,3.7-1.1,5.7-1.1c2.1,0,4,0.4,5.7,1.1c1.8,0.7,3.3,1.7,4.6,2.9
			c1.3,1.2,2.3,2.7,3,4.4C234.8,41.1,235.2,43,235.2,45z M220.8,56.6c1.8,0,3.4-0.3,4.9-0.9c1.5-0.6,2.7-1.5,3.8-2.5
			c1-1,1.8-2.3,2.4-3.7c0.6-1.4,0.9-2.9,0.9-4.4c0-1.5-0.3-3-0.9-4.4c-0.6-1.4-1.4-2.6-2.4-3.7c-1-1-2.3-1.9-3.8-2.5
			c-1.5-0.6-3.1-0.9-4.9-0.9c-1.8,0-3.4,0.3-4.9,0.9c-1.5,0.6-2.7,1.5-3.8,2.5c-1,1-1.8,2.3-2.4,3.7c-0.6,1.4-0.9,2.9-0.9,4.4
			c0,1.5,0.3,3,0.9,4.4c0.6,1.4,1.4,2.6,2.4,3.7c1,1,2.3,1.9,3.8,2.5C217.4,56.2,219,56.6,220.8,56.6z"/>
		<path class="st2" d="M258.5,43.3c1.5,0,2.8,0.2,3.9,0.7c1.1,0.4,2.1,1,2.9,1.7c0.8,0.7,1.4,1.5,1.8,2.4c0.4,0.9,0.6,1.8,0.6,2.8
			c0,1-0.2,1.9-0.6,2.9c-0.4,1-1.1,1.9-2.1,2.6c-1,0.8-2.3,1.4-3.9,1.9c-1.6,0.5-3.6,0.7-6,0.7c-2,0-3.8-0.2-5.2-0.6
			c-1.5-0.4-2.7-0.9-3.7-1.5c-1-0.6-1.9-1.2-2.6-1.8c-0.7-0.6-1.3-1.2-1.7-1.6l1.7-1.8c0.5,0.4,1,0.8,1.6,1.4
			c0.6,0.5,1.3,1.1,2.2,1.6c0.9,0.5,2,0.9,3.2,1.3c1.3,0.4,2.8,0.6,4.6,0.6c1.4,0,2.7-0.1,3.9-0.3c1.3-0.2,2.3-0.6,3.3-1.1
			c0.9-0.5,1.7-1.1,2.2-1.8c0.5-0.7,0.8-1.6,0.8-2.6c0-0.6-0.1-1.2-0.4-1.8c-0.3-0.6-0.7-1.1-1.3-1.6c-0.6-0.5-1.3-0.9-2.2-1.2
			c-0.9-0.3-1.9-0.5-3.1-0.5l-6.1-0.1c-1,0-2-0.1-3-0.3c-1-0.2-1.9-0.6-2.8-1.1c-0.8-0.5-1.5-1.2-2-2c-0.5-0.9-0.8-1.9-0.8-3.3
			c0-0.9,0.2-1.8,0.6-2.7c0.4-0.9,1.1-1.8,2-2.5c0.9-0.8,2.1-1.4,3.6-1.9c1.5-0.5,3.2-0.8,5.3-0.8c1.6,0,3,0.2,4.2,0.5
			c1.2,0.3,2.3,0.7,3.2,1.1c0.9,0.4,1.6,0.8,2.2,1.3c0.6,0.4,1.1,0.8,1.4,1l-1.5,1.8c-0.6-0.4-1.2-0.8-1.9-1.1c-0.6-0.4-1.3-0.7-2-1
			c-0.7-0.3-1.6-0.6-2.4-0.8c-0.9-0.2-1.9-0.3-3-0.3c-1.7,0-3.1,0.2-4.3,0.6c-1.2,0.4-2.1,0.8-2.9,1.4c-0.7,0.5-1.3,1.1-1.6,1.8
			c-0.3,0.6-0.5,1.2-0.5,1.8c0,0.8,0.2,1.5,0.5,2c0.3,0.5,0.8,1,1.4,1.3c0.6,0.3,1.2,0.5,1.9,0.7c0.7,0.1,1.5,0.2,2.3,0.2
			L258.5,43.3z"/>
		<path class="st2" d="M299.4,58.4h-2.9l-10.1-15.1l-8.1,8.1v7h-2.4V31.6h2.4V48l16.4-16.4h3.4l-9.8,9.9L299.4,58.4z"/>
	</g>
	<path class="st7" d="M186.6,26.9c-0.6,0-1.2-0.3-1.6-0.9c-6.6-10.2-17.7-16.3-29.9-16.3c-12.1,0-23.3,6.1-29.9,16.3
		c-0.6,0.9-1.7,1.1-2.6,0.6c-0.9-0.6-1.1-1.7-0.6-2.6c7.3-11.3,19.6-18,33-18c13.4,0,25.7,6.7,33,18c0.6,0.9,0.3,2-0.6,2.6
		C187.3,26.8,187,26.9,186.6,26.9z"/>
	<path class="st7" d="M155.2,84c-13.4,0-25.7-6.7-33-18c-0.6-0.9-0.3-2,0.6-2.6c0.9-0.6,2-0.3,2.6,0.6c6.6,10.2,17.7,16.3,29.9,16.3
		c12.1,0,23.3-6.1,29.9-16.3c0.6-0.9,1.7-1.1,2.6-0.6c0.9,0.6,1.1,1.7,0.6,2.6C181,77.2,168.6,84,155.2,84z"/>
</g>
</svg>
