<?xml version="1.0" encoding="UTF-8" standalone="no"?><!DOCTYPE svg PUBLIC "-//W3C//DTD SVG 1.1//EN" "http://www.w3.org/Graphics/SVG/1.1/DTD/svg11.dtd"><svg width="100%" height="100%" viewBox="0 0 500 150" version="1.1" xmlns="http://www.w3.org/2000/svg" xmlns:xlink="http://www.w3.org/1999/xlink" xml:space="preserve" style="fill-rule:evenodd;clip-rule:evenodd;stroke-linejoin:round;stroke-miterlimit:1.41421;"><g id="The_Rocket_Company"><g><path d="M174.14,70.749l0,27.236l-6.721,0l0,-27.236c0,-8.843 -3.714,-12.911 -11.849,-12.911c-5.306,0 -10.081,1.415 -13.265,2.83l0,37.494l-6.72,0l0,-63.669l6.72,0l0,19.631c3.537,-1.415 8.313,-3.007 13.972,-3.007c11.496,0.177 17.863,7.252 17.863,19.632Z" style="fill:#414042;fill-rule:nonzero;"/><path d="M222.954,70.395l0,13.795c0,12.734 -12.911,14.503 -18.924,14.503c-6.014,0 -19.278,-1.769 -19.278,-14.856c0,-15.21 19.808,-15.034 24.053,-15.034c4.068,0 7.428,0.531 7.428,0.531c0,-8.666 -5.129,-11.496 -13.442,-11.496c-6.72,0 -11.672,1.592 -13.441,2.299l0,-6.367c3.36,-1.238 8.136,-2.476 13.795,-2.476c12.734,0 19.809,6.544 19.809,19.101Zm-6.721,4.952c0,0 -3.007,-0.53 -8.136,-0.53c-5.482,0 -16.625,0.707 -16.625,9.196c0,7.252 6.898,8.667 12.558,8.667c5.659,0 12.203,-1.415 12.203,-8.313c0,-7.251 0,-9.02 0,-9.02Z" style="fill:#414042;fill-rule:nonzero;"/><rect x="236.041" y="34.493" width="6.721" height="63.493" style="fill:#414042;fill-rule:nonzero;"/><path d="M297.766,74.994c0,19.631 -11.85,23.699 -21.577,23.699c-9.728,0 -21.577,-4.068 -21.577,-23.699c0,-19.632 11.672,-23.7 21.577,-23.7c9.904,0 21.577,4.068 21.577,23.7Zm-6.721,0c0,-12.381 -4.599,-17.686 -15.033,-17.686c-10.435,0 -14.857,5.305 -14.857,17.686c0,12.38 4.599,17.686 14.857,17.686c10.611,0 15.033,-5.306 15.033,-17.686Z" style="fill:#414042;fill-rule:nonzero;"/></g><g><path d="M349.586,75.701c0,15.033 -7.605,23.346 -21.4,23.346c-2.653,0 -5.129,-0.354 -7.605,-0.885l0,16.979l-11.143,0l0,-48.283c0,-7.428 5.129,-15.564 19.278,-15.564c6.367,0.177 20.87,2.476 20.87,24.407Zm-11.143,0.531c0,-10.435 -2.476,-15.387 -9.55,-15.387c-4.952,0 -8.312,1.061 -8.312,4.952l0,24.053c1.945,0.354 4.067,0.53 6.897,0.53c6.544,0 10.965,-3.006 10.965,-14.148Z" style="fill:#fdb913;fill-rule:nonzero;"/><path d="M397.515,70.926l0,12.38c0,7.428 -5.129,15.564 -19.278,15.564c-14.503,0 -19.808,-8.136 -19.808,-15.741c0,-3.36 1.415,-14.502 19.808,-14.502c2.83,0 5.66,0.353 8.136,0.707c0,-4.952 -2.653,-8.666 -9.728,-8.666c-5.482,0 -10.081,0.884 -13.441,2.299l0,-9.02c3.891,-1.592 8.489,-2.653 14.149,-2.653c12.911,0 20.162,6.898 20.162,19.632Zm-11.142,5.306c-1.946,-0.354 -4.068,-0.531 -6.721,-0.531c-7.428,0 -10.435,2.299 -10.435,6.013c0,4.775 2.83,7.428 8.666,7.428c6.19,0 8.313,-2.829 8.313,-7.074l0,-5.836l0.177,0Z" style="fill:#fdb913;fill-rule:nonzero;"/><path d="M447.743,52.002l-17.509,47.221c-5.483,15.034 -12.203,16.979 -16.979,16.979c-2.653,0 -4.952,-0.531 -7.074,-1.238l0,-9.197c1.592,0.708 3.36,1.061 5.306,1.061c4.068,0 7.251,-6.897 8.843,-11.142l-16.448,-43.684l11.673,0l10.257,32.011l10.082,-32.011l11.849,0Z" style="fill:#fdb913;fill-rule:nonzero;"/><path d="M487.183,85.428c0,7.605 -6.721,13.442 -17.155,13.442c-5.837,0 -10.612,-1.592 -14.503,-3.714l0,-10.081c3.36,2.122 7.782,4.067 12.911,4.067c7.074,0 7.605,-1.945 7.605,-4.421c0,-7.605 -21.931,-3.184 -21.931,-19.101c0,-9.727 7.959,-14.326 16.979,-14.326c4.775,0 9.02,1.238 12.557,3.361l0,8.312c-2.83,-1.238 -6.19,-2.299 -10.612,-2.299c-4.598,0 -7.959,0.884 -7.959,3.891c0.177,7.251 22.108,1.945 22.108,20.869Z" style="fill:#fdb913;fill-rule:nonzero;"/></g><path d="M64.663,62.613c-27.059,-3.714 -50.228,0.708 -51.466,10.081c-1.238,9.374 19.632,20.162 46.691,23.877c27.06,3.89 50.229,-0.708 51.467,-10.082c1.415,-9.373 -19.632,-19.985 -46.692,-23.876Zm-4.067,29.005c-18.924,-2.652 -33.427,-10.081 -32.543,-16.624c0.885,-6.544 16.979,-9.728 35.903,-7.075c18.924,2.653 33.427,10.081 32.542,16.625c-0.884,6.544 -16.978,9.727 -35.902,7.074Z" style="fill:url(#_Linear1);fill-rule:nonzero;"/><path d="M60.596,49.349c-27.237,2.653 -48.637,12.557 -47.753,21.93c0.885,9.374 23.877,14.857 51.113,12.204c27.237,-2.653 48.637,-12.557 47.752,-22.108c-1.061,-9.373 -23.876,-14.856 -51.112,-12.026Zm2.829,29.005c-18.924,1.945 -34.841,-1.946 -35.548,-8.489c-0.708,-6.544 14.148,-13.442 33.249,-15.387c19.101,-1.946 34.842,1.945 35.549,8.489c0.708,6.544 -14.325,13.441 -33.25,15.387Z" style="fill:url(#_Linear2);fill-rule:nonzero;"/><path d="M66.786,35.731c-27.06,-4.599 -50.229,-0.708 -51.82,8.666c-1.592,9.373 19.101,20.692 45.983,25.291c26.883,4.598 50.229,0.707 51.821,-8.666c1.591,-9.374 -19.101,-20.693 -45.984,-25.291Zm-4.952,28.828c-18.747,-3.184 -33.25,-11.142 -32.012,-17.686c1.061,-6.544 17.155,-9.197 36.08,-6.014c18.924,3.184 33.249,11.143 32.011,17.51c-1.061,6.544 -17.332,9.373 -36.079,6.19Z" style="fill:url(#_Linear3);fill-rule:nonzero;"/></g><defs><linearGradient id="_Linear1" x1="0" y1="0" x2="1" y2="0" gradientUnits="userSpaceOnUse" gradientTransform="matrix(-98.431,-0.00308483,0.00308483,-98.431,111.484,79.681)"><stop offset="0%" style="stop-color:#fed208;stop-opacity:1"/><stop offset="100%" style="stop-color:#fcb918;stop-opacity:1"/></linearGradient><linearGradient id="_Linear2" x1="0" y1="0" x2="1" y2="0" gradientUnits="userSpaceOnUse" gradientTransform="matrix(98.7881,-9.79665,9.79665,98.7881,12.8732,71.2938)"><stop offset="0%" style="stop-color:#fed208;stop-opacity:1"/><stop offset="100%" style="stop-color:#fcb918;stop-opacity:1"/></linearGradient><linearGradient id="_Linear3" x1="0" y1="0" x2="1" y2="0" gradientUnits="userSpaceOnUse" gradientTransform="matrix(-98.0565,-0.0020965,0.0020965,-98.0565,112.856,52.6747)"><stop offset="0%" style="stop-color:#fed208;stop-opacity:1"/><stop offset="100%" style="stop-color:#fcb918;stop-opacity:1"/></linearGradient></defs></svg>