<svg xmlns="http://www.w3.org/2000/svg" width="300" height="90" viewBox="0 0 300 90"><path d="M221.43 31.02c2.44 1.293 6.94.654 7.178-4.567.107-2.345-2.01-5.844-6.618-5.544-1.704.107-2.54.76-3.152 1.74-2.1 3.285-.733 6.588 2.592 8.365v.004zM71.958 33.056c2.323 1.237 6.597.63 6.827-4.334.103-2.243-1.914-5.552-6.29-5.282-1.625.103-2.415.745-3 1.663-1.995 3.127-.692 6.267 2.463 7.95v.004zm-16.95 38.398h.513c.47 0 .868-.425.868-.927V60.28c0-.483-.39-.876-.867-.876-1.375 0-2.772-.193-4.155-.572-.058-.033-.122-.06-.193-.08l-.288-.08c-.173-.048-.34-.09-.5-.144-.083-.028-.107-.04-.13-.047-.452-.16-.92-.35-1.383-.564l-.31-.148c-.377-.188-.763-.397-1.143-.626-.127-.077-.256-.154-.383-.234-.314-.2-.645-.43-.997-.7-.044-.03-.257-.193-.257-.193l-.13-.096c-.313-.252-.636-.538-.994-.874l-.26-.24c-.395-.39-.773-.807-1.12-1.23-.366-.445-.69-.883-1.01-1.38-.35-.547-.566-.908-.748-1.25-.096-.18-.182-.364-.275-.57l-.21-.44c-.07-.142-.126-.26-.176-.38-.14-.34-.26-.687-.416-1.15l-.07-.193c-.18-.573-.304-1.06-.428-1.637-.044-.223-.074-.45-.107-.688l-.04-.28c-.01-.09-.026-.197-.04-.307.377-.15.77-.322 1.204-.523l.13-.06c.627-.295 1.252-.617 1.858-.962l.408-.234c.61-.36 1.143-.696 1.63-1.032.11-.075.216-.152.323-.23l.203-.145c.35-.253.68-.5 1.064-.804l.26-.2c.08-.06.164-.124.25-.193 2.404-2.003 4.463-4.413 6.118-7.16.163-.273.33-.565.513-.898l.215-.395c.093-.177.19-.36.306-.604.142-.28.258-.514.362-.742l.12-.273c.62-1.367 1.128-2.79 1.52-4.232.18-.66.325-1.276.446-1.887.195-.998.34-2.042.43-3.1.038-.457.066-.887.082-1.306.01-.234-.08-.465-.248-.642-.162-.17-.394-.27-.633-.27H46.096c-.454 0-.835.36-.865.82-.102 1.657-.45 3.27-1.033 4.795l-.1.28c-.12.293-.256.577-.416.91l-.094.204c-.05.108-.107.232-.162.342-.078.142-.16.283-.246.423l-.193.328c-.122.21-.246.428-.38.63-.04.06-.083.115-.125.173l-.132.184c-.23.33-.444.63-.716.962-.306.363-.56.644-.9 1-.142.145-.285.28-.44.426-.176.17-.322.306-.465.43-.146.13-.342.3-.537.46-.265.212-.612.485-.98.736l-.23.146c-.38.25-.705.45-1.047.64-.1.054-.203.106-.308.16l-.15.076c-.233.118-.5.256-.77.374-.18.08-.364.155-.595.248-.312.124-.538.207-.744.28l-.694.22c-.226.065-.473.13-.752.195-.217.053-.44.105-.666.15-.1.02-.2.035-.298.052-.033.003.314-2.37.314-2.37.488-3.846-.118-6.077-1.584-8.538-.95-1.598-2.626-2.923-4.32-3.727-.992-.473-1.995-.77-2.857-.827-.714-.146-1.35-.223-1.956-.25-.193-.004-.3-.01-.408-.01-.38 0-.67.03-.9.09-.233.062-.404.158-.53.293-.39.416-.282 1.193-.158 2.09.055.384.11.78.11 1.078 0 1.08-.397 4.8-.53 5.682l-.693 4.09c-.01.062-.015.123-.026.19-.138 1-.275 2.038-.496 3.143-.1.504-.206 1.025-.297 1.543-.685 3.9-1.418 8.078-2.234 12.703-.317 1.798-.647 3.663-.992 5.608.03-.006-.314 2.367-.314 2.367-.485 3.846.12 6.08 1.585 8.538.95 1.597 2.625 2.923 4.32 3.73.99.47 1.994.766 2.86.827.71.14 1.344.22 1.944.245.203.008.314.01.418.01.38-.002.667-.03.898-.09.234-.063.403-.157.532-.292.39-.42.283-1.196.16-2.094-.053-.38-.11-.778-.11-1.076 0-1.075.397-4.796.53-5.68l1.746-10.266c.796 2.465 1.93 4.81 3.396 6.995l.14.202c.152.225.336.493.568.812.06.083.476.62.476.62.118.154.264.346.413.53.37.444.653.772.94 1.09.115.128.236.252.355.376l.134.14c.168.177.334.35.504.52.17.17.34.335.546.53.197.185.35.327.493.455.193.176.39.35.59.517.166.144.336.282.507.42.18.145.385.313.6.48.182.14.37.274.554.412l.14.1c.146.107.294.214.445.32.298.203.592.395.816.536l.36.234c1.148.713 2.363 1.344 3.602 1.88 1.494.646 3.075 1.16 4.698 1.536 1.802.416 3.66.65 5.524.694.052.01.11.017.168.017l-.035-.02zm228.317-50.472c-1.424-2.77-4.604-5.274-8.385-4.956-1.968.18-4.092 1.116-6.223 3.196-5.57 5.397-8.867 12.382-10.764 17.838-.96-.536-2.18-1.106-3.127-1.425-1.48-.514-3.14-.783-4.942-.783-2.6 0-5.052.573-7.285 1.69-2.207 1.12-4.15 2.666-5.747 4.582-1.598 1.9-2.858 4.123-3.743 6.602-.427 1.178-.75 2.386-.97 3.624-.184 1.016-.3 2.045-.352 3.074-.13 1.407-.053 2.825.184 4.214-1.74 1.703-3.317 2.677-4.3 2.963-9.19 2.74-8.277-8.49-7.49-12.274 0 0 1.172-5.2 2.04-7.1.86-1.882 1.58-3.105 2.653-4.51 1.557-2.042-.273-2.342-1.195-2.452-.923-.085-2.166-.28-6.2.165-3.964.443-6.003 4.865-7.697 10.122-.83 2.56-1.504 6.967-1.504 6.967-.387 2.195-.7 4.757-.467 6.868l.008.06c-2.104 2.232-3.875 3.133-5.236 3.268-5.852.578-5.803-3.565-4.79-7.064 1.214-4.185 1.858-6.59 2-9.117.142-2.524-.216-4.827-3.175-4.904-2.96-.076-6.6-.264-10.694-.613-3.96-.337-7.204-1.76-3.752-4.497.016-3.077-5.158-5.425-7.888-2.98-4.276 3.823-2.086 9.088 1.402 12.152.22.193.44.394.662.598-2.045 6.538-6.334 13.57-11.773 15.503-2.234.796-3.482.14-4.248-.81-.62-.772-.88-1.893-.842-4.532.036-2.636 1.174-8.6 2.458-12.406 2.92-8.662 7.58-15.164 9.398-16.53 2.614-1.967 4.485-.703 2.802-3.98-1.36-2.64-4.38-5.02-7.976-4.7-1.868.167-3.89 1.056-5.913 3.02-4.766 4.63-7.775 10.462-9.646 15.352-.208.546-.406 1.083-.588 1.6-.535-.29-1.152-.59-1.755-.86-.424-.19-.843-.362-1.218-.492-1.403-.487-2.985-.738-4.698-.738-2.47 0-4.794.543-6.916 1.617-.08.04-.157.086-.234.124-1.554.816-2.964 1.852-4.2 3.094-.36.362-.71.734-1.04 1.13-1.518 1.81-2.717 3.92-3.56 6.28-.4 1.115-.705 2.264-.917 3.438-.174.96-.284 1.937-.328 2.926-.127 1.286-.055 2.576.15 3.846-2.026 2.09-3.732 2.94-5.05 3.072-5.853.578-5.803-3.565-4.79-7.064 1.213-4.185 1.857-6.59 2-9.117.144-2.522-.796-5.013-2.37-6.63-.655-.673-1.412-1.207-2.263-1.6-1.196-.555-2.574-.84-4.133-.84-2.443 0-3.84.326-6.306 1.55-1.23.61-2.697 1.675-3.82 2.85l-2.65 2.78c-.106-.522-.24-1.015-.41-1.48-.506-1.384-1.322-2.483-2.592-3.175-3.383-1.84-8.243-2.877-7.29-.648.753 1.766.797 2.326.89 4.293.092 1.967-.864 7.598-.864 7.598-.198 1.133-1.096 4.466-1.614 6.042l-.097.3c-2.383 3.028-4.777 4.665-6.075 5.048-8.736 2.595-7.868-8.06-7.11-11.657 0 0 1.107-4.953 1.925-6.746.82-1.794 1.502-2.954 2.53-4.3 1.47-1.932-.265-2.224-1.14-2.32-.877-.097-2.052-.28-5.89.148-3.77.42-5.7 4.626-7.314 9.626-.782 2.43-1.432 6.613-1.432 6.613-.382 2.2-.62 4.883-.41 6.853.67 6.312 2.932 9.067 7.883 10.202 4.952 1.135 9.698.33 12.737-1.587 1.454-.918 2.603-1.83 3.54-2.71.248 1.087.653 2.018 1.25 2.81 1.14 1.503 1.89 1.58 3.533 1.58h6.22c1.026 0 1.64-.325 1.95-1.044.342-.788-.08-1.446-.587-1.802-1.702-1.198-1.678-4.23-1.336-5.918.342-1.683 2.01-6.54 2.466-11.108 1.047-.79 2.537-1.785 3.427-2.254.9-.476 1.832-.72 2.764-.72.788 0 1.06.307 1.148.406.268.3.507.703.507 1.28 0 .57-.04 1.048-.316 1.99-.25.868-.97 2.844-1.287 4.274-.177.793-.266 1.562-.365 2.248-.487 3.438.053 5.717 1.086 7.58.48.864 1.114 1.608 1.913 2.256.777.628 1.705 1.17 2.804 1.65.01.003.017.005.025.01l.03.012c-.005 0-.008-.003-.012-.006.84.364 1.656.653 2.447.88 4.058 1.156 7.49.633 10.24-.54 2.358-1.005 4.703-2.89 6.325-4.62.075.123.146.25.223.368.334.504.695.98 1.078 1.42 1.13 1.3 2.488 2.316 4.033 3.018.566.257 1.155.466 1.763.628 1.052.284 2.168.428 3.335.428 1.543 0 2.422-.185 4.32-.83 2.612-.887 4.54-2.708 5.772-4.63.08.11.163.214.248.318.253.337.537.648.85.926.183.174.373.336.563.493.17.164.35.324.54.478.776.628 1.704 1.17 2.803 1.65l.026.01s.014.007.03.012l-.01-.005c.84.364 1.655.65 2.446.876 4.058 1.158 8.758.577 11.53-.54 6.97-2.8 12.577-11.584 15.817-19.67 1.148.247 2.476.352 4.052.242-.342.747-.962 2.413-1.6 5.822-.15.798-.265 1.562-.362 2.248-.487 3.44.05 5.717 1.086 7.58.48.864 1.113 1.608 1.915 2.255.775.63 1.703 1.17 2.805 1.65.01.006.017.01.025.012l.028.012c-.003 0-.01-.002-.014-.005.838.36 1.654.647 2.445.876 4.055 1.154 7.49.63 10.237-.54 2.243-.956 4.472-2.71 6.08-4.367.045.075.094.146.14.212 1.337 2.295 3.42 3.607 6.49 4.3 5.212 1.208 10.21.354 13.398-1.668 2.077-1.3 3.565-2.6 4.697-3.82.394.62.832 1.205 1.3 1.756 1.193 1.364 2.62 2.43 4.246 3.16 1.623.744 3.427 1.124 5.36 1.124 1.624 0 2.555-.2 4.553-.873 2.742-.93 4.775-2.846 6.076-4.868.085.103.173.23.267.337.26.356.562.675.893.956 2.452 2.345 5.747 3.163 7.356 3.66 9.442 2.9 12.75-6.64 10.993-6.64-1.47 0-7.3.782-7.41-7.92l.026-.04c.785-15.134 9.724-28.383 12.482-30.436 2.752-2.085 4.714-.75 2.945-4.195l.028-.03zM147.567 47.785c-.625 2.832-1.25 6.364-1.314 9.704l-.193 1.007c-1.683 1.303-3.337 1.965-4.92 1.965-.684 0-1.296-.133-1.848-.392-.473-.223-.904-.534-1.294-.947-.85-.904-1.28-2.395-1.28-4.436 0-3.312.717-5.85 2.13-7.546 1.387-1.663 2.955-2.47 4.796-2.47 1.087 0 2.044.173 2.847.523.513.22 1.007.507 1.478.85-.13.538-.266 1.12-.4 1.734v.008zm106.395 8.93l-.202 1.073c-1.773 1.362-3.505 2.072-5.186 2.072-1.328 0-2.408-.462-3.294-1.402-.896-.96-1.354-2.527-1.354-4.672 0-3.483.755-6.166 2.24-7.938 1.46-1.76 3.11-2.614 5.056-2.614 1.14 0 2.142.193 2.986.556.545.226 1.065.532 1.557.896-.765 3.185-1.724 7.76-1.804 12.026l.002.003z"/></svg>