<svg xmlns="http://www.w3.org/2000/svg" width="300" height="90" viewBox="0 0 300 90">
  <g fill="none" transform="translate(0 20)">
    <path fill="#000" d="M290.035336,5.30035336 L287.279152,5.30035336 L287.279152,13.3568905 L286.431095,13.3568905 L286.431095,5.30035336 L283.674912,5.30035336 L283.674912,4.45229682 L290.035336,4.45229682 L290.035336,5.30035336 Z M299.469965,13.3568905 L298.621908,13.3568905 L298.621908,5.83038869 L295.547703,11.024735 L295.441696,11.024735 L292.367491,5.83038869 L292.367491,13.3568905 L291.519435,13.3568905 L291.519435,4.45229682 L292.579505,4.45229682 L295.547703,9.43462898 L298.515901,4.45229682 L299.575972,4.45229682 L299.575972,13.3568905 L299.469965,13.3568905 Z"/>
    <path fill="#9100FF" d="M180.636042,20.2473498 C180.636042,9.32862191 189.328622,0.424028269 200.459364,0.424028269 C211.590106,0.424028269 220.282686,9.32862191 220.282686,20.2473498 C220.282686,31.1660777 211.590106,40.0706714 200.459364,40.0706714 C189.328622,40.0706714 180.636042,31.1660777 180.636042,20.2473498 Z M216.466431,20.2473498 C216.466431,11.3427562 209.575972,4.13427562 200.459364,4.13427562 C191.342756,4.13427562 184.452297,11.3427562 184.452297,20.2473498 C184.452297,29.1519435 191.342756,36.360424 200.459364,36.360424 C209.575972,36.360424 216.466431,29.1519435 216.466431,20.2473498 Z M249.75265,22.5795053 L249.75265,39.434629 L246.14841,39.434629 L246.14841,22.5795053 C246.14841,17.7031802 243.498233,14.8409894 238.727915,14.8409894 C233.957597,14.8409894 229.823322,17.7031802 229.823322,25.0176678 L229.823322,39.3286219 L226.219081,39.3286219 L226.219081,11.9787986 L229.823322,11.9787986 L229.823322,16.2190813 C231.943463,12.7208481 235.123675,11.2367491 239.045936,11.2367491 C245.724382,11.3427562 249.75265,15.6890459 249.75265,22.5795053 Z M282.826855,25.7597173 C282.826855,26.2897527 282.720848,26.9257951 282.720848,27.4558304 L258.657244,27.4558304 C259.399293,33.0742049 263.745583,36.4664311 269.575972,36.4664311 C273.922261,36.4664311 276.890459,34.4522968 278.374558,31.8021201 L281.55477,33.7102473 C279.222615,37.4204947 274.982332,39.9646643 269.469965,39.9646643 C260.777385,39.9646643 254.840989,33.9222615 254.840989,25.6537102 C254.840989,17.5971731 260.671378,11.3427562 269.151943,11.3427562 C277.632509,11.3427562 282.826855,18.3392226 282.826855,25.7597173 Z M258.657244,23.9575972 L279.116608,23.9575972 C278.374558,17.9151943 273.922261,14.8409894 269.257951,14.8409894 C263.427562,14.8409894 259.399293,18.6572438 258.657244,23.9575972 Z"/>
    <path fill="#6D6E71" d="M34.664311,39.434629 L33.6042403,39.434629 L33.6042403,2.54416961 L17.9151943,27.9858657 L17.4911661,27.9858657 L1.80212014,2.54416961 L1.80212014,39.434629 L0.74204947,39.434629 L0.74204947,1.06007067 L2.12014134,1.06007067 L17.7031802,26.3957597 L33.2862191,1.06007067 L34.664311,1.06007067 L34.664311,39.434629 Z M43.6749117,2.43816254 C43.6749117,1.80212014 44.204947,1.16607774 44.9469965,1.16607774 C45.6890459,1.16607774 46.2190813,1.80212014 46.2190813,2.43816254 C46.2190813,3.07420495 45.6890459,3.71024735 44.9469965,3.71024735 C44.204947,3.71024735 43.6749117,3.07420495 43.6749117,2.43816254 Z M44.4169611,11.9787986 L45.4770318,11.9787986 L45.4770318,39.3286219 L44.4169611,39.3286219 L44.4169611,11.9787986 Z M76.6431095,21.9434629 L76.6431095,39.3286219 L75.5830389,39.3286219 L75.5830389,21.9434629 C75.5830389,16.5371025 72.0848057,12.4028269 66.254417,12.4028269 C59.8939929,12.4028269 55.335689,17.1731449 55.335689,24.6996466 L55.335689,39.434629 L54.2756184,39.434629 L54.2756184,11.9787986 L55.335689,11.9787986 L55.335689,19.5053004 C56.819788,14.0989399 61.2720848,11.4487633 66.254417,11.4487633 C72.4028269,11.4487633 76.6431095,15.6890459 76.6431095,21.9434629 Z M84.0636042,2.43816254 C84.0636042,1.80212014 84.5936396,1.16607774 85.335689,1.16607774 C86.0777385,1.16607774 86.6077739,1.80212014 86.6077739,2.43816254 C86.6077739,3.07420495 86.0777385,3.71024735 85.335689,3.71024735 C84.6996466,3.71024735 84.0636042,3.07420495 84.0636042,2.43816254 Z M84.8056537,11.9787986 L85.8657244,11.9787986 L85.8657244,39.3286219 L84.8056537,39.3286219 L84.8056537,11.9787986 Z M112.04947,32.2261484 C112.04947,36.4664311 108.233216,39.8586572 102.508834,39.8586572 C96.9964664,39.8586572 93.6042403,37.7385159 92.3321555,34.1342756 L93.180212,33.6042403 C94.2402827,36.9964664 97.4204947,38.9045936 102.402827,38.9045936 C107.385159,38.9045936 110.883392,36.1484099 110.883392,32.2261484 C110.883392,23.4275618 93.0742049,28.6219081 93.0742049,19.0812721 C93.0742049,14.8409894 96.5724382,11.4487633 102.29682,11.4487633 C106.64311,11.4487633 109.823322,13.5689046 111.095406,16.7491166 L110.24735,17.2791519 C109.081272,14.4169611 106.219081,12.5088339 102.402827,12.5088339 C97.4204947,12.5088339 94.2402827,15.2650177 94.2402827,19.1872792 C94.2402827,27.5618375 112.04947,22.4734982 112.04947,32.2261484 Z M122.438163,12.9328622 L122.438163,33.2862191 C122.438163,38.2685512 124.982332,39.3286219 131.130742,38.3745583 L131.130742,39.3286219 C124.34629,40.3886926 121.272085,38.6925795 121.272085,33.2862191 L121.272085,12.9328622 L114.699647,12.9328622 L114.699647,11.9787986 L121.272085,11.9787986 L121.272085,4.66431095 L122.332155,4.34628975 L122.332155,11.9787986 L131.024735,11.9787986 L131.024735,12.9328622 L122.438163,12.9328622 Z M148.19788,11.6607774 L148.19788,12.614841 C142.791519,12.614841 138.021201,16.6431095 138.021201,24.1696113 L138.021201,39.434629 L136.961131,39.434629 L136.961131,11.9787986 L138.021201,11.9787986 L138.021201,19.2932862 C139.5053,13.8869258 144.063604,11.6607774 148.19788,11.6607774 Z M177.45583,11.9787986 L165.477032,41.8727915 C163.35689,47.1731449 159.328622,50.6713781 154.982332,50.3533569 L154.982332,49.3992933 C158.904594,49.7173145 162.402827,46.5371025 164.416961,41.6607774 L164.840989,40.7067138 L151.696113,12.0848057 L152.756184,12.0848057 L165.371025,39.3286219 L176.289753,11.9787986 L177.45583,11.9787986 Z"/>
  </g>
</svg>
