<svg xmlns="http://www.w3.org/2000/svg" width="300" height="90" viewBox="0 0 300 90">
  <g fill="none" fill-rule="evenodd" transform="translate(0 19)">
    <g transform="translate(65 12)">
      <g fill="#3A3B39" transform="translate(142)">
        <polyline points="18.624 23.908 18.624 31.333 .597 31.333 .597 1.29 8.28 1.29 8.28 23.908 18.624 23.908"/>
        <polygon points="20.761 31.334 28.444 31.334 28.444 1.29 20.761 1.29"/>
        <polyline points="57.561 1.29 57.561 31.333 51.639 31.333 41.036 16.225 41.036 31.333 33.354 31.333 33.354 1.29 39.32 1.29 49.921 16.398 49.921 1.29 57.561 1.29"/>
        <path d="M78.1056716,24.380597 L74.0713433,20.0453731 L79.479403,15.3241791 L84.0716418,20.2173134 C84.6295522,19.1014925 84.9734328,17.7707463 84.9734328,16.3119403 C84.9734328,11.5047761 81.4531343,8.15731343 76.861791,8.15731343 C72.2686567,8.15731343 68.7492537,11.5047761 68.7492537,16.3119403 C68.7492537,21.118209 72.2686567,24.4674627 76.861791,24.4674627 C77.2907463,24.4674627 77.7197015,24.4235821 78.1056716,24.380597 Z M89.3946269,25.9253731 L92.098209,28.8438806 L86.7331343,33.6080597 L83.7707463,30.4325373 C81.7119403,31.419403 79.3504478,31.9773134 76.861791,31.9773134 C68.1053731,31.9773134 61.1095522,25.1534328 61.1095522,16.3119403 C61.1095522,7.47044776 68.1053731,0.645671642 76.861791,0.645671642 C85.6173134,0.645671642 92.6131343,7.47044776 92.6131343,16.3119403 C92.6131343,19.959403 91.4113433,23.3068657 89.3946269,25.9253731 L89.3946269,25.9253731 Z"/>
      </g>
      <g fill="#515251" transform="translate(0 1)">
        <polyline points="27.266 30.333 24.991 30.333 24.991 3.637 13.875 22.093 13.489 22.093 2.372 3.637 2.372 30.333 .097 30.333 .097 .29 2.93 .29 13.66 18.059 24.39 .29 27.266 .29 27.266 30.333"/>
        <path d="M33.8244776 30.3343284L35.9701493 30.3343284 35.9701493 8.87402985 33.8244776 8.87402985 33.8244776 30.3343284zM33.180597 1.96328358C33.180597 1.06238806 33.9525373.289552239 34.8973134.289552239 35.8402985.289552239 36.6140299 1.06238806 36.6140299 1.96328358 36.6140299 2.90716418 35.8402985 3.68 34.8973134 3.68 33.9525373 3.68 33.180597 2.90716418 33.180597 1.96328358L33.180597 1.96328358zM60.0776119 16.9856716L60.0776119 30.3334328 57.8889552 30.3334328 57.8889552 16.9856716C57.8889552 13.0373134 55.6143284 10.461791 51.58 10.461791 47.3728358 10.461791 44.0683582 13.2083582 44.0683582 19.0023881L44.0683582 30.3334328 41.921791 30.3334328 41.921791 8.87402985 44.0683582 8.87402985 44.0683582 12.9504478C45.6991045 9.77492537 48.4465672 8.40119403 51.7510448 8.40119403 56.858209 8.40119403 60.0776119 11.7916418 60.0776119 16.9856716M65.6907463 30.3343284L67.8373134 30.3343284 67.8373134 8.87402985 65.6907463 8.87402985 65.6907463 30.3343284zM65.0477612 1.96328358C65.0477612 1.06238806 65.8197015.289552239 66.7644776.289552239 67.7083582.289552239 68.481194 1.06238806 68.481194 1.96328358 68.481194 2.90716418 67.7083582 3.68 66.7644776 3.68 65.8197015 3.68 65.0477612 2.90716418 65.0477612 1.96328358L65.0477612 1.96328358zM88.1038806 24.7113433C88.1038806 28.2307463 85.0143284 30.8062687 80.421194 30.8062687 76.1298507 30.8062687 73.2964179 28.7886567 72.2665672 26.041194L74.1122388 24.9683582C74.8841791 27.2859701 77.2026866 28.7456716 80.421194 28.7456716 83.4256716 28.7456716 85.9573134 27.4158209 85.9573134 24.7113433 85.9573134 18.8734328 72.9534328 22.221791 72.9534328 14.4961194 72.9534328 11.1056716 75.8719403 8.40119403 80.2492537 8.40119403 83.7256716 8.40119403 86.3871642 10.0749254 87.5459701 12.6934328L85.7432836 13.7241791C84.8414925 11.4916418 82.6098507 10.461791 80.2492537 10.461791 77.4597015 10.461791 75.0991045 11.920597 75.0991045 14.4961194 75.0991045 20.2480597 88.1038806 16.8567164 88.1038806 24.7113433M97.1844776 10.9767164L97.1844776 24.9253731C97.1844776 28.7026866 99.2020896 28.7886567 103.580299 28.401791L103.580299 30.3334328C97.958209 31.1922388 94.9958209 29.8185075 94.9958209 24.9253731L94.9958209 10.9767164 90.2755224 10.9767164 90.2755224 8.87402985 94.9958209 8.87402985 94.9958209 3.5080597 97.1844776 2.86507463 97.1844776 8.87402985 103.580299 8.87402985 103.580299 10.9767164 97.1844776 10.9767164M116.74806 8.57313433L116.74806 10.6328358C113.056716 10.6328358 109.580299 12.9074627 109.580299 18.4014925L109.580299 30.3334328 107.434627 30.3334328 107.434627 8.87402985 109.580299 8.87402985 109.580299 13.0802985C111.04 9.68895522 113.829552 8.57313433 116.74806 8.57313433M139.701194 8.87402985L130.429851 32.3080597C128.799104 36.4283582 125.622687 39.2179104 121.931343 38.9179104L121.931343 36.9002985C124.807761 37.1573134 126.996418 35.0125373 128.327164 31.8791045L128.799104 30.7202985 118.927761 8.87402985 121.245373 8.87402985 129.914925 27.9737313 137.383582 8.87402985 139.701194 8.87402985"/>
      </g>
    </g>
    <path fill="#98C658" d="M14.2056716,50.8137313 C10.5671642,50.8137313 6.92686567,49.4283582 4.15701493,46.6567164 C-1.38537313,41.1152239 -1.38537313,32.098209 4.15701493,26.5567164 L4.97104478,25.7426866 L8.13671642,28.9083582 L7.32268657,29.7232836 C3.52656716,33.5185075 3.52656716,39.6949254 7.32268657,43.4910448 C9.16119403,45.3295522 11.6059701,46.3423881 14.2056716,46.3423881 C16.8071642,46.3423881 19.2510448,45.3295522 21.0904478,43.4910448 L21.9044776,42.6770149 L25.0701493,45.8426866 L24.2561194,46.6567164 C21.4853731,49.4283582 17.8459701,50.8137313 14.2056716,50.8137313 M28.2358209,42.6770149 L25.0701493,39.5113433 L38.8379104,25.7426866 L42.0035821,28.9083582 L28.2358209,42.6770149 M11.3023881,25.7426866 L8.13671642,22.5770149 L21.9044776,8.80925373 L25.0701493,11.9749254 L11.3023881,25.7426866 M45.1692537,25.7426866 L42.0035821,22.5770149 L42.8176119,21.7629851 C44.6561194,19.9244776 45.6689552,17.4797015 45.6689552,14.8791045 C45.6689552,12.2785075 44.6561194,9.83373134 42.8176119,7.99522388 C40.92,6.09761194 38.4268657,5.14835821 35.9337313,5.14835821 C33.4414925,5.14835821 30.9483582,6.09761194 29.0498507,7.99522388 L28.2358209,8.80925373 L25.0701493,5.64358209 L25.8841791,4.82955224 C28.6549254,2.05880597 32.2952239,0.673432836 35.9346269,0.673432836 C39.5740299,0.673432836 43.2134328,2.05880597 45.9841791,4.82955224 C51.5256716,10.3710448 51.5256716,19.3871642 45.9841791,24.9286567 L45.1692537,25.7426866"/>
    <path fill="#F1AC2B" d="M35.9337313,50.8137313 C32.2943284,50.8137313 28.6549254,49.4283582 25.8841791,46.6567164 L25.0701493,45.8426866 L28.2358209,42.6770149 L29.0498507,43.4910448 C30.8883582,45.3295522 33.3340299,46.3423881 35.9337313,46.3423881 C38.5343284,46.3423881 40.9791045,45.3295522 42.8176119,43.4910448 C44.6561194,41.6525373 45.6689552,39.2077612 45.6689552,36.6071642 C45.6689552,34.0065672 44.6561194,31.561791 42.8176119,29.7232836 L42.0035821,28.9083582 L45.1692537,25.7426866 L45.9841791,26.5567164 C51.5256716,32.098209 51.5256716,41.1152239 45.9841791,46.6567164 C43.2134328,49.4283582 39.5731343,50.8137313 35.9337313,50.8137313 M21.9044776,42.6770149 L8.13671642,28.9083582 L11.3023881,25.7426866 L25.0701493,39.5113433 L21.9044776,42.6770149 M38.8379104,25.7426866 L25.0701493,11.9749254 L28.2358209,8.80925373 L42.0035821,22.5770149 L38.8379104,25.7426866 M4.97104478,25.7426866 L4.15701493,24.9286567 C-1.38537313,19.3871642 -1.38537313,10.3710448 4.15701493,4.82955224 C6.92686567,2.05880597 10.5671642,0.672537313 14.2065672,0.672537313 C17.8459701,0.672537313 21.4853731,2.05880597 24.2561194,4.82955224 L25.0701493,5.64358209 L21.9044776,8.80925373 L21.0904478,7.99522388 C19.1919403,6.09761194 16.698806,5.14835821 14.2056716,5.14835821 C11.7134328,5.14835821 9.22029851,6.09761194 7.32268657,7.99522388 C3.52656716,11.7913433 3.52656716,17.9668657 7.32268657,21.7629851 L8.13671642,22.5770149 L4.97104478,25.7426866"/>
    <path fill="#949539" d="M25.0701493,45.8426866 L21.9044776,42.6770149 L25.0701493,39.5113433 L28.2358209,42.6770149 L25.0701493,45.8426866 M42.0035821,28.9083582 L38.8379104,25.7426866 L42.0035821,22.5770149 L45.1692537,25.7426866 L42.0035821,28.9083582 M8.13671642,28.9083582 L4.97104478,25.7426866 L8.13671642,22.5770149 L11.3023881,25.7426866 L8.13671642,28.9083582 M25.0701493,11.9749254 L21.9044776,8.80925373 L25.0701493,5.64358209 L28.2358209,8.80925373 L25.0701493,11.9749254"/>
    <path fill="#676866" d="M29.88,20.6650746 L29.5450746,20.3310448 C28.9002985,19.6853731 27.8543284,19.6853731 27.2086567,20.3310448 L25.9701493,21.5695522 C25.3244776,22.2152239 24.2785075,22.2152239 23.6337313,21.5695522 L22.3943284,20.3310448 C21.7495522,19.6853731 20.7035821,19.6853731 20.0579104,20.3310448 L19.7238806,20.6650746 C19.0791045,21.3107463 19.0791045,22.3567164 19.7238806,23.0014925 L20.9632836,24.2408955 C21.6080597,24.8856716 21.6080597,25.9316418 20.9632836,26.5764179 L19.7238806,27.8158209 C19.0791045,28.460597 19.0791045,29.5074627 19.7238806,30.1522388 L20.0579104,30.4862687 C20.7035821,31.1319403 21.7495522,31.1319403 22.3943284,30.4862687 L23.6337313,29.2477612 C24.2785075,28.6029851 25.3244776,28.6029851 25.9701493,29.2477612 L27.2086567,30.4862687 C27.8543284,31.1319403 28.9002985,31.1319403 29.5450746,30.4862687 L29.88,30.1522388 C30.5247761,29.5074627 30.5247761,28.460597 29.88,27.8158209 L28.640597,26.5764179 C27.9958209,25.9316418 27.9958209,24.8856716 28.640597,24.2408955 L29.88,23.0014925 C30.5247761,22.3567164 30.5247761,21.3107463 29.88,20.6650746"/>
  </g>
</svg>
