<svg viewBox="0 0 301 90" xmlns="http://www.w3.org/2000/svg" fill-rule="evenodd" clip-rule="evenodd" stroke-linejoin="round" stroke-miterlimit="1.414"><g fill-rule="nonzero"><path d="M176.97 14.036c-16.962 16.97-33.892 33.895-33.892 33.895s-28.7-28.706-33.88-33.894c18.72-18.715 49.055-18.715 67.77 0z" fill="#a5cd39"/><path d="M123.592 16.57v.01l2.537 2.54h.008c9.34-9.348 24.546-9.338 33.892 0l2.543-2.54c-10.75-10.743-28.24-10.743-38.98-.01zm5.086 5.085v.008l2.548 2.54c6.537-6.54 17.178-6.54 23.722 0l2.54-2.54c-7.94-7.942-20.87-7.948-28.81-.008zm10.17 10.177l4.23 4.237 4.242-4.238c-2.335-2.34-6.134-2.34-8.473 0zm-5.08-5.088l2.532 2.545c3.746-3.738 9.823-3.737 13.56 0l2.544-2.547c-5.14-5.133-13.498-5.133-18.637 0z" fill="#fff"/><path d="M107.24 81.42V68.544c0-1.62-.79-2.844-2.802-2.844-1.84 0-3.154 1.182-3.81 2.057V81.42h-6.742V68.544c0-1.62-.744-2.844-2.803-2.844-1.796 0-3.066 1.182-3.766 2.057V81.42h-6.745V60.27h6.743v2.583c.92-1.225 3.634-3.11 6.964-3.11 3.02 0 5.12 1.268 5.997 3.766 1.226-1.84 3.983-3.768 7.312-3.768 3.895 0 6.35 2.016 6.35 6.35V81.42h-6.7zM117.484 70.82c0-5.955 4.337-11.078 11.517-11.078 7.27 0 11.56 5.125 11.56 11.08 0 5.956-4.29 11.12-11.56 11.12-7.18 0-11.516-5.164-11.516-11.12zm16.16 0c0-2.798-1.664-5.122-4.64-5.122-2.933 0-4.554 2.322-4.554 5.123 0 2.846 1.62 5.17 4.553 5.17 2.977-.002 4.642-2.324 4.642-5.17z" fill="#2d2e33"/><path d="M143.54 86.85l2.932-4.818c1.62 1.752 3.984 2.452 6.436 2.452 2.233 0 5.387-.92 5.387-4.86v-1.622c-1.753 2.057-3.854 3.067-6.265 3.067-5.165 0-9.324-3.55-9.324-10.687 0-6.96 4.03-10.64 9.324-10.64 2.368 0 4.555.92 6.265 3.02v-2.496h6.7v19.268c0 8.627-6.834 10.465-12.087 10.465-3.632 0-6.653-.92-9.37-3.15zm14.756-13.618v-5.65c-.832-1.138-2.63-1.884-4.03-1.884-2.67 0-4.64 1.62-4.64 4.684 0 3.11 1.97 4.73 4.64 4.73 1.4.002 3.198-.745 4.03-1.88zM169.46 54.487c0-2.144 1.712-3.85 3.853-3.85 2.145 0 3.854 1.707 3.854 3.85 0 2.145-1.71 3.897-3.854 3.897-2.14.003-3.852-1.748-3.852-3.897zm.483 26.933V60.27h6.745v21.15h-6.745zM187.02 81.42l-8.32-21.15h7.093l4.77 13.398 4.818-13.398h7.14L194.2 81.42h-7.18zM206.77 53.35v8.495h-1.228V53.35h-2.713v-1.137h6.655v1.137h-2.716zm12.433 8.495v-7.967l-3.284 7.967h-.35l-3.285-7.967v7.967h-1.227v-9.632h1.885l2.8 7.004 2.803-7.004h1.882v9.632h-1.225z" fill="#a5cd39"/></g></svg>