<?xml version="1.0" encoding="UTF-8"?>
<svg width="300px" height="90px" viewBox="0 0 300 90" version="1.1" xmlns="http://www.w3.org/2000/svg" xmlns:xlink="http://www.w3.org/1999/xlink">
    <!-- Generator: Sketch 49.3 (51167) - http://www.bohemiancoding.com/sketch -->
    <title>logo-parishsoft</title>
    <desc>Created with Sketch.</desc>
    <defs></defs>
    <g id="parishsoft" stroke="none" stroke-width="1" fill="none" fill-rule="evenodd">
        <g id="logo" transform="translate(0.000000, 21.000000)" fill="#151E50" fill-rule="nonzero">
            <path d="M6.83655914,20.2150538 L6.83655914,19.5612903 L6.84623656,19.5612903 L6.84623656,1.29892473 L24.0290323,1.29892473 C32.0709677,1.29892473 37.0139785,6.55053763 37.0139785,13.5677419 C37.0139785,20.583871 32.0709677,25.8344086 24.0290323,25.8344086 L13.511828,25.8344086 L13.511828,43.3795699 L175.993548,43.3795699 C185.058065,43.3795699 187.550538,43.3795699 187.550538,36.1645161 C187.550538,29.144086 183.929032,30.3258065 176.167742,29.7870968 C167.783871,29.1946237 160.588172,30.0774194 160.588172,20.3612903 C160.588172,10.5473118 165.8,9.66451613 176.280645,9.66451613 C185.458065,9.66451613 192.084946,10.0064516 191.573118,20.0182796 L186.763441,20.0182796 C186.534409,13.5913978 185.113978,13.3430108 176.111828,13.3430108 C166.706452,13.3430108 165.404301,14.3752688 165.404301,19.4795699 C165.404301,26.4946237 169.256989,25.9053763 177.188172,26.1032258 C187.270968,26.5946237 192.370968,26.3505376 192.370968,36.3107527 C192.370968,46.716129 186.7,47.0612903 175.994624,47.0612903 L8.22903226,47.0612903 L8.22903226,47.0483871 L6.84623656,47.0483871 L6.84623656,25.8344086 L6.83655914,25.8344086 L6.83655914,25.5924731 L0,25.5924731 L0,20.216129 L6.83655914,20.216129 L6.83655914,20.2150538 Z M263.52043,9.95698925 L277.280645,9.95698925 L277.280645,1.29892473 L282.134409,1.29892473 L282.134409,9.95698925 L295.863441,9.95698925 L295.863441,13.6397849 L282.095699,13.6397849 L282.095699,46.7623656 L277.280645,46.7623656 L277.280645,13.6397849 L240.692473,13.6397849 L240.692473,26.4946237 L261.365591,26.4946237 L261.365591,29.9311828 L240.692473,29.9311828 L240.692473,46.7623656 L235.873118,46.7623656 L235.873118,9.95591398 L263.52043,9.95591398 L263.52043,9.95698925 Z M295.083871,18.4430108 C295.823656,18.4430108 296.545161,18.6311828 297.245161,19.0086022 C297.939934,19.3789667 298.51193,19.94349 298.891398,20.6333333 C299.286022,21.3387097 299.482796,22.0731183 299.482796,22.8376344 C299.482796,23.5978495 299.289247,24.3268817 298.901075,25.0258065 C298.523625,25.7121978 297.958105,26.2765984 297.270968,26.6526882 C296.603934,27.0309378 295.850683,27.2309159 295.083871,27.2333333 C294.324731,27.2333333 293.596774,27.0387097 292.901075,26.6526882 C292.215308,26.2762346 291.651269,25.7118226 291.275269,25.0258065 C290.895043,24.3590882 290.69424,23.6051511 290.692473,22.8376344 C290.692473,22.0731183 290.889247,21.3387097 291.283871,20.6333333 C291.663066,19.9439255 292.234695,19.3797692 292.929032,19.0096774 C293.588367,18.6429256 294.329415,18.448049 295.083871,18.4430108 Z M295.088172,19.0193548 C294.431308,19.0234597 293.786041,19.1928191 293.211828,19.511828 C292.608572,19.8339126 292.112331,20.3249223 291.783871,20.9247312 C291.448991,21.5072134 291.271487,22.1668294 291.268817,22.8387097 C291.268817,23.4989247 291.436559,24.1311828 291.774194,24.7365591 C292.101258,25.3333728 292.592765,25.8237598 293.190323,26.1494624 C293.768584,26.4794763 294.422373,26.6543138 295.088172,26.6569892 C295.748387,26.6569892 296.38172,26.4870968 296.988172,26.1494624 C297.58443,25.8231213 298.074734,25.332817 298.401075,24.7365591 C298.73871,24.1311828 298.906452,23.4989247 298.906452,22.8376344 C298.906452,22.1763441 298.734409,21.5387097 298.395699,20.9236559 C298.067865,20.3240165 297.5719,19.8332838 296.968817,19.511828 C296.392836,19.1923784 295.745723,19.0230197 295.087097,19.0193548 L295.088172,19.0193548 Z M292.741935,20.283871 L294.98172,20.283871 C295.735484,20.283871 296.260215,20.3741935 296.551613,20.5569892 C296.968817,20.8182796 297.176344,21.1827957 297.176344,21.6473118 C297.176344,21.9408602 297.083871,22.2043011 296.897849,22.4354839 C296.711828,22.6655914 296.431183,22.8311828 296.053763,22.9354839 L296.911828,24.4774194 C297.036559,24.6924731 297.164516,24.8548387 297.295699,24.9634409 C297.358065,25.0150538 297.446237,25.0516129 297.563441,25.0709677 L297.563441,25.2956989 L296.069892,25.2956989 L294.803226,23.0215054 L294.519355,23.0215054 L294.519355,24.2548387 C294.519355,24.5956989 294.565591,24.8139785 294.656989,24.9096774 C294.749462,25.0053763 294.948387,25.0602151 295.255914,25.0709677 L295.255914,25.2956989 L292.630108,25.2956989 L292.630108,25.0709677 C292.888172,25.0709677 293.054839,25.0290323 293.130108,24.9451613 C293.234409,24.8290323 293.286022,24.5989247 293.286022,24.2548387 L293.286022,21.3247312 C293.286022,20.988172 293.250538,20.7741935 293.17957,20.6827957 C293.107527,20.5903226 292.962366,20.5322581 292.741935,20.5086022 L292.741935,20.283871 Z M294.519355,22.7021505 C294.65914,22.7225806 294.777419,22.7333333 294.872043,22.7333333 C295.13434,22.7347152 295.384738,22.6239926 295.560215,22.4290323 C295.752688,22.2268817 295.848387,21.955914 295.848387,21.6172043 C295.848387,21.2677419 295.758065,21.0043011 295.57957,20.8258065 C295.4,20.6462366 295.124731,20.5569892 294.754839,20.5569892 L294.519355,20.5569892 L294.519355,22.7021505 Z M210.325806,9.66451613 L216.048387,9.66451613 C226.639785,9.76129032 229.870968,12.8010753 229.870968,22.0333333 L229.870968,35.1322581 C229.870968,43.8225806 226.244086,47.0612903 216.048387,47.0612903 L210.325806,47.0612903 C200.132258,47.0612903 196.505376,43.8225806 196.505376,35.1322581 L196.505376,22.0322581 C196.505376,12.8 199.731183,9.76129032 210.325806,9.66344086 L210.325806,9.66451613 Z M216.048387,13.3419355 L210.325806,13.3419355 C203.190323,13.3419355 201.319355,14.8666667 201.319355,22.0333333 L201.319355,35.1322581 C201.319355,42.4451613 204.095699,43.3301075 210.325806,43.3795699 L216.048387,43.3795699 C222.276344,43.3301075 225.050538,42.4451613 225.050538,35.1322581 L225.050538,22.0322581 C225.050538,14.8655914 223.182796,13.3419355 216.048387,13.3419355 Z M128.146237,1.29892473 L134.123656,1.29892473 L134.123656,13.3182796 L134.233333,13.3182796 C135.902151,10.6817204 138.947312,8.97956989 142.741935,8.97956989 C148.602151,8.97956989 153.544086,13.9655914 153.544086,21.0010753 L153.544086,38.1193548 L147.566667,38.1193548 L147.566667,22.3505376 C147.566667,17.1892473 144.923656,15.0795699 140.954839,15.0795699 C137.107527,15.0795699 134.123656,17.6010753 134.123656,22.2344086 L134.123656,38.1215054 L128.146237,38.1215054 L128.146237,1.29892473 Z M104.409677,29.6774194 C106.539785,32.0236559 110.046237,33.8397849 113.147312,33.8397849 C116.598925,33.8397849 118.663441,31.8473118 118.663441,30.2645161 C118.663441,28.388172 117.226882,27.3935484 115.044086,26.9817204 L111.654839,26.3365591 C103.84086,24.872043 101.652688,22.288172 101.652688,18.2430108 C101.652688,13.4397849 105.621505,8.98064516 112.570968,8.98064516 C116.422581,8.98064516 119.811828,10.1526882 123.606452,12.9096774 L120.217204,17.1892473 C117.288172,14.6666667 114.701075,14.0225806 112.746237,14.0225806 C110.15914,14.0225806 107.630108,15.3129032 107.630108,17.6010753 C107.630108,19.3 108.952688,20.1784946 111.251613,20.5903226 L117.288172,21.7623656 C122.227957,22.7032258 124.637634,25.1021505 124.637634,29.3268817 C124.637634,33.4903226 121.309677,38.883871 112.86129,38.883871 C108.148387,38.883871 104.127957,37.1827957 100.334409,33.9010753 L104.409677,29.6774194 Z M90.7387097,38.1215054 L90.7387097,9.74408602 L96.7150538,9.74408602 L96.7150538,38.1204301 L90.7387097,38.1204301 L90.7387097,38.1215054 Z M93.7268817,0.53655914 C95.5634409,0.53655914 97.0602151,2.06344086 97.0602151,3.93870968 C97.0602151,5.81397849 95.5634409,7.34301075 93.7268817,7.34301075 C91.8913978,7.34301075 90.3935484,5.81397849 90.3935484,3.93870968 C90.3935484,2.06344086 91.8924731,0.53655914 93.7268817,0.53655914 Z M73.9612903,9.74408602 L79.5924731,9.74408602 L79.5924731,12.8516129 L79.7075269,12.8516129 C80.6827957,10.5032258 82.7516129,8.98064516 85.1698925,8.98064516 C86.4870968,8.98064516 87.6376344,9.33225806 88.4419355,9.85806452 L86.3172043,15.8967742 C85.7387097,15.4268817 84.6505376,15.0784946 84.0763441,15.0784946 C81.8913978,15.0784946 79.9397849,16.7795699 79.9397849,19.3591398 L79.9397849,38.1204301 L73.9612903,38.1204301 L73.9612903,9.74408602 Z M61.8354839,38.1204301 L61.8354839,34.6623656 L61.7193548,34.6623656 C59.8215054,37.2430108 56.3763441,38.8827957 52.583871,38.8827957 C43.4505376,38.8827957 38.1645161,31.2612903 38.1645161,23.9354839 C38.1645161,16.9537634 43.8526882,8.97956989 52.8731183,8.97956989 C57.0075269,8.97956989 60.1698925,10.7946237 61.7193548,13.2032258 L61.8354839,13.2032258 L61.8354839,9.74408602 L67.811828,9.74408602 L67.811828,38.1204301 L61.8354839,38.1204301 Z M44.4806452,23.9354839 C44.4806452,29.0301075 48.5075269,33.1354839 53.3301075,33.1354839 C58.0451613,33.1354839 62.0666667,29.0301075 62.0666667,23.9354839 C62.0666667,18.8268817 58.0451613,14.7247312 53.3301075,14.7247312 C48.5075269,14.7247312 44.4806452,18.8268817 44.4806452,23.9354839 Z M13.5129032,7.57741935 L13.5129032,19.5612903 L23.5129032,19.5612903 C28.2247312,19.5612903 30.3494624,16.7602151 30.3494624,13.5677419 C30.3494624,10.3709677 28.2247312,7.57741935 23.511828,7.57741935 L13.511828,7.57741935 L13.5129032,7.57741935 Z" id="Shape"></path>
        </g>
    </g>
</svg>