<svg id="Layer_1" data-name="Layer 1" xmlns="http://www.w3.org/2000/svg" viewBox="0 0 469.87 100.54"><defs><style>.cls-1{fill:#f16651;}.cls-2{fill:#00bcb4;}.cls-3{fill:#a6a8aa;}</style></defs><title>Protect My Ministry</title><circle class="cls-1" cx="20.62" cy="12.04" r="12.04"/><circle class="cls-2" cx="56.86" cy="25.38" r="7.71"/><path class="cls-2" d="M38.42,100.43,62.66,77.49C68.57,71.89,73.19,66.6,73.19,58c0-11.85-8.69-21.45-19.42-21.45a18.8,18.8,0,0,0-15.36,8.32l-6.88,34.7Z"/><path class="cls-1" d="M72.57,57.52C67.57,60.67,61,66,43.15,66.19c-5.46,0-7.83,6-7.83,10.79,0,.06,0,.12,0,.19,0,.35,0,.76.07,1.22.53,6.19,3.82,21.55,3.92,22h0L13.42,75.92c-3.22-3-6.9-5.75-9.39-9.48a25.54,25.54,0,0,1-4-14C0,39,9.83,28.17,22,28.17a21.26,21.26,0,0,1,17.36,9.41C43.77,43.34,52.76,53,64.09,49.65s11.53-2,12.45-.47S77.58,54.38,72.57,57.52Z"/><path class="cls-1" d="M35.39,78.39c0-.46-.06-.87-.07-1.22Q35.35,77.78,35.39,78.39Z"/><path class="cls-2" d="M131.47,27.31q5.15,4.47,5.15,12.53,0,8.43-5.19,13.07t-14.55,4.65H104.36v15.7H97.44V22.85h19.45Q126.32,22.85,131.47,27.31Zm-4.93,21.14Q130,45.61,130,40.06t-3.46-8.17q-3.46-2.77-9.94-2.77l-12.24.07V51.3H116.6Q123.08,51.3,126.54,48.45Z"/><path class="cls-2" d="M185.53,73.26l-10-15.85q-1.73.15-2.81.14H159.89v15.7H153V22.85h19.73q9.58,0,14.8,4.43t5.22,12.57a17.87,17.87,0,0,1-2.84,10.3,15.93,15.93,0,0,1-8.17,6l11.74,17.07Zm-12.82-22q6.48,0,9.94-2.84t3.46-8.39q0-5.4-3.46-8.17t-9.94-2.77H159.89V51.3Z"/><path class="cls-2" d="M247.65,25.8a25.45,25.45,0,0,1,9.61,9.25A24.63,24.63,0,0,1,260.79,48a25,25,0,0,1-3.53,13,25.54,25.54,0,0,1-9.61,9.36,27.8,27.8,0,0,1-26.72,0A25.52,25.52,0,0,1,211.31,61a25,25,0,0,1-3.53-13,24.62,24.62,0,0,1,3.53-12.93,25.51,25.51,0,0,1,9.58-9.25,28.13,28.13,0,0,1,26.76,0Zm-23,5.4a19.7,19.7,0,0,0-7.17,7,19.27,19.27,0,0,0,0,19.55,19.88,19.88,0,0,0,7.17,7.09,19,19,0,0,0,9.76,2.63A18.63,18.63,0,0,0,244,64.87a19.79,19.79,0,0,0,7.06-7.09,19.5,19.5,0,0,0,0-19.55,19.6,19.6,0,0,0-7.06-7,18.84,18.84,0,0,0-9.69-2.59A19.22,19.22,0,0,0,224.6,31.2Z"/><path class="cls-2" d="M270.66,22.85h39.4v6.34H293.78V73.26h-6.91V29.18H270.66Z"/><path class="cls-2" d="M325.18,22.85h35v6.27H332.09V44.67h25.14v6.27H332.09V67h29v6.27H325.18Z"/><path class="cls-2" d="M409.23,30.23a19.41,19.41,0,0,0-24.7,7.92,19.38,19.38,0,0,0,16.85,29.13,19.74,19.74,0,0,0,7.78-1.62,22.5,22.5,0,0,0,6.77-4.43l4.18,4.54a28.1,28.1,0,0,1-8.86,5.87,26.47,26.47,0,0,1-23.41-1.3A25.45,25.45,0,0,1,374.95,48a24.81,24.81,0,0,1,3.49-12.93A25.25,25.25,0,0,1,388,25.8a26.82,26.82,0,0,1,13.32-3.39,27.13,27.13,0,0,1,10.19,2A25.22,25.22,0,0,1,420,30l-4.11,5A20.82,20.82,0,0,0,409.23,30.23Z"/><path class="cls-2" d="M430.48,22.85h39.4v6.34H453.59V73.26h-6.91V29.18H430.48Z"/><path class="cls-3" d="M97.87,84.65h1.94L106,96.48l6.11-11.83H114v15.78h-1.44l0-13.61-6.17,11.92h-.86l-6.2-11.92v13.61H97.87Z"/><path class="cls-3" d="M151.73,84.68l-6.06,10.14v5.61h-1.55V94.82L138,84.68h1.62l5.32,8.47,5.21-8.47Z"/><path class="cls-3" d="M203.23,84.65h1.94l6.17,11.83,6.11-11.83h1.94v15.78h-1.44l0-13.61-6.17,11.92h-.86l-6.2-11.92v13.61h-1.46Z"/><path class="cls-3" d="M245.68,84.68h1.56v15.75h-1.56Z"/><path class="cls-3" d="M285,84.68h1.53v15.75h-1.65l-9.76-13.34v13.34h-1.56V84.68h1.65L285,98Z"/><path class="cls-3" d="M312.82,84.68h1.56v15.75h-1.56Z"/><path class="cls-3" d="M347.3,86.31a7.93,7.93,0,0,0-2.16-.33,4.69,4.69,0,0,0-2.6.64,2,2,0,0,0-1,1.75,2.29,2.29,0,0,0,.54,1.58,3.82,3.82,0,0,0,1.33,1,20.89,20.89,0,0,0,2.16.78,18.66,18.66,0,0,1,2.58.94A4.57,4.57,0,0,1,349.83,94a4.06,4.06,0,0,1,0,4.55,4.54,4.54,0,0,1-2,1.5,7.69,7.69,0,0,1-3,.53,8.26,8.26,0,0,1-3.21-.65A8.65,8.65,0,0,1,339,98.15l.72-1.28a7.77,7.77,0,0,0,2.46,1.62,7.07,7.07,0,0,0,2.75.59,5,5,0,0,0,2.86-.73,2.28,2.28,0,0,0,1.06-2,2.41,2.41,0,0,0-.54-1.62,3.59,3.59,0,0,0-1.33-1q-.79-.34-2.21-.79a22.54,22.54,0,0,1-2.57-.94,4.33,4.33,0,0,1-1.65-1.31,3.58,3.58,0,0,1-.68-2.26,3.4,3.4,0,0,1,.68-2.1A4.27,4.27,0,0,1,342.41,85a7.58,7.58,0,0,1,2.82-.48,9.5,9.5,0,0,1,4.87,1.4l-.68,1.33A8.15,8.15,0,0,0,347.3,86.31Z"/><path class="cls-3" d="M373.49,84.65h12v1.42h-5.21v14.36h-1.56V86.07h-5.21Z"/><path class="cls-3" d="M419.91,100.43l-3.4-5.14q-.72,0-1.1,0h-4.33v5.09h-1.56V84.68h5.88A6.87,6.87,0,0,1,420,86a4.79,4.79,0,0,1,1.61,3.87,5.42,5.42,0,0,1-.95,3.27,4.94,4.94,0,0,1-2.7,1.83l3.79,5.43Zm-4.51-6.49a5.24,5.24,0,0,0,3.47-1,3.66,3.66,0,0,0,1.22-3,3.51,3.51,0,0,0-1.22-2.88,5.37,5.37,0,0,0-3.47-1h-4.33v7.87Z"/><path class="cls-3" d="M458.36,84.68l-6.06,10.14v5.61h-1.56V94.82l-6.15-10.14h1.62l5.32,8.47,5.21-8.47Z"/></svg>