<?xml version="1.0" standalone="no"?><!DOCTYPE svg PUBLIC "-//W3C//DTD SVG 1.1//EN" "http://www.w3.org/Graphics/SVG/1.1/DTD/svg11.dtd"><svg width="100%" height="100%" viewBox="0 0 500 150" version="1.1" xmlns="http://www.w3.org/2000/svg" xmlns:xlink="http://www.w3.org/1999/xlink" xml:space="preserve" style="fill-rule:evenodd;clip-rule:evenodd;stroke-linejoin:round;stroke-miterlimit:1.41421;"><g id="The_Rocket_Company"><path d="M120.2,64.93l0,-0.2c0,-5.6 -1.8,-10.2 -5.1,-13.5c-3.9,-3.9 -9.7,-6 -17.2,-6l-27,0l0,59.1l13,-0.001l0,-18.899l10.2,0l12.7,18.9l15.2,-0.001l-14.4,-21.099c7.5,-2.8 12.6,-8.8 12.6,-18.3ZM107,65.63c0,5 -3.6,8.4 -10,8.4l-13.1,0l0,-17l12.9,0c6.3,0 10.2,2.9 10.2,8.4l0,0.2ZM160.8,44.23c-18.2,0 -31.5,13.8 -31.5,30.6l0,0.2c0,16.799 13.1,30.399 31.3,30.399c18.2,0 31.5,-13.8 31.5,-30.6l0,-0.2c0.1,-16.799 -13,-30.399 -31.3,-30.399ZM167.3,89.73c-2,1.9 -6.4,5.7 -11.2,8c0.1,0.1 4.7,-5.5 3.8,-11.6c-2.6,1.5 -4.5,2.2 -4.5,2.2c0,0 -7,-5.3 -6.9,-5.5c0.3,-1.7 0.7,-3.3 1.1,-4.9c-6.2,0.6 -10.5,6.4 -10.4,6.4c1.1,-5.1 3.7,-10.4 5.1,-12.8c2.4,-3.4 6.5,-4.4 10.1,-4.5c8.1,-12 20.1,-10.3 20.1,-10.3c2.8,9.6 -0.6,16.8 -5.3,21.9c0.8,3.799 0.8,7.999 -1.9,11.099ZM318.8,45.23l-15.7,0l-24,25.8l0,-25.8l-13,0l0,59.1l13,-0.001l0,-17.999l6.8,-7.1l18.3,25.2l15.7,-0.001l-25.2,-34l24.1,-25.2ZM380.1,45.23l0,12l18,0l0,47.1l13,-0.001l0,-47.099l18,0l0,-12l-49,0ZM340.7,80.33l27.9,0l0,-11.5l-27.9,0l0,-12l31.7,0l0,-11.6l-44.6,0l0,59.1l45,0l0,-11.5l-32.1,0l0,-12.5l0,0ZM231.9,93.43c-10.1,0 -17.1,-8.4 -17.1,-18.6l0,-0.201c0,-10.1 7.2,-18.4 17.1,-18.4c5.9,0 10.6,2.5 15.1,6.7l8.3,-9.5c-5.5,-5.4 -12.2,-9.1 -23.3,-9.1c-18.2,0 -30.8,13.8 -30.8,30.6l0,0.2c0,17 12.9,30.4 30.3,30.4c11.4,0 18.2,-4.1 24.2,-10.6l-8.3,-8.4c-4.6,4.1 -8.8,6.9 -15.5,6.9Z" style="fill:#1caed1;fill-rule:nonzero;"/><g><path d="M216.1,4.93l-7.8,0l0,-5.2l21.3,0l0,5.2l-7.8,0l0,20.5l-5.7,0l0,-20.5Z" style="fill:#1caed1;fill-rule:nonzero;"/><path d="M239.1,-0.27l5.7,0l0,10.2l10.4,0l0,-10.2l5.7,0l0,25.7l-5.7,0l0,-10.3l-10.4,0l0,10.3l-5.7,0l0,-25.7Z" style="fill:#1caed1;fill-rule:nonzero;"/><path d="M272.1,-0.27l19.4,0l0,5l-13.8,0l0,5.2l12.2,0l0,5l-12.1,0l0,5.4l14,0l0,5l-19.6,0l0,-25.6l-0.1,0Z" style="fill:#1caed1;fill-rule:nonzero;"/></g><g><path d="M137.8,136.53c0,-7.4 5.5,-13.4 13.4,-13.4c4.9,0 7.8,1.6 10.1,4l-3.6,4.2c-2,-1.8 -4,-2.9 -6.6,-2.9c-4.3,0 -7.5,3.6 -7.5,8l0,0.1c0,4.4 3,8.1 7.5,8.1c2.9,0 4.7,-1.2 6.8,-3l3.6,3.6c-2.6,2.8 -5.6,4.6 -10.5,4.6c-7.6,-0.1 -13.2,-5.9 -13.2,-13.3Z" style="fill:#1caed1;fill-rule:nonzero;"/><path d="M169.3,136.53c0,-7.4 5.8,-13.4 13.7,-13.4c7.9,0 13.6,5.9 13.6,13.2l0,0.1c0,7.3 -5.8,13.3 -13.7,13.3c-7.9,0 -13.6,-5.9 -13.6,-13.2ZM190.8,136.53c0,-4.5 -3.2,-8.2 -7.8,-8.2c-4.6,0 -7.7,3.6 -7.7,8l0,0.1c0,4.4 3.2,8.1 7.8,8.1c4.5,0 7.7,-3.6 7.7,-8Z" style="fill:#1caed1;fill-rule:nonzero;"/><path d="M206.9,123.53l6.1,0l6.8,10.9l6.8,-10.901l6.1,0l0,25.7l-5.6,0l0,-16.8l-7.2,11l-0.1,0l-7.2,-10.9l0,16.7l-5.7,0l0,-25.699Z" style="fill:#1caed1;fill-rule:nonzero;"/><path d="M243.9,123.53l10.5,0c6.1,0 9.9,3.6 9.9,8.9l0,0.099c0,6 -4.6,9 -10.4,9l-4.3,0l0,7.7l-5.7,0l0,-25.699ZM254.1,136.53c2.8,0 4.5,-1.7 4.5,-3.9l0,-0.1c0,-2.5 -1.8,-3.9 -4.6,-3.9l-4.4,0l0,7.9l4.5,0Z" style="fill:#1caed1;fill-rule:nonzero;"/><path d="M279.8,123.33l5.2,0l11,25.9l-5.9,0l-2.4,-5.8l-10.8,0l-2.4,5.8l-5.8,0l11.1,-25.9ZM285.8,138.53l-3.4,-8.3l-3.4,8.3l6.8,0Z" style="fill:#1caed1;fill-rule:nonzero;"/><path d="M305.2,123.53l5.2,0l12.1,15.799l0,-15.799l5.6,0l0,25.7l-4.8,0l-12.5,-16.4l0,16.4l-5.6,0l0,-25.7l0,0Z" style="fill:#1caed1;fill-rule:nonzero;"/><path d="M346.6,139.13l-9.9,-15.6l6.6,0l6.1,10.3l6.2,-10.3l6.4,0l-9.9,15.5l0,10.3l-5.7,0l0,-10.201l0.2,0Z" style="fill:#1caed1;fill-rule:nonzero;"/></g></g></svg>