<?xml version="1.0" encoding="UTF-8"?>
<svg width="300px" height="90px" viewBox="0 0 300 90" version="1.1" xmlns="http://www.w3.org/2000/svg" xmlns:xlink="http://www.w3.org/1999/xlink">
    <!-- Generator: Sketch 52.1 (67048) - http://www.bohemiancoding.com/sketch -->
    <title>secure-search-faith-color</title>
    <desc>Created with Sketch.</desc>
    <g id="secure-search-faith" stroke="none" stroke-width="1" fill="none" fill-rule="evenodd">
        <g>
            <g id="type" transform="translate(0.000000, 8.000000)">
                <path d="M160.180563,80.4873239 L160.180563,71.163662 L162.012676,71.163662 L162.012676,78.4059155 L166.070704,78.4059155 L166.070704,71.308169 L167.901972,71.308169 L167.901972,78.4059155 L174.062535,78.4059155 L174.062535,80.4873239 L160.180563,80.4873239 Z M169.337746,62.9614085 L169.337746,57.3628169 L161.991549,60.171831 L169.337746,62.9614085 Z M171.190986,56.7585915 L171.190986,63.5647887 L174.062535,64.6878873 L174.062535,66.9780282 L160.180563,61.4622535 L160.180563,58.8602817 L174.062535,53.3453521 L174.062535,55.6346479 L171.190986,56.7585915 Z M160.180563,47.4788732 L160.180563,45.3974648 L174.062535,45.3974648 L174.062535,47.4788732 L160.180563,47.4788732 Z M162.012676,34.9980282 L162.012676,39.3061972 L160.180563,39.3061972 L160.180563,28.6295775 L162.012676,28.6295775 L162.012676,32.9166197 L174.062535,32.9166197 L174.062535,34.9980282 L162.012676,34.9980282 Z M167.860563,12.7684507 L167.860563,20.4476056 L174.062535,20.4476056 L174.062535,22.5290141 L160.180563,22.5290141 L160.180563,20.4476056 L166.009014,20.4476056 L166.009014,12.7684507 L160.180563,12.7684507 L160.180563,10.6870423 L174.062535,10.6870423 L174.062535,12.7684507 L167.860563,12.7684507 Z" id="Faith" fill="#343534"></path>
                <path d="M19.908169,53.9749296 L19.1552113,49.7090141 C19.0047887,49.0059155 18.8543662,48.8056338 18.6033803,48.6552113 C17.9002817,48.2529577 16.4450704,47.8016901 13.835493,47.8016901 C8.66619718,47.8016901 6.1571831,50.0605634 6.1571831,53.6233803 C6.1571831,57.7887324 9.77070423,58.9929577 13.7856338,60.2478873 C18.803662,61.803662 24.4749296,63.4591549 24.4749296,70.9878873 C24.4749296,78.7667606 18.3523944,81.5774648 11.1752113,81.5774648 C6.6084507,81.5774648 2.19211268,80.4230986 0.636338028,79.6701408 L0.636338028,71.44 L3.99887324,71.44 L4.95211268,75.855493 C5.10338028,76.5087324 5.25295775,76.7090141 5.95605634,76.96 C6.70901408,77.2109859 8.66619718,77.8135211 11.5766197,77.8135211 C16.6960563,77.8135211 19.7569014,75.855493 19.7569014,71.4890141 C19.7569014,67.0735211 16.2946479,65.7687324 12.3794366,64.6143662 C7.31070423,63.1084507 1.43915493,61.803662 1.43915493,54.2259155 C1.43915493,47.0495775 7.06056338,43.9870423 14.0357746,43.9870423 C18.251831,43.9870423 21.6642254,45.0915493 23.3704225,45.7439437 L23.3704225,54.2757746 L19.908169,53.9749296 Z M44.9932394,65.7180282 C44.8935211,59.9969014 42.2839437,58.3405634 39.2222535,58.3405634 C35.8597183,58.3405634 33.0490141,60.148169 32.6476056,65.7180282 L44.9932394,65.7180282 Z M48.9583099,79.3185915 C46.4484507,80.7239437 43.4374648,81.5774648 39.8247887,81.5774648 C30.7402817,81.5774648 27.78,75.6053521 27.78,68.1273239 C27.78,58.9430986 32.8985915,54.6771831 39.2222535,54.6771831 C45.3447887,54.6771831 49.5608451,57.9898592 49.5608451,66.6712676 C49.5608451,67.324507 49.5101408,68.3276056 49.4602817,69.1811268 L32.5977465,69.1811268 C32.748169,74.2498592 34.8059155,77.7129577 40.2760563,77.7129577 C43.0867606,77.7129577 44.8428169,77.2109859 47.5030986,75.9061972 L48.9583099,79.3185915 Z M67.835493,69.4321127 L62.1650704,69.9340845 C57.8492958,70.335493 56.6442254,71.5904225 56.6442254,74.1991549 C56.6442254,76.9092958 57.7985915,78.0138028 60.1571831,78.0138028 C63.1183099,78.0138028 66.2797183,75.6053521 67.835493,74.1501408 L67.835493,69.4321127 Z M68.6890141,80.9749296 L68.2377465,77.7129577 L68.0864789,77.6622535 C65.6780282,79.9211268 62.8673239,81.5774648 59.0028169,81.5774648 C52.7298592,81.5774648 51.9270423,77.2608451 51.9270423,74.7011268 C51.9270423,69.6830986 55.0377465,67.324507 61.0605634,66.8225352 L67.835493,66.2707042 L67.835493,63.6104225 C67.835493,59.9470423 67.1332394,58.1402817 62.7667606,58.1402817 C59.7059155,58.1402817 57.4977465,58.2408451 57.4470423,62.0047887 L53.1312676,61.5535211 C53.1312676,55.3794366 58.8523944,54.6771831 62.8174648,54.6771831 C69.9439437,54.6771831 72.3523944,56.6850704 72.3523944,63.6104225 L72.3523944,76.9092958 C72.3523944,77.7129577 72.4030986,77.8135211 73.1552113,77.9132394 L75.7149296,78.2647887 L75.7149296,80.9749296 L68.6890141,80.9749296 Z M78.1157746,80.9749296 L78.1157746,78.2140845 L80.6256338,77.9132394 C81.3278873,77.8135211 81.4284507,77.6622535 81.4284507,76.9092958 L81.4284507,59.8464789 C81.4284507,59.2946479 81.2780282,58.9430986 80.7760563,58.7926761 L77.915493,57.8394366 L78.3667606,55.1791549 L84.9414085,55.1791549 L85.4433803,58.6422535 L85.5938028,58.6921127 C87.2501408,56.835493 89.7092958,54.6771831 93.1216901,54.6771831 C94.2760563,54.6771831 95.831831,54.8783099 96.7352113,55.1284507 L96.7352113,62.7070423 L93.1715493,62.5566197 L92.5698592,59.0935211 C92.5191549,58.6921127 92.4185915,58.5915493 91.9673239,58.5915493 C89.7092958,58.5915493 87.1495775,60.6492958 85.9952113,61.7538028 L85.9952113,76.8594366 C85.9952113,77.6622535 86.0450704,77.8135211 86.7980282,77.8633803 L91.415493,78.2647887 L91.415493,80.9749296 L78.1157746,80.9749296 Z M119.573239,79.4698592 C117.665915,80.7239437 114.30338,81.5774648 110.990704,81.5774648 C102.409859,81.5774648 98.7456338,76.3076056 98.7456338,68.3783099 C98.7456338,58.8425352 104.266479,54.6771831 111.89493,54.6771831 C115.55831,54.6771831 118.418873,55.6811268 119.52338,56.2329577 L119.52338,62.908169 L116.160845,62.7569014 L115.55831,59.4450704 C115.508451,59.0935211 115.407887,58.8932394 114.955775,58.7419718 C114.253521,58.4909859 112.948732,58.2907042 111.54338,58.2907042 C107.077183,58.2907042 103.513521,60.9002817 103.513521,68.0766197 C103.513521,75.1033803 106.826197,77.8135211 111.693803,77.8135211 C114.202817,77.8135211 116.712676,77.0107042 118.117183,76.1571831 L119.573239,79.4698592 Z M138.917746,80.9749296 L138.917746,78.2140845 L141.327042,77.9132394 C141.978592,77.8633803 142.230423,77.6123944 142.230423,76.9092958 L142.230423,65.2169014 C142.230423,61.5028169 141.578028,58.5416901 138.014366,58.5416901 C135.00338,58.5416901 132.042254,60.2478873 130.08507,61.803662 L130.08507,76.9092958 C130.08507,77.7129577 130.13493,77.8135211 130.887887,77.9132394 L133.698592,78.2647887 L133.698592,80.9749296 L122.205634,80.9749296 L122.205634,78.2140845 L124.715493,77.9132394 C125.417746,77.8135211 125.51831,77.6622535 125.51831,76.9092958 L125.51831,47.7509859 C125.51831,47.1991549 125.367887,46.8484507 124.86507,46.6980282 L121.854085,45.7439437 L122.306197,43.084507 L130.035211,43.084507 L130.035211,57.9898592 C132.343099,56.3335211 135.254366,54.6771831 139.068169,54.6771831 C144.437746,54.6771831 146.797183,58.1402817 146.797183,63.8107042 L146.797183,76.9092958 C146.797183,77.7129577 146.847042,77.8135211 147.6,77.9132394 L150.459718,78.2647887 L150.459718,80.9749296 L138.917746,80.9749296 Z" id="Search" fill="#DF542F"></path>
                <path d="M18.0701408,10.9507042 L17.4904225,7.0371831 C17.3940845,6.45746479 17.2495775,6.26394366 16.9107042,6.11943662 C16.1383099,5.87774648 14.9780282,5.58788732 13.3833803,5.58788732 C9.75971831,5.58788732 7.97239437,7.23070423 7.97239437,9.69492958 C7.97239437,12.8833803 11.2580282,13.7529577 14.9298592,14.8650704 C19.5202817,16.2653521 24.6414085,18.0053521 24.6414085,25.2526761 C24.6414085,33.1769014 18.4571831,36.2690141 11.064507,36.2690141 C6.71577465,36.2690141 1.83633803,35.1577465 -6.57252031e-14,34.2873239 L-6.57252031e-14,24.8664789 L5.41183099,24.8664789 L6.37774648,29.4560563 C6.47492958,30.0357746 6.57126761,30.1811268 7.19915493,30.3256338 C7.77887324,30.4709859 9.42169014,30.8571831 11.2580282,30.8571831 C15.1715493,30.8571831 17.3459155,29.3115493 17.3459155,26.3639437 C17.3459155,23.271831 14.591831,22.3050704 11.3543662,21.3873239 C6.57126761,20.0343662 0.676901408,18.7295775 0.676901408,10.9507042 C0.676901408,3.50985915 6.28140845,0.0797183099 13.6259155,0.0797183099 C17.7811268,0.0797183099 21.3557746,1.09464789 23.5301408,2.01239437 L23.5301408,11.4340845 L18.0701408,10.9507042 Z M41.9890141,20.3723944 C41.94,16.3135211 40.3453521,15.2512676 38.364507,15.2512676 C36.2864789,15.2512676 34.596338,16.4107042 34.3064789,20.3723944 L41.9890141,20.3723944 Z M48.9464789,33.8047887 C45.9507042,35.2540845 42.6650704,36.2690141 39.0414085,36.2690141 C29.7160563,36.2690141 26.5276056,30.4709859 26.5276056,22.9329577 C26.5276056,14.188169 31.8904225,10.0329577 38.5098592,10.0329577 C44.8876056,10.0329577 49.1391549,13.3667606 49.1391549,21.7253521 C49.1391549,22.3050704 49.0909859,23.9960563 49.0428169,24.9628169 L34.2583099,24.9628169 C34.4991549,28.3929577 35.9974648,30.663662 39.9591549,30.663662 C41.843662,30.663662 43.8726761,30.2292958 47.1583099,29.0216901 L48.9464789,33.8047887 Z M72.6084507,33.9011268 C70.3859155,35.2540845 66.9557746,36.2690141 63.4284507,36.2690141 C54.6828169,36.2690141 50.7692958,30.8090141 50.7692958,23.464507 C50.7692958,14.4298592 56.2774648,10.0329577 64.008169,10.0329577 C67.7771831,10.0329577 71.1101408,11.0960563 72.6084507,12.0619718 L72.6084507,19.648169 L67.4383099,19.4064789 L66.8585915,16.2171831 C66.8104225,15.8791549 66.7132394,15.5892958 66.2788732,15.4447887 C65.6991549,15.2512676 64.7814085,15.1059155 63.8146479,15.1059155 C60.9160563,15.1059155 58.451831,17.0867606 58.451831,22.7402817 C58.451831,29.0216901 61.2540845,30.8090141 64.6850704,30.8090141 C67.1002817,30.8090141 69.2746479,30.0357746 70.7239437,29.4078873 L72.6084507,33.9011268 Z M93.4292958,35.6892958 L93.0430986,33.0797183 L92.8014085,33.0315493 C90.8205634,34.5298592 88.308169,36.2690141 84.2011268,36.2690141 C79.128169,36.2690141 77.195493,33.3695775 77.195493,27.7650704 L77.195493,15.975493 C77.195493,15.2022535 77.1473239,15.1059155 76.4222535,14.9614085 L74.1033803,14.4780282 L74.5859155,10.516338 L84.4909859,10.516338 L84.4909859,26.5084507 C84.4909859,29.4560563 84.9743662,30.5673239 87.0515493,30.5673239 C89.1777465,30.5673239 90.9169014,29.3597183 92.028169,28.3447887 L92.028169,15.9273239 C92.028169,15.1540845 91.98,15.1059155 91.2549296,14.9614085 L89.1777465,14.4780282 L89.7092958,10.516338 L99.324507,10.516338 L99.324507,30.5673239 C99.324507,31.1952113 99.3726761,31.4369014 100.000563,31.4859155 L102.41662,31.8239437 L102.41662,35.6892958 L93.4292958,35.6892958 Z M103.761127,35.6892958 L103.761127,31.7749296 L105.935493,31.4859155 C106.611549,31.3887324 106.708732,31.2433803 106.708732,30.5191549 L106.708732,16.3625352 C106.708732,15.8309859 106.56338,15.4929577 106.08,15.3476056 L103.471268,14.4298592 L104.002817,10.516338 L112.505915,10.516338 L113.086479,14.3816901 L113.376338,14.3816901 C114.970141,11.9174648 117.096338,10.0329577 120.188451,10.0329577 C121.299718,10.0329577 123.522254,10.2264789 124.391831,10.4673239 L124.391831,19.2611268 L118.593803,19.0684507 L118.111268,16.5070423 C118.014085,16.0726761 117.869577,15.975493 117.48338,15.975493 C116.226761,15.975493 114.729296,17.0385915 114.004225,17.6664789 L114.004225,30.4709859 C114.004225,31.2433803 114.052394,31.3887324 114.777465,31.4369014 L119.560563,31.8239437 L119.560563,35.6892958 L103.761127,35.6892958 Z M141.130141,20.3723944 C141.081972,16.3135211 139.487324,15.2512676 137.506479,15.2512676 C135.428451,15.2512676 133.737465,16.4107042 133.448451,20.3723944 L141.130141,20.3723944 Z M148.087606,33.8047887 C145.091831,35.2540845 141.806197,36.2690141 138.182535,36.2690141 C128.858028,36.2690141 125.669577,30.4709859 125.669577,22.9329577 C125.669577,14.188169 131.032394,10.0329577 137.650986,10.0329577 C144.028732,10.0329577 148.280282,13.3667606 148.280282,21.7253521 C148.280282,22.3050704 148.232958,23.9960563 148.184789,24.9628169 L133.399437,24.9628169 C133.641127,28.3929577 135.139437,30.663662 139.101127,30.663662 C140.985634,30.663662 143.014648,30.2292958 146.300282,29.0216901 L148.087606,33.8047887 Z" id="Secure" fill="#286AA6"></path>
            </g>
            <g id="icon" transform="translate(195.211268, 0.000000)">
                <path d="M6.40985915,82.3267606 L57.3447887,82.3267606 L57.3447887,31.3909859 L6.40985915,31.3909859 L6.40985915,82.3267606 Z M0.809577465,87.9261972 L62.9450704,87.9261972 L62.9450704,25.7915493 L0.809577465,25.7915493 L0.809577465,87.9261972 Z" id="Fill-18" fill="#3B3C39"></path>
                <path d="M36.3861972,78.4107042 L18.8273239,60.851831 C16.0715493,58.0960563 16.0715493,53.628169 18.8273239,50.8723944 C21.5822535,48.1157746 26.051831,48.1157746 28.8059155,50.8723944 L36.3861972,58.451831 L92.5647887,2.27408451 C95.3188732,-0.481690141 99.7892958,-0.481690141 102.54338,2.27408451 C105.299155,5.02985915 105.299155,9.49774648 102.54338,12.2535211 L36.3861972,78.4107042" id="Fill-20" fill="#DF542F"></path>
            </g>
        </g>
    </g>
</svg>