<?xml version="1.0" standalone="no"?><!DOCTYPE svg PUBLIC "-//W3C//DTD SVG 1.1//EN" "http://www.w3.org/Graphics/SVG/1.1/DTD/svg11.dtd"><svg width="100%" height="100%" viewBox="0 0 500 150" version="1.1" xmlns="http://www.w3.org/2000/svg" xmlns:xlink="http://www.w3.org/1999/xlink" xml:space="preserve" style="fill-rule:evenodd;clip-rule:evenodd;stroke-linejoin:round;stroke-miterlimit:1.41421;"><g id="ShelbySystems"><path d="M49.176,63.744c-0.2,-5.5 -4.4,-8 -9.5,-8c-4,0 -8.6,1.6 -8.6,6.3c0,4 4.5,5.4 7.5,6.1l5.9,1.3c5.1,0.8 10.4,3.7 10.4,10.1c0,7.9 -7.8,10.9 -14.6,10.9c-8.5,0 -14.3,-4 -15,-12.8l4.4,0c0.4,6 4.8,9.1 10.7,9.1c4.2,0 9.9,-1.8 9.9,-6.9c0,-4.2 -4,-5.6 -8,-6.6l-5.7,-1.3c-5.8,-1.6 -10.2,-3.5 -10.2,-9.7c0,-7.4 7.3,-10.2 13.7,-10.2c7.3,0 13.1,3.8 13.3,11.7l-4.2,0l0,0Z" style="fill:#228fce;fill-rule:nonzero;"/><path d="M58.776,39.144l4.4,0l0,20.2l0.1,0c1.6,-4.4 6.5,-7.3 11.6,-7.3c10.2,0 13.3,5.4 13.3,14l0,23.4l-4.4,0l0,-22.6c0,-6.3 -2,-11 -9.2,-11c-7.1,0 -11.3,5.4 -11.4,12.5l0,21.2l-4.4,0l0,-50.4l0,0Z" style="fill:#228fce;fill-rule:nonzero;"/><path d="M96.576,72.544c0.1,6.5 3.5,14.3 12,14.3c6.5,0 10,-3.8 11.4,-9.3l4.4,0c-1.9,8.3 -6.7,13.1 -15.9,13.1c-11.6,0 -16.4,-8.9 -16.4,-19.3c0,-9.6 4.9,-19.3 16.4,-19.3c11.7,0 16.4,10.2 16,20.5l-27.9,0l0,0ZM120.176,68.744c-0.2,-6.7 -4.4,-13 -11.6,-13c-7.3,0 -11.3,6.3 -12,13l23.6,0Z" style="fill:#228fce;fill-rule:nonzero;"/><rect x="128.376" y="39.144" width="4.4" height="50.4" style="fill:#228fce;fill-rule:nonzero;"/><path d="M138.376,39.144l4.4,0l0,20.9l0.1,0c1.9,-5.2 7.2,-8 12.6,-8c11.1,0 16.4,9 16.4,19.3c0,10.3 -5.3,19.3 -16.4,19.3c-5.9,0 -10.9,-3 -13,-8l-0.1,0l0,6.9l-4,0l0,-50.4ZM155.576,55.744c-9.5,0 -12.8,8 -12.8,15.5c0,7.5 3.3,15.5 12.8,15.5c8.5,0 11.9,-8 11.9,-15.5c0,-7.5 -3.4,-15.5 -11.9,-15.5Z" style="fill:#228fce;fill-rule:nonzero;"/><path d="M170.776,53.144l4.7,0l12,31l11.2,-31l4.4,0l-15.8,42c-2.5,6.1 -4,7.9 -9.6,7.9c-1.8,-0.1 -2.7,-0.1 -3.4,-0.4l0,-3.7c1.1,0.2 2,0.4 3,0.4c4,0 4.9,-2.3 6.3,-5.7l1.6,-4.2l-14.4,-36.3Z" style="fill:#228fce;fill-rule:nonzero;"/><g><path d="M214.376,78.044c0.1,4.5 3.8,6.3 7.9,6.3c3,0 6.7,-1.2 6.7,-4.8c0,-3.1 -4.3,-4.2 -11.6,-5.8c-5.9,-1.3 -11.8,-3.4 -11.8,-9.9c0,-9.5 8.2,-12 16.2,-12c8.1,0 15.6,2.7 16.4,11.9l-9.7,0c-0.3,-4 -3.3,-5 -7,-5c-2.3,0 -5.7,0.4 -5.7,3.5c0,3.7 5.8,4.2 11.6,5.6c6,1.4 11.8,3.5 11.8,10.5c0,9.8 -8.5,13 -17,13c-8.7,0 -17.1,-3.2 -17.5,-13.1l9.7,0l0,-0.2Z" style="fill:#228fce;fill-rule:nonzero;"/><path d="M260.076,94.844c-2.2,6 -5.8,8.4 -12.8,8.4c-2.1,0 -4.2,-0.1 -6.3,-0.4l0,-8.4c1.9,0.1 4,0.4 6,0.4c3.5,-0.4 4.7,-4 3.5,-7l-13.1,-35l11,0l8.4,25.5l0.1,0l8.1,-25.5l10.6,0l-15.5,42Z" style="fill:#228fce;fill-rule:nonzero;"/><path d="M283.776,78.044c0.1,4.5 3.8,6.3 7.9,6.3c3,0 6.7,-1.2 6.7,-4.8c0,-3.1 -4.3,-4.2 -11.6,-5.8c-5.9,-1.3 -11.8,-3.4 -11.8,-9.9c0,-9.5 8.2,-12 16.2,-12c8.1,0 15.6,2.7 16.4,11.9l-9.7,0c-0.3,-4 -3.3,-5 -7,-5c-2.3,0 -5.7,0.4 -5.7,3.5c0,3.7 5.8,4.2 11.6,5.6c6,1.4 11.8,3.5 11.8,10.5c0,9.8 -8.5,13 -17,13c-8.7,0 -17.1,-3.2 -17.5,-13.1l9.7,0l0,-0.2Z" style="fill:#228fce;fill-rule:nonzero;"/><path d="M324.876,52.844l7.5,0l0,6.8l-7.5,0l0,18.5c0,3.5 0.9,4.3 4.3,4.3c1.1,0 2.1,-0.1 3.2,-0.3l0,8c-1.7,0.3 -4,0.4 -6,0.4c-6.3,0 -11.8,-1.4 -11.8,-8.9l0,-22l-6.2,0l0,-6.8l6.2,0l0,-11.1l10.2,0l0,11.1l0.1,0Z" style="fill:#228fce;fill-rule:nonzero;"/><path d="M342.476,74.044c0.3,6.5 3.5,9.4 9.2,9.4c4.1,0 7.4,-2.5 8.1,-4.8l9,0c-2.9,8.8 -9,12.5 -17.4,12.5c-11.8,0 -19,-8.1 -19,-19.6c0,-11.2 7.7,-19.7 19,-19.7c12.7,0 18.8,10.7 18.1,22.1l-27,0l0,0.1ZM359.176,67.544c-0.9,-5.2 -3.2,-7.9 -8.1,-7.9c-6.5,0 -8.4,5 -8.5,7.9l16.6,0Z" style="fill:#228fce;fill-rule:nonzero;"/><path d="M372.676,52.844l9.7,0l0,5l0.1,0c2.7,-3.8 6.6,-6.1 11.4,-6.1c4.7,0 8.9,1.7 10.9,6.2c2.2,-3.2 6.1,-6.2 11.2,-6.2c7.9,0 13.6,3.7 13.6,13.3l0,25.1l-10.2,0l0,-21.1c0,-5 -0.4,-9.1 -6.3,-9.1c-5.8,0 -6.8,4.8 -6.8,9.4l0,20.8l-10.2,0l0,-20.9c0,-4.3 0.3,-9.3 -6.2,-9.3c-2,0 -6.9,1.3 -6.9,8.6l0,21.6l-10.2,0l0,-37.3l-0.1,0Z" style="fill:#228fce;fill-rule:nonzero;"/><path d="M442.676,78.044c0.1,4.5 3.8,6.3 7.9,6.3c3,0 6.7,-1.2 6.7,-4.8c0,-3.1 -4.3,-4.2 -11.6,-5.8c-5.9,-1.3 -11.8,-3.4 -11.8,-9.9c0,-9.5 8.2,-12 16.2,-12c8.1,0 15.6,2.7 16.4,11.9l-9.7,0c-0.3,-4 -3.3,-5 -7,-5c-2.3,0 -5.7,0.4 -5.7,3.5c0,3.7 5.8,4.2 11.6,5.6c6,1.4 11.8,3.5 11.8,10.5c0,9.8 -8.5,13 -17,13c-8.7,0 -17.1,-3.2 -17.5,-13.1l9.7,0l0,-0.2Z" style="fill:#228fce;fill-rule:nonzero;"/></g><path d="M471.476,42.344c1.8,0 3.3,1.5 3.3,3.3c0,1.8 -1.5,3.3 -3.3,3.3c-1.8,0 -3.3,-1.5 -3.3,-3.3c0,-1.8 1.5,-3.3 3.3,-3.3ZM471.476,41.744c-2.2,0 -3.9,1.8 -3.9,3.9c0,2.1 1.8,3.9 3.9,3.9c2.2,0 3.9,-1.8 3.9,-3.9c0,-2.1 -1.8,-3.9 -3.9,-3.9ZM472.176,47.244l0.8,0l-0.9,-1.3c1.1,-0.3 0.8,-2 -0.3,-2l-1.7,0l0,3.3l0.7,0l0,-1.2l0.5,0l0.9,1.2ZM470.876,44.644l1,0c0.4,0 0.4,0.7 0,0.7l-1,0l0,-0.7Z" style="fill:#0e91cc;fill-rule:nonzero;"/></g></svg>