<?xml version="1.0" encoding="utf-8"?>
<!-- Generator: Adobe Illustrator 19.2.1, SVG Export Plug-In . SVG Version: 6.00 Build 0)  -->
<svg version="1.1" id="Layer_1" xmlns="http://www.w3.org/2000/svg" xmlns:xlink="http://www.w3.org/1999/xlink" x="0px" y="0px"
	 viewBox="0 0 301 90" style="enable-background:new 0 0 301 90;" xml:space="preserve">
<style type="text/css">
	.st0{fill:#41B649;}
	.st1{fill:#C0D84F;}
	.st2{fill:#6C5135;}
</style>
<g>
	<path d="M59.8,60.6c-3.1,0-5.5-1.1-7.9-3.1l0.9-1.1c2.1,2,4.1,2.9,7,2.9c2.9,0,5-1.7,5-3.9v-0.1c0-2-1.1-3.2-5.5-4.2
		c-4.7-0.9-6.5-2.5-6.5-5.5v-0.1c0-2.9,2.6-5.1,6.3-5.1c2.8,0,4.7,0.8,6.7,2.4l-0.9,1.1c-1.9-1.6-3.7-2.2-5.8-2.2
		c-2.8,0-4.8,1.7-4.8,3.7v0.1c0,2,1.1,3.3,5.7,4.2c4.5,0.9,6.4,2.5,6.4,5.4v0.1C66.2,58.5,63.6,60.6,59.8,60.6z"/>
	<path d="M70.1,42.5v-1.9h1.7v1.9H70.1z M70.2,60.4V46.2h1.4v14.2H70.2z"/>
	<path d="M96.4,60.4v-8.5c0-3-1.6-4.8-4.2-4.8c-2.4,0-4.5,1.9-4.5,5v8.3h-1.4v-8.5c0-3-1.6-4.8-4.2-4.8c-2.6,0-4.6,2.2-4.6,5.1v8.2
		h-1.4V46.2h1.4v2.5c0.9-1.5,2.2-2.8,4.8-2.8c2.4,0,4,1.4,4.8,3c0.9-1.6,2.4-3,5.1-3c3.4,0,5.5,2.4,5.5,6v8.6H96.4z"/>
	<path d="M109.3,60.7c-2.8,0-4.7-1.6-5.8-3.4v7.5h-1.4V46.2h1.4v3.2c1.3-1.9,3-3.5,5.8-3.5c3.4,0,6.9,2.8,6.9,7.4v0.1
		C116.2,57.9,112.6,60.7,109.3,60.7z M114.7,53.3c0-3.7-2.6-6.1-5.6-6.1s-5.8,2.4-5.8,6.1v0.1c0,3.6,2.8,6.1,5.8,6.1
		C112.2,59.4,114.7,57.1,114.7,53.3L114.7,53.3z"/>
	<path d="M119.9,60.4V40h1.4v20.3L119.9,60.4L119.9,60.4z"/>
	<path d="M132,59.5c2.2,0,3.7-1,4.9-2.2l0.9,0.9c-1.5,1.6-3.2,2.6-5.9,2.6c-3.7,0-6.9-3-6.9-7.4v-0.1c0-4.1,2.9-7.4,6.7-7.4
		c4,0,6.5,3.2,6.5,7.4v0.1c0,0.2,0,0.3,0,0.5h-11.8C126.7,57.3,129.2,59.5,132,59.5z M136.8,52.6c-0.2-2.8-1.9-5.5-5.1-5.5
		c-2.8,0-5,2.4-5.2,5.5H136.8z"/>
	<path d="M150.7,60.7c-5.6,0-9.7-4.4-9.7-10v-0.1c0-5.5,4.1-10,9.7-10c3.5,0,5.6,1.3,7.6,3.1l-1.1,1.1c-1.7-1.7-3.6-2.8-6.5-2.8
		c-4.7,0-8.2,3.8-8.2,8.7v0.1c0,5,3.6,8.8,8.3,8.8c2.8,0,4.8-1.1,6.7-3l1,0.9C156.3,59.3,154.1,60.7,150.7,60.7z"/>
	<path d="M172.2,60.4v-8.5c0-2.9-1.7-4.8-4.5-4.8c-2.8,0-5,2.1-5,5.1v8.2h-1.4V40h1.4v8.8c0.9-1.7,2.5-3,5.1-3
		c3.6,0,5.7,2.4,5.7,5.8v8.7L172.2,60.4L172.2,60.4z"/>
	<path d="M188.3,60.4v-2.6c-0.9,1.7-2.5,3-5.1,3c-3.6,0-5.7-2.4-5.7-5.8v-8.7h1.4v8.5c0,2.9,1.7,4.8,4.5,4.8c2.8,0,5-2.1,5-5.1v-8.2
		h1.4v14.2H188.3z"/>
	<path d="M201.6,47.5c-3.3,0-6.1,2.4-6.1,7.1v5.8h-1.4V46.2h1.4v4c1.1-2.5,3.5-4.4,6.3-4.2v1.5C201.8,47.5,201.6,47.5,201.6,47.5z"
		/>
	<path d="M210.2,60.7c-4.1,0-7.3-3.4-7.3-7.4v-0.1c0-4,3.2-7.4,7.3-7.4c2.6,0,4.4,1.3,5.7,2.6l-1,1c-1.3-1.3-2.6-2.3-4.8-2.3
		c-3.2,0-5.8,2.7-5.8,6.1v0.1c0,3.4,2.6,6.1,5.8,6.1c2,0,3.6-1.1,4.8-2.4l0.9,0.9C214.5,59.5,212.7,60.7,210.2,60.7z"/>
	<path d="M229.9,60.4v-8.5c0-2.9-1.7-4.8-4.5-4.8c-2.8,0-5,2.1-5,5.1v8.2H219V40h1.4v8.8c0.9-1.7,2.5-3,5.1-3c3.6,0,5.7,2.4,5.7,5.8
		v8.7L229.9,60.4L229.9,60.4z"/>
	<path class="st0" d="M252.2,60.7c-5.6,0-9.7-4.4-9.7-10v-0.1c0-5.5,4.1-10,9.7-10c3.5,0,5.6,1.3,7.6,3.1l-1.1,1.1
		c-1.7-1.7-3.6-2.8-6.5-2.8c-4.7,0-8.2,3.8-8.2,8.7v0.1c0,5,3.6,8.8,8.3,8.8c2.8,0,4.8-1.1,6.7-3l1,0.9
		C257.9,59.3,255.7,60.7,252.2,60.7z"/>
	<path class="st0" d="M277.3,60.4l-6.2-8.1h-6.3v8.1h-1.5V40.9h8.2c4.2,0,6.9,2.3,6.9,5.6v0.1c0,3.2-2.4,5.1-5.7,5.6l6.4,8.3H277.3z
		 M276.9,46.5c0-2.6-2-4.2-5.6-4.2h-6.7v8.8h6.5C274.6,51,276.9,49.3,276.9,46.5L276.9,46.5z"/>
	<path class="st0" d="M299.6,60.4V43.5l-7.7,11.2h-0.1L284,43.5v16.9h-1.4V40.9h1.4l7.8,11.5l7.8-11.5h1.4v19.5H299.6z"/>
</g>
<path class="st0" d="M20.3,21.5c-1.1,1.3-4,5.5,0.1,11.5c0.2,0.3,0.5,0.3,0.7,0c2.8-4.2,2.8-8,0-11.5C20.9,21.3,20.5,21.2,20.3,21.5
	z"/>
<path class="st0" d="M8.7,24.5c-0.3,1.7-0.4,6.8,6.3,9.7c0.3,0.1,0.5-0.1,0.5-0.3c0.1-5-1.9-8.3-6.2-9.7C9.1,24,8.8,24.2,8.7,24.5z"
	/>
<path class="st0" d="M1.9,33.5c0.8,1.5,3.6,5.8,10.8,4.1c0.3-0.1,0.4-0.3,0.3-0.6c-2.8-4.1-6.4-5.6-10.7-4.2
	C1.9,32.9,1.8,33.3,1.9,33.5z"/>
<path class="st0" d="M2.8,44.3C4.3,45.2,9,47.2,14.1,42c0.2-0.2,0.1-0.5-0.1-0.7c-4.6-2-8.4-1.3-11.3,2.2
	C2.5,43.9,2.5,44.2,2.8,44.3z"/>
<path class="st0" d="M9,54.2c1.7-0.3,6.5-2,6.9-9.3c0-0.3-0.2-0.5-0.5-0.4c-4.8,1.6-7.1,4.7-6.9,9.2C8.4,54,8.7,54.2,9,54.2z"/>
<path class="st0" d="M29.7,55.4c0.5-1.7,1.2-6.7-5.2-10.3c-0.3-0.1-0.5,0-0.6,0.3c-0.7,5,0.9,8.4,5,10.4
	C29.3,55.8,29.7,55.7,29.7,55.4z"/>
<path class="st1" d="M24.9,57.2c0.4-1.1,0.9-3.5-2-5.6c-0.3-0.2-0.6-0.1-0.7,0.2c-0.7,2.5-0.1,4.4,1.9,5.6
	C24.4,57.7,24.7,57.5,24.9,57.2z"/>
<path class="st1" d="M34.4,51.5c-0.1-1.1-0.7-3.6-4.2-4.2c-0.3-0.1-0.5,0.2-0.5,0.5c0.5,2.6,1.8,4,4.1,4.2
	C34.1,52.1,34.4,51.9,34.4,51.5z"/>
<path class="st1" d="M38.4,40.3c-0.8-0.8-2.9-2.2-6-0.3c-0.3,0.2-0.3,0.5-0.1,0.7c2,1.6,4,1.8,5.9,0.4C38.6,41,38.6,40.6,38.4,40.3z
	"/>
<path class="st1" d="M35.8,28.6c-1.1-0.1-3.6-0.1-4.9,3.3c-0.1,0.3,0.1,0.6,0.4,0.6c2.6,0.1,4.3-1,5-3.2
	C36.4,29,36.2,28.6,35.8,28.6z"/>
<path class="st1" d="M27.3,22.4c-1.1,0.4-3.3,1.6-3,5.2c0,0.3,0.3,0.5,0.6,0.3c2.4-1.1,3.4-2.8,3-5.1C28,22.6,27.6,22.4,27.3,22.4z"
	/>
<path class="st1" d="M14,21.2c-0.5,1-1.2,3.4,1.6,5.7c0.3,0.2,0.5,0.1,0.7-0.2c0.9-2.4,0.4-4.4-1.5-5.7C14.5,20.8,14.1,20.9,14,21.2
	z"/>
<path class="st1" d="M4.2,27.4c0.1,1.1,0.8,3.6,4.3,4c0.3,0.1,0.5-0.2,0.5-0.5c-0.5-2.6-1.9-4-4.2-4.1C4.4,26.8,4.1,27.1,4.2,27.4z"
	/>
<path class="st1" d="M0.2,39.5c0.9,0.7,3,2,6,0c0.3-0.2,0.3-0.5,0-0.7C4,37.3,2,37.2,0.3,38.8C-0.1,38.9-0.1,39.3,0.2,39.5z"/>
<path class="st1" d="M4.4,50.3c1.1,0.1,3.6-0.1,4.8-3.4c0.1-0.3-0.1-0.6-0.4-0.6c-2.6,0-4.2,1.1-4.9,3.3C3.8,49.9,4,50.2,4.4,50.3z"
	/>
<path class="st1" d="M13.6,57.1c1.1-0.5,3.1-1.9,2.5-5.4c-0.1-0.3-0.3-0.5-0.6-0.3c-2.2,1.3-3.2,3-2.6,5.3
	C13,57,13.3,57.2,13.6,57.1z"/>
<path class="st0" d="M36.3,46.5c-0.5-1.7-2.6-6.3-9.9-5.9c-0.3,0-0.5,0.3-0.3,0.6c2.1,4.6,5.4,6.5,9.9,6
	C36.2,47.2,36.4,46.8,36.3,46.5z"/>
<path class="st0" d="M37,34.4c-1.5-0.7-6.4-2.4-11.1,3.2c-0.2,0.3-0.1,0.5,0.2,0.7c4.8,1.6,8.5,0.6,11.1-3.1
	C37.3,34.9,37.3,34.5,37,34.4z"/>
<path class="st0" d="M31.7,25.3c-1.7,0.3-6.6,1.7-7.3,8.9c0,0.3,0.2,0.5,0.5,0.4c4.8-1.4,7.3-4.3,7.4-8.8
	C32.3,25.5,32,25.2,31.7,25.3z"/>
<path class="st2" d="M17,31c0.4,1.1,1.5,5.6,1.4,10.6c-1.8-2.2-3.4-3.4-4.7-3.8c-0.1,0-0.3-0.1-0.1,0.1c2,1.3,4,3.9,4.2,7.6
	c0.3,3.3-2.4,18.4-3.7,22.8c-0.3,0.9,0.3,1,0.6,1.1c2,0.7,6.2,0.7,7.9,0c0.4-0.2,0.7-0.3,0.5-0.9c-0.5-1.6-1.6-4.9-2-7.5
	c-0.5-3.6-1.1-8.9,0.7-12.4c1.7-3.4,2.2-6.9,1.7-10.3c0-0.1-0.1-0.1-0.1,0c0,2.2-0.5,5-2.4,7.5c-0.8-7.5-2.4-12-3.6-14.8
	C16.5,28.1,16.2,28.2,17,31z"/>
</svg>
