<?xml version="1.0" encoding="utf-8"?>
<!-- Generator: Adobe Illustrator 19.2.1, SVG Export Plug-In . SVG Version: 6.00 Build 0)  -->
<svg version="1.1" id="Layer_1" xmlns="http://www.w3.org/2000/svg" xmlns:xlink="http://www.w3.org/1999/xlink" x="0px" y="0px"
	 viewBox="0 0 301 90" style="enable-background:new 0 0 301 90;" xml:space="preserve">
<style type="text/css">
	.st0{fill:#0072BC;}
	.st1{fill:#8DC63F;}
	.st2{fill:#808285;}
	.st3{fill:none;stroke:#0073BC;stroke-width:0.5;stroke-linecap:round;stroke-linejoin:round;}
	.st4{fill:none;stroke:#5D91CC;stroke-width:0.5;stroke-linecap:round;stroke-linejoin:round;}
	.st5{fill:none;stroke:#004A6D;stroke-width:0.25;stroke-linecap:round;stroke-linejoin:round;}
	.st6{clip-path:url(#SVGID_2_);}
</style>
<g>
	<g>
		<g>
			<path class="st0" d="M121.5,52c0,0.8,0.2,2.7,0.2,2.9c0,0.5-0.5,0.6-1,0.6c-0.2,0-0.3-0.1-0.4-0.4c-0.5-1.6-0.8-2.6-1.9-3.4
				c-1.1-0.8-2.7-1.1-3.8-1.1c-2.8,0-4.4,1.7-4.4,3.9c0,2.7,2,3.5,5.6,5.1c3.6,1.6,7.2,3.1,7.2,7.4c0,2.3-1.2,4.2-2.6,5.2
				c-1.2,0.8-2.9,1.7-6.5,1.7c-3,0-6-0.6-6.4-0.6c-0.5,0-0.5,0.3-1,0.3c-0.4,0-0.5-0.1-0.5-0.5c-0.4-2.5-0.6-5.7-0.6-6.1
				c0-0.3,0-0.9,1.1-0.9c0.3,0,0.3,0.3,0.4,0.9c0.5,1.9,1.2,3,2.1,3.6c1.4,1.1,3.5,1.6,5,1.6c2.9,0,4.8-1.8,4.8-4.2
				c0-2.7-2-3.6-5.7-5.2c-3.5-1.6-6.7-3-6.7-7c0-3.5,2.5-6.7,8.6-6.7c1.1,0,2.3,0.1,3.4,0.2c1,0.2,1.9,0.3,2,0.3
				c0.1,0,0.3,0,0.4-0.1c0.2,0,0.3-0.1,0.4-0.1c0.2,0,0.2,0.1,0.2,0.3V52z"/>
			<path class="st0" d="M125.6,62.1c-0.4-0.1-0.5-0.1-0.5-0.5c0-0.4,0.1-0.4,0.5-0.6c1.2-0.5,2.4-1,3.6-1.5c0.3-0.1,0.7-0.2,1-0.2
				c0.2,0,0.3,0.1,0.3,0.3c-0.1,0.7-0.1,1.5-0.2,2.3c0,0.7-0.1,1.5-0.1,4.6c0,1,0,4.4,0.2,5c0.2,0.8,0.8,0.9,2,0.9
				c0.5,0,0.5,0.1,0.5,0.5c0,0.5-0.1,0.5-0.4,0.5c-0.5,0-1.8-0.1-3.6-0.1c-2.1,0-3.2,0.1-3.9,0.1c-0.2,0-0.3-0.1-0.3-0.5
				c0-0.5,0-0.5,0.6-0.6c1.9-0.3,1.9-0.8,1.9-6.5C127.2,62.8,127.2,62.4,125.6,62.1z M129.1,51.7c0.8,0,1.8,0.9,1.8,1.8
				c0,0.9-1,1.9-1.9,1.9c-0.9,0-1.8-0.9-1.8-1.8C127.2,52.6,128.3,51.7,129.1,51.7z"/>
			<path class="st0" d="M156.9,60.8c0.9,0.9,1.1,1.9,1.1,4.4V71c0,1.2,0.3,1.5,1.9,1.5c0.5,0,0.5,0.1,0.5,0.5c0,0.5,0,0.5-0.5,0.5
				c-0.7,0-1.7-0.1-3.3-0.1c-1.5,0-2.8,0.1-3.5,0.1c-0.4,0-0.4,0-0.4-0.5c0-0.4,0-0.4,0.6-0.5c1.2-0.4,1.5-0.6,1.5-4.8
				c0-3.5,0-5.9-3.1-5.9c-0.6,0-1.7,0.1-2.9,0.8c-0.3,0.1-0.3,0.5-0.3,1.3c0,1.5,0,2.7,0,3.7c0,4.4,0.1,4.7,1.2,4.8
				c0.4,0,0.6,0.1,0.9,0.1c0.2,0,0.3,0.2,0.3,0.5c0,0.5-0.1,0.5-0.4,0.5c-0.5,0-2.9-0.1-3.4-0.1c-0.5,0-3,0.1-3.5,0.1
				c-0.2,0-0.3-0.1-0.3-0.5c0-0.5,0.1-0.5,0.5-0.6c0.6-0.1,1.1-0.2,1.4-0.9c0.2-0.9,0.2-2.9,0.2-3.8c0-3.6,0-5.8-2.7-5.8
				c-1.4,0-3.4,0.9-3.5,1.3c0,0.1-0.1,2.4-0.1,4.5c0,4.2,0.2,4.6,0.9,4.7c0.5,0,0.8,0.1,1.2,0.1c0.3,0.1,0.3,0.2,0.3,0.5
				c0,0.5,0,0.5-0.5,0.5c-0.5,0-2.7-0.1-3.2-0.1c-0.5,0-3,0.1-3.5,0.1c-0.3,0-0.3-0.1-0.3-0.5c0-0.5,0-0.5,0.6-0.6
				c0.9-0.2,1.5-0.5,1.5-2.3V65c0-2.3-0.2-2.6-1.4-2.6c-0.6,0-0.7,0-0.7-0.4s0-0.5,0.5-0.7c0.9-0.5,1.2-0.6,3.6-1.7
				c0.4-0.2,0.6-0.2,0.9-0.2c0.4,0,0.5,0.1,0.5,0.3c0,0.3-0.2,1.9-0.2,2.3c2-1.3,3.7-2.3,5.7-2.3c1.5,0,2.8,0.7,3.4,2.2
				c1-0.6,3.6-2.2,5.7-2.2C155,59.6,156.2,60,156.9,60.8z"/>
			<path class="st0" d="M168.9,73.7c-1.2,0-2-0.2-2.7-0.4v3.9c0,3.4,0.2,3.8,2.1,3.8c0.7,0,0.7,0.1,0.7,0.6c0,0.5-0.1,0.5-0.5,0.5
				c-0.9,0-2-0.1-3.3-0.1c-1.3,0-3.3,0.1-4,0.1c-0.4,0-0.4-0.1-0.4-0.5c0-0.4,0-0.4,0.6-0.5c1.4-0.2,1.5-1.1,1.5-1.5
				c0.2-1.3,0.2-9.1,0.2-11.2c0-2.9,0-4.7-0.1-5c-0.2-1-0.6-1-1.7-1c-0.3,0-0.4,0-0.4-0.4c0-0.4,0.1-0.5,0.5-0.7
				c0.5-0.3,3-1.6,3.5-1.9c0.2-0.1,0.7-0.4,1.1-0.4c0.4,0,0.5,0.1,0.5,0.2c0,0.3-0.1,1.4-0.1,1.6c1.9-0.8,3.5-1.4,5.1-1.4
				c3.2,0,5.7,2.7,5.7,6.5C177.2,70.8,173.3,73.7,168.9,73.7z M170.2,71.8c1,0,1.9-0.2,2.6-0.9c1.1-1,1.3-2.6,1.3-3.6
				c0-2.5-1.4-5.8-5-5.8c-1.4,0-2.4,0.4-2.8,0.5c-0.1,2.6-0.1,5.8-0.1,8.8C166.8,71.1,168,71.8,170.2,71.8z"/>
			<path class="st0" d="M180.7,53.9c-0.2-0.8-0.6-0.8-1.8-1c-0.3,0-0.3,0-0.3-0.4c0-0.4,0.1-0.5,0.6-0.6c2.6-0.8,4.1-1.3,4.8-1.3
				c0.2,0,0.3,0.1,0.3,0.4c0,0.4-0.1,0.9-0.1,1.2c-0.1,1.6-0.2,3-0.2,5.3c0,0.5,0,3.1,0,5.4c0,8.4,0.1,8.7,0.4,9
				c0.3,0.5,0.9,0.5,2.2,0.7c0.3,0,0.4,0.1,0.4,0.4c0,0.5-0.1,0.5-0.5,0.5c-0.9,0-2.4,0-4.1,0c-1.5,0-2.9,0-3.6,0
				c-0.3,0-0.4-0.1-0.4-0.5c0-0.4,0.1-0.4,0.6-0.5c1.3-0.2,1.7-0.7,1.8-2.1c0.1-2.2,0.2-5,0.2-9.1C181,56.7,181,54.7,180.7,53.9z"/>
			<path class="st0" d="M199.5,70.5l0.1,0.5c0.1,0.3,0.1,0.3,0.1,0.3c0,0.4-2.8,2.6-6.2,2.6c-4.7,0-5.7-3.9-5.7-6.5
				c0-5,3.5-7.8,6.8-7.8c2.6,0,4.4,1.7,4.9,3.5c0.2,0.7,0.2,0.7,0.4,0.8c0.2,0.1,0.2,0.2,0.2,0.7c0,0.5-0.1,0.5-0.9,0.7
				c-3.1,0.5-5,0.8-8.1,1.5c0.1,1.1,0.5,5,4.4,5c0.4,0,2.1,0,3.8-1.3H199.5z M195.2,64.7c1-0.3,1.1-0.5,1.1-0.9
				c0-1.1-1.1-2.9-2.6-2.9c-1.3,0-2.6,1.3-2.7,4.7C192.7,65.3,193.6,65.1,195.2,64.7z"/>
			<path class="st1" d="M207.6,51.5c3-1.7,6.3-2.4,9.7-2.4c1.4,0,2.5,0.1,3.5,0.2c1,0.2,1.7,0.3,2.2,0.3c0.2,0,0.3-0.1,0.4-0.2
				c0.2,0,0.3-0.1,0.4-0.1c0.5,0,0.5,0.2,0.5,0.5c0,1.2,0,2.2,0,3.2c0,0.4,0.2,2.2,0.2,2.3c0,0.3,0,0.5-0.9,0.5
				c-0.3,0-0.3-0.1-0.5-0.8c-0.5-1.9-0.8-2.4-1.2-2.7c-1.1-0.9-3.5-1.4-5.7-1.4c-7.1,0-9.8,5-9.8,10.4c0,3.9,1.1,7.2,3.8,9.1
				c1.9,1.4,4.1,1.9,6.2,1.9c1.1,0,3.7-0.1,4.3-1.1c0.3-0.5,0.4-1.5,0.4-4.1c0-4.3-0.1-4.3-4-4.5c-0.3,0-0.3-0.1-0.3-0.6
				c0-0.5,0.1-0.7,0.4-0.7c0.9,0,2.6,0.1,5.2,0.1c1.5,0,3-0.1,4.5-0.1c0.2,0,0.3,0,0.3,0.3c0,0.5,0,0.8-0.4,0.9
				c-1.5,0.3-1.6,1.1-1.6,1.8c0,0.6-0.1,3.1-0.1,3.9c0,3.6,0.3,4.1,0.3,4.4c0,0.2,0,0.3-0.9,0.4c-2.9,0.5-5.2,0.9-8.5,0.9
				c-4.4,0-7-0.9-9-2.1c-4.6-2.8-5.1-7.8-5.1-9.8C201.9,57.5,204,53.5,207.6,51.5z"/>
			<path class="st1" d="M229,60.2c-0.5-0.1-0.6-0.1-0.6-0.6s0.1-0.5,0.6-0.7c1.4-0.6,2.8-1.2,4.3-1.7c0.4-0.2,0.8-0.3,1.1-0.3
				c0.2,0,0.4,0.1,0.4,0.4c-0.1,0.9-0.1,1.8-0.2,2.7c0,0.8-0.1,1.8-0.1,5.4c0,1.1,0,5.2,0.2,5.9c0.2,1,1,1,2.3,1.1
				c0.6,0,0.6,0.1,0.6,0.6c0,0.6-0.1,0.6-0.5,0.6c-0.6,0-2.2-0.1-4.2-0.1c-2.5,0-3.8,0.1-4.6,0.1c-0.3,0-0.4-0.1-0.4-0.5
				c0-0.6,0-0.6,0.7-0.7c2.2-0.3,2.2-0.9,2.2-7.6C231,60.9,231,60.4,229,60.2z M233.2,48c0.9,0,2.2,1.1,2.2,2.2
				c0,1.1-1.2,2.2-2.3,2.2c-1,0-2.2-1.1-2.2-2.1C230.9,49,232.3,48,233.2,48z"/>
			<path class="st1" d="M251.2,59.7c0-0.9-0.7-0.9-1.8-1.1c-0.4,0-0.5-0.1-0.5-0.5c0-0.5,0-0.7,0.4-0.7c0.3,0,2.3,0.1,3.5,0.1
				c1.3,0,1.8-0.1,2.1-0.1c0.3,0,0.3,0.3,0.3,0.5c0,0.4,0,0.5-0.6,0.8c-0.4,0.2-1.2,0.7-7.2,13.1c-0.5,1.1-0.6,1.5-0.8,1.5l-0.3,0
				l-1.4,0.2c-0.2,0-0.2,0-0.4-0.5c-0.4-1.1-5-12.4-6.1-13.9c-0.3-0.4-0.5-0.5-1-0.8c-0.1-0.1-0.2-0.2-0.2-0.6
				c0-0.4,0.2-0.5,0.4-0.5c0.8,0,1.3,0.1,3.5,0.1c1.7,0,3-0.1,3.7-0.1c0.3,0,0.3,0.2,0.3,0.6c0,0.5-0.1,0.5-0.5,0.6
				c-1.1,0.2-1.6,0.2-1.6,1c0,0.9,1,3.2,1.4,4.2l2.4,5.8C250.7,61.8,251.2,60.5,251.2,59.7z"/>
			<path class="st1" d="M269.3,69.9l0.2,0.6c0.1,0.3,0.1,0.3,0.1,0.4c0,0.5-3.3,3-7.2,3c-5.5,0-6.7-4.6-6.7-7.6
				c0-5.9,4.1-9.2,7.9-9.2c3.1,0,5.2,2,5.7,4.1c0.2,0.8,0.2,0.9,0.5,0.9c0.3,0.1,0.3,0.3,0.3,0.9c0,0.6-0.1,0.6-1,0.8
				c-3.7,0.6-5.9,1-9.5,1.7c0.1,1.2,0.6,5.9,5.2,5.9c0.4,0,2.5,0,4.5-1.5H269.3z M264.2,63.2c1.2-0.3,1.3-0.6,1.3-1
				c0-1.3-1.3-3.4-3.1-3.4c-1.6,0-3.1,1.5-3.1,5.5C261.2,63.9,262.3,63.6,264.2,63.2z"/>
		</g>
		<g>
			<path class="st2" d="M180.8,80.1c0.8,0.6,0.9,1.6,0.9,2c0,1.7-1.3,3.8-3.6,3.8c-1.8,0-2.7-1.2-2.7-2.6c0-1.1,0.5-2.3,1.4-3
				c0.7-0.6,1.6-0.7,2.1-0.7C179.6,79.5,180.3,79.7,180.8,80.1z M176.3,83.3c0,1.5,1,2.1,1.9,2.1c1,0,1.5-0.5,1.8-0.8
				c0.6-0.7,0.9-1.6,0.9-2.5c0-1.7-1.2-2.1-1.9-2.1C177,80,176.3,81.9,176.3,83.3z"/>
			<path class="st2" d="M182.9,85.8h-0.7l0.9-4.1h0.7l-0.5,1.8c0.7-1,1.3-1.9,2.1-1.9c0.5,0,0.7,0.3,0.7,0.8c0,0.4-0.1,0.7-0.1,0.8
				l-0.6,2.6h-0.7l0.6-2.6c0-0.2,0.1-0.4,0.1-0.7c0-0.1,0-0.3-0.2-0.3c-0.3,0-0.6,0.3-0.7,0.5c-0.6,0.6-1,1.4-1.3,1.7L182.9,85.8z"
				/>
			<path class="st2" d="M188.9,79.1l-1.5,6.7h-0.7l1.5-6.7H188.9z"/>
			<path class="st2" d="M190.5,81.7l-0.9,4.1h-0.7l0.9-4.1H190.5z M190.9,79.9c0,0.2-0.2,0.4-0.4,0.4c-0.2,0-0.4-0.2-0.4-0.4
				c0-0.2,0.2-0.4,0.4-0.4C190.7,79.4,190.9,79.6,190.9,79.9z"/>
			<path class="st2" d="M191.8,85.8h-0.7l0.9-4.1h0.7l-0.5,1.8c0.7-1,1.3-1.9,2.1-1.9c0.5,0,0.7,0.3,0.7,0.8c0,0.4-0.1,0.7-0.1,0.8
				l-0.6,2.6h-0.7l0.6-2.6c0-0.2,0.1-0.4,0.1-0.7c0-0.1,0-0.3-0.2-0.3c-0.3,0-0.6,0.3-0.7,0.5c-0.6,0.6-1,1.4-1.3,1.7L191.8,85.8z"
				/>
			<path class="st2" d="M198.7,84.7c0,0,0,0.1-0.3,0.4c-0.4,0.4-0.9,0.8-1.5,0.8c-1,0-1.2-0.8-1.2-1.4c0-1.2,0.9-2.9,2.4-2.9
				c0.8,0,1,0.6,1,0.8c0,0.1,0,1.4-2.6,1.4c0,0.2-0.1,0.4-0.1,0.7c0,0.7,0.4,0.8,0.7,0.8c0.6,0,1.2-0.7,1.4-0.9h0.1L198.7,84.7z
				 M198.4,82.5c0-0.1,0-0.4-0.5-0.4c-0.6,0-1,0.6-1.3,1.4C197.6,83.4,198.4,83,198.4,82.5z"/>
			<path class="st2" d="M205.7,81.7l-0.1,0.5h-1.1c0.1,0.1,0.2,0.3,0.2,0.8c0,0.4-0.2,1.4-1.4,1.7c-0.3,0.2-0.5,0.3-0.5,0.5
				c0,0.3,0.3,0.4,0.7,0.5c1,0.3,1.2,0.3,1.4,0.6c0.1,0.1,0.2,0.3,0.2,0.5c0,1-1.5,1.7-2.8,1.7c-0.8,0-1.6-0.4-1.6-1
				c0-0.7,1-1.1,2.1-1.4c-0.3-0.1-0.7-0.2-0.7-0.6c0-0.3,0.3-0.5,0.7-0.7c-0.3-0.1-1.1-0.2-1.1-1.2c0-0.9,0.7-1.9,1.7-1.9
				c0.2,0,0.3,0,0.5,0.1L205.7,81.7L205.7,81.7z M202.2,86.6c-0.2,0.1-0.6,0.3-0.6,0.7c0,0.3,0.5,0.6,1.2,0.6c1.1,0,1.8-0.7,1.8-1.1
				c0-0.2-0.2-0.4-1.2-0.6C202.9,86.3,202.5,86.5,202.2,86.6z M202.6,83.6c0,0.6,0.4,0.7,0.5,0.7c0.7,0,1-0.9,1-1.5
				c0-0.3-0.1-0.7-0.6-0.7C203,82,202.6,82.8,202.6,83.6z"/>
			<path class="st2" d="M207.1,81.7l-0.9,4.1h-0.7l0.9-4.1H207.1z M207.4,79.9c0,0.2-0.2,0.4-0.4,0.4c-0.2,0-0.4-0.2-0.4-0.4
				c0-0.2,0.2-0.4,0.4-0.4C207.2,79.4,207.4,79.6,207.4,79.9z"/>
			<path class="st2" d="M208.5,81.7l0.3,3.2l1.8-3.2h0.7l-2.4,4.1h-0.5l-0.5-4.1H208.5z"/>
			<path class="st2" d="M212.7,81.7l-0.9,4.1h-0.7l0.9-4.1H212.7z M213.1,79.9c0,0.2-0.2,0.4-0.4,0.4c-0.2,0-0.4-0.2-0.4-0.4
				c0-0.2,0.2-0.4,0.4-0.4C212.9,79.4,213.1,79.6,213.1,79.9z"/>
			<path class="st2" d="M214,85.8h-0.7l0.9-4.1h0.7l-0.5,1.8c0.7-1,1.3-1.9,2.1-1.9c0.5,0,0.7,0.3,0.7,0.8c0,0.4-0.1,0.7-0.1,0.8
				l-0.6,2.6h-0.7l0.6-2.6c0-0.2,0.1-0.4,0.1-0.7c0-0.1,0-0.3-0.2-0.3c-0.3,0-0.6,0.3-0.7,0.5c-0.6,0.6-1,1.4-1.3,1.7L214,85.8z"/>
			<path class="st2" d="M221.8,81.7l-0.1,0.5h-1.1c0.1,0.1,0.2,0.3,0.2,0.8c0,0.4-0.2,1.4-1.4,1.7c-0.3,0.2-0.5,0.3-0.5,0.5
				c0,0.3,0.3,0.4,0.7,0.5c1,0.3,1.2,0.3,1.4,0.6c0.1,0.1,0.2,0.3,0.2,0.5c0,1-1.5,1.7-2.8,1.7c-0.8,0-1.6-0.4-1.6-1
				c0-0.7,1-1.1,2.1-1.4c-0.3-0.1-0.7-0.2-0.7-0.6c0-0.3,0.3-0.5,0.7-0.7c-0.3-0.1-1.1-0.2-1.1-1.2c0-0.9,0.7-1.9,1.7-1.9
				c0.2,0,0.3,0,0.5,0.1L221.8,81.7L221.8,81.7z M218.3,86.6c-0.2,0.1-0.6,0.3-0.6,0.7c0,0.3,0.5,0.6,1.2,0.6c1.1,0,1.8-0.7,1.8-1.1
				c0-0.2-0.2-0.4-1.2-0.6C219,86.3,218.6,86.5,218.3,86.6z M218.7,83.6c0,0.6,0.4,0.7,0.5,0.7c0.7,0,1-0.9,1-1.5
				c0-0.3-0.1-0.7-0.6-0.7C219.1,82,218.7,82.8,218.7,83.6z"/>
			<path class="st2" d="M226.9,85.8h-0.7l0.6-2.5c0-0.2,0.1-0.5,0.1-0.8c0-0.2-0.1-0.3-0.2-0.3c-0.2,0-0.5,0.3-0.6,0.4
				c-0.6,0.6-1,1.3-1.3,1.7l-0.3,1.5h-0.7l0.9-4.1h0.7l-0.5,1.7c0.5-0.7,1.2-1.8,2-1.8c0.4,0,0.6,0.3,0.6,0.7c0,0.3-0.1,0.7-0.2,1.1
				c0.3-0.6,1.2-1.8,2-1.8c0.4,0,0.6,0.3,0.6,0.8c0,0.4-0.1,0.7-0.1,0.8l-0.6,2.6h-0.7l0.6-2.6c0-0.1,0.1-0.5,0.1-0.7
				c0-0.1,0-0.3-0.2-0.3c-0.4,0-1.3,1.2-1.9,2.1L226.9,85.8z"/>
			<path class="st2" d="M233.6,85.8h-0.7l0.4-1.5c-0.8,1.1-1.5,1.6-2,1.6c-0.5,0-0.8-0.4-0.8-1c0-1.4,1.4-2.9,3.3-3.1
				c0-0.2,0-0.2,0.1-0.2h0.5c0.1,0,0.1,0,0,0.1L233.6,85.8z M233.6,82.9c0-0.1,0.1-0.3,0.1-0.4c0-0.2-0.2-0.2-0.3-0.2
				c-0.9,0-2.1,1.3-2.1,2.4c0,0.1,0,0.5,0.3,0.5c0.2,0,0.4-0.1,0.5-0.2c0.4-0.3,0.9-0.8,1.3-1.4L233.6,82.9z"/>
			<path class="st2" d="M239.7,79.1l-1.5,6.7h-0.7L238,84c-0.3,0.5-0.8,1.2-1.3,1.6c-0.3,0.2-0.5,0.3-0.7,0.3
				c-0.6,0-0.9-0.5-0.9-1.2c0-1.4,1.4-3,2.7-3c0.4,0,0.5,0.1,0.7,0.2l0.5-2.7H239.7z M238.2,82.9c0-0.1,0.1-0.3,0.1-0.4
				c0-0.2-0.2-0.5-0.6-0.5c-1.1,0-1.9,1.5-1.9,2.5c0,0.2,0,0.3,0,0.3c0.1,0.3,0.3,0.3,0.4,0.3c0.4,0,1.2-0.8,1.9-2.1L238.2,82.9z"/>
			<path class="st2" d="M242.6,84.7c0,0,0,0.1-0.3,0.4c-0.4,0.4-0.9,0.8-1.5,0.8c-1,0-1.2-0.8-1.2-1.4c0-1.2,0.9-2.9,2.4-2.9
				c0.8,0,1,0.6,1,0.8c0,0.1,0,1.4-2.6,1.4c0,0.2-0.1,0.4-0.1,0.7c0,0.7,0.4,0.8,0.7,0.8c0.6,0,1.2-0.7,1.4-0.9h0.1L242.6,84.7z
				 M242.4,82.5c0-0.1,0-0.4-0.5-0.4c-0.6,0-1,0.6-1.3,1.4C241.6,83.4,242.4,83,242.4,82.5z"/>
			<path class="st2" d="M248.3,82.4h-0.1c-0.2-0.1-0.5-0.3-0.8-0.3c-0.6,0-0.7,0.4-0.7,0.6c0,0.2,0.2,0.4,0.5,0.6
				c0.6,0.4,1,0.7,1,1.2c0,0.6-0.6,1.3-1.6,1.3c-0.3,0-0.7-0.1-1-0.2c-0.1-0.1-0.1-0.1-0.1-0.2l0-0.6h0.2c0.4,0.4,0.9,0.4,1.1,0.4
				c0.5,0,0.7-0.3,0.7-0.6c0-0.3-0.2-0.4-0.5-0.7c-0.6-0.4-0.9-0.6-0.9-1.1c0-0.7,0.6-1.3,1.5-1.3c0.4,0,0.7,0.1,0.8,0.2
				c0.1,0,0.1,0.1,0.1,0.1L248.3,82.4z"/>
			<path class="st2" d="M250.4,81.7l-0.9,4.1h-0.7l0.9-4.1H250.4z M250.8,79.9c0,0.2-0.2,0.4-0.4,0.4c-0.2,0-0.4-0.2-0.4-0.4
				c0-0.2,0.2-0.4,0.4-0.4C250.6,79.4,250.8,79.6,250.8,79.9z"/>
			<path class="st2" d="M254.1,85.8h-0.7l0.6-2.5c0-0.2,0.1-0.5,0.1-0.8c0-0.2-0.1-0.3-0.2-0.3c-0.2,0-0.5,0.3-0.6,0.4
				c-0.6,0.6-1,1.3-1.3,1.7l-0.3,1.5H251l0.9-4.1h0.7l-0.5,1.7c0.5-0.7,1.2-1.8,2-1.8c0.4,0,0.6,0.3,0.6,0.7c0,0.3-0.1,0.7-0.2,1.1
				c0.3-0.6,1.2-1.8,2-1.8c0.4,0,0.6,0.3,0.6,0.8c0,0.4-0.1,0.7-0.1,0.8l-0.6,2.6h-0.7l0.6-2.6c0-0.1,0.1-0.5,0.1-0.7
				c0-0.1,0-0.3-0.2-0.3c-0.4,0-1.3,1.2-1.9,2.1L254.1,85.8z"/>
			<path class="st2" d="M258.1,82.7l0-0.4c0,0,0-0.1,0.1-0.1l0.6-0.2l0.2-1.1c0,0,0-0.1,0.1-0.1h0.6c0,0,0,0,0,0c0,0,0,0.1,0,0.1
				l-0.2,0.9c0.5-0.1,0.8-0.2,1.1-0.2c0.8,0,1.1,0.5,1.1,1.2c0,1.4-1.1,3.1-2.3,3.1c-0.3,0-0.5-0.1-0.7-0.2l-0.5,2.6
				c0,0.1-0.1,0.1-0.1,0.1h-0.5c-0.1,0-0.1,0-0.1-0.1l1.3-5.7L258.1,82.7L258.1,82.7z M258.8,84.9c0.2,0.4,0.6,0.4,0.6,0.4
				c0.8,0,1.5-1.4,1.5-2.5c0-0.7-0.6-0.7-0.7-0.7c-0.4,0-0.7,0.1-0.8,0.2L258.8,84.9z"/>
			<path class="st2" d="M264.5,79.1l-1.5,6.7h-0.7l1.5-6.7H264.5z"/>
			<path class="st2" d="M267.4,84.7c0,0,0,0.1-0.3,0.4c-0.4,0.4-0.9,0.8-1.5,0.8c-1,0-1.2-0.8-1.2-1.4c0-1.2,0.9-2.9,2.4-2.9
				c0.8,0,1,0.6,1,0.8c0,0.1,0,1.4-2.6,1.4c0,0.2-0.1,0.4-0.1,0.7c0,0.7,0.4,0.8,0.7,0.8c0.6,0,1.2-0.7,1.4-0.9h0.1L267.4,84.7z
				 M267.2,82.5c0-0.1,0-0.4-0.5-0.4c-0.6,0-1,0.6-1.3,1.4C266.4,83.4,267.2,83,267.2,82.5z"/>
		</g>
	</g>
	<g>
		<g>
			<g>
				<path class="st3" d="M81.9,62.4c-1.8,1.1,6.1,5.7,4.3,6.9c-1.2,0.7-7.6-8.2-8.4-7.6c0,0,0.8,0.2,0.3,0.5
					c-0.3,0.2-3.1-1.2-3.3-1.1c-0.4,0.2,1.1,0.9,0.7,1.1c-0.2,0.1-3-1-3.6-0.7c-0.3,0.2,1.2,0.7,0.6,1c-0.3,0.2-3.5-0.5-3.6-0.5
					c-0.3,0.2,0.6,1,0.6,1c-0.1,0.1-2.8-0.7-3.2-0.4c-0.1,0.1,0.8,0.9,0.6,1c-0.2,0.1-3.4-1.1-3.9-0.7c-0.3,0.2,0.9,1.4,0.9,1.4
					c-0.2,0.1-3-1.8-3.4-1.5c-0.5,0.3,0.4,0.1,0.2,0.3c-0.1,0.1-4.4-5.4-5.3-4.9c-0.5,0.3,2.8,2.4,1.9,3c-1.4,0.8-6.4-6-6.9-5.7
					c-0.1,0.1,1.7,0.5,0.7,1.1c-0.2,0.2-5.3-8.1-7-7c-1.2,0.7,3.2,2.5,2,3.2"/>
				<path class="st3" d="M65.3,53.4c-0.4,0.2,0.4,0.4,0.3,0.5c-0.6,0.3-5.6-3.4-5.9-3.2c-1.1,0.7,1.3,1.1,0.8,1.3"/>
				<path class="st3" d="M91.6,56.4c-0.6,0.4,5.2,5.9,4.1,6.5c-0.8,0.5-7.9-10.6-8.4-10.3c-1.7,1.1,2.4,3.8,2.4,3.8c0,0-7-9.6-9-8.4
					c-0.2,0.1,2.2,1.9,1.5,2.4c-0.5,0.3-3.8-3.2-4.4-2.7c-0.1,0.1,1,1.3,0.9,1.4c-0.2,0.1-4.5-1.3-4.5-1.3c-0.3,0.2,1.3,0.8,0.7,1.2
					c-0.3,0.2-3.8-1.6-4-1.5c-0.6,0.3,1.1,1.3,0.9,1.5c-0.4,0.3-3.1-2-3.2-1.9c0,0,1.7,1.3,1.1,1.7c-0.1,0.1-3.3-2.6-3.5-2.5
					c0,0,1.6,2,1.3,2.1c-0.3,0.2-4.1-2.7-4.1-2.7C63,46,64.7,46.1,64,46.6c-0.5,0.3-3.7-3.2-4.1-2.9c-0.2,0.1,1.9,2.1,1.5,2.4
					c0,0-4.8-2.7-5.3-2.3c-0.5,0.3,0.8,0.8,0.6,0.9c-0.1,0-2.8,2.1-2.8,2.1c-0.3,0.2,2.2,3.1,2,3.2c-0.4,0.2-3.7-2.1-4-1.9
					c-0.1,0.1,2,1.1,1,1.7c-0.7,0.5-3.8-4-4.3-3.7c-0.6,0.4,1.3,0.8,0.7,1.2c-0.7,0.5-3.7-4-4.4-3.5c-0.7,0.4,2,1.5,1.2,2
					c-0.9,0.5-4.3-5-5.3-4.4c-0.6,0.4,1.5,0.3,0.5,0.9c-0.6,0.4-3.9-1.9-4.6-1.4c-0.2,0.1,0.6,0.7,0.5,0.8c-0.4,0.3-1.5,2.4-1.7,2.6
					c-0.3,0.2,0.4,0.1,0.2,0.2"/>
			</g>
		</g>
		<g>
			<g>
				<path class="st4" d="M57.3,44.9c0.2,0.2,1.3-1.3,1.3-1.3c0.5,0.5,3.3,2.1,3.7,2.6c0.3,0.3,0.4-1.2,0.8-0.8
					c0.1,0.1,2.2,2.1,2.2,2.1c0.1,0.1,0.9-0.9,0.9-0.9c0.4,0.4,3.5,2.1,3.6,2.2C70,49,71,47.6,71,47.6c0.3,0.3,2.7,1.5,2.9,1.6
					c0.5,0.5,1.3-1.9,1.6-1.6c0.1,0.1,4,1.5,4,1.5c0.2,0.2,0.7-1.2,1-1c0,0,1.9,1.8,2.2,2.1c0.2,0.2,0.4-1.1,0.7-0.7
					c0.3,0.3,2.4,3,2.5,3.1c0.2,0.2,0.1-0.2,0.1-0.1c0.5,0.5,1.8,2.2,2.2,2.5c0.3,0.3,0.7-0.7,0.7-0.7c0.7,0.7,2.5,3.8,2.8,4.1
					c0.2,0.2,0.6-0.8,0.7-0.7c0.4,0.4,2.1,3.3,2.4,3.6c0,0,0.5-0.8,0.7-0.7c0.3,0.3,2.2,3.5,2.4,3.7c0.2,0.2,0.4-1,0.7-0.7"/>
				<path class="st4" d="M38.8,41.4c0.4,0.4,1.2-1.6,1.4-1.4c0.2,0.2,2.4,2.7,2.4,2.7c0.1,0.1,0.4-1,0.7-0.7
					c0.7,0.7,2.8,3.4,3.1,3.7c0.3,0.3,0.5-0.8,0.7-0.7c0.1,0.1,1.6,2.1,2.1,2.5c0.3,0.3,0.4-1.1,0.8-0.8c0.3,0.3,4.4,1.1,4.8,1.5
					c0.5,0.5-0.3-0.9,0.3-0.3c0,0,2.8,2.5,2.9,2.6c0.2,0.2,0.7-0.8,0.8-0.8c0.4,0.4,2.3,2.7,2.9,3.2c0.5,0.5,1.1-1.6,1.4-1.4
					c0.4,0.4,1.7,1.8,2.1,2.2c0.3,0.3,0.7-1.7,1.2-1.2"/>
				<path class="st4" d="M36.7,44.1c0,0,0.7-0.7,0.7-0.7c0.5,0.5,1.1,2.7,1.5,3.1c0.3,0.3,0.7-0.7,0.7-0.7c0.3,0.3,1.9,3.1,2.5,3.7
					c0.4,0.4,0.3-1,0.7-0.7c0.4,0.4,2,2.8,2.2,3c0,0,0.3-1,0.7-0.7c0.4,0.4,2.7,3.3,2.7,3.3c0.4,0.4,0.5-0.8,0.7-0.7
					c0.1,0.1,1.6,2.3,2.1,2.8c0.2,0.2,0.7-0.7,0.7-0.7c0.2,0.2,1.9,2.6,1.9,2.7c0.3,0.3,0.3-1,0.7-0.7c0,0,2.2,2.8,2.3,2.9
					c0.2,0.2,0.5-0.9,0.7-0.7c0.1,0.1,3.1,3,3.4,3.2c0.2,0.2,0.1-0.8,0.4-0.4c0,0,4.6,0,4.9,0.3c0.6,0.6-0.5-1,0.3-0.3
					c0.2,0.2,6.5-0.6,6.8-0.3c0.5,0.5,1.3-2.5,1.9-1.9c0,0,3.6,1,4.2,1.6c0.4,0.4,0.8-1.1,1-1c0.2,0.2,2.6,3.3,2.6,3.3
					c0.2,0.2,0.4-0.9,0.7-0.7c0.5,0.5,1.7,3.6,2.1,3.9c0.3,0.3,0.4-1,0.7-0.7c0.6,0.6,1.7,3.6,2.1,3.9c0.4,0.4,0.6-0.8,0.7-0.7"/>
			</g>
		</g>
		<g>
			<g>
				<path class="st5" d="M80.4,63.7l-2.3-3.1c0.3-0.2,8.8,11.8,10,11c1.5-1.1-6.7-9.3-6.7-9.3c1.3-1,6.6,9.3,7.2,8.9
					c0.1-0.1-6.4-8.7-6.4-8.8c0,0,6.2,8,6.9,7.5c0.3-0.2-5.2-7.1-5.2-7.1"/>
				<path class="st5" d="M55.8,45.4L55.8,45.4c0.1-0.1,1.3,0,1.5-0.1c0,0-1.7-1.9-1.5-2c0.3-0.2,1.9,2.4,2.2,2.2
					c0.2-0.1-2.3-1.9-1.7-2.3l2.1,1.5c0,0-0.5-0.3-0.3-0.5c0.1-0.1,0.9,0.8,0.9,0.7c0.2-0.1-1.2-0.2-0.5-0.7
					c0.4-0.3,2.4,1.9,2.6,1.7c0.7-0.5-0.9-0.1-0.3-0.5c0.3-0.2,2.2,1.2,2.4,1c0,0-1.4-0.5-0.7-1l1.9,1.4c0.1,0-2.4-1.5-1.5-2.1
					c0.4-0.3,4.8,4.2,4.8,4.2c0.6-0.4-2.5-2.4-2-2.8c0.2-0.1,3,2.3,3.3,2c0,0-0.7-0.7-0.6-0.8c0.1-0.1,1.2,0.5,1.2,0.4
					c0.5-0.3-0.5-0.8-0.5-0.8s3.8,2.5,4,2.4c0,0-0.9-0.5-0.5-0.7c0,0,1.2,0.2,1.3,0.1c0.1-0.1-0.3-0.4-0.3-0.4s2.6,1.2,3,1
					c0.4-0.3-2.1-1.8-1.6-2.2c0,0,2.1,2.2,2.1,2.2c0.3-0.2-1.7-2.2-1.6-2.2c0,0,3.3,1.6,3.3,1.6c0.5-0.4-1.2-1.6-1.2-1.6
					c0.4-0.3,4,2.6,4,2.6c0,0-0.4,0-0.1-0.2c0.1-0.1,7.1,7.5,7.1,7.5c1.2-0.9-6.7-9.2-6.7-9.2c0.3-0.2,8.7,11.1,8.7,11.1
					c2-1.4-6.6-9.1-6.6-9.1c1.4-1,11.5,13.8,12.1,13.4c2.4-1.8-10.1-10.9-8.7-11.9c0,0,9.4,12.5,10.1,11.9c0.1,0-5.4-6.1-4.7-6.5
					c0.4-0.3,4.4,6.9,5.3,6.3c1.4-1-3.9-3.3-2.9-4c0.6-0.4,3.4,4,4.1,3.6c0.3-0.2-0.1-0.2-0.1-0.2"/>
				<path class="st5" d="M38,41.7c0.1-0.1-1.3-1.6-1.2-1.7c0,0,1.5,1.2,1.7,1c0.1-0.1-0.7,0.2-0.1-0.2c0,0,0-0.6,0-0.6
					c0.3-0.2-0.5,0-0.2-0.2c0.2-0.1,1.2,1.1,1.3,1c0.4-0.3-0.9,0.2-0.2-0.3c0.3-0.2,4.2,5,4.6,4.7c0.1-0.1-4.3-5.9-4.3-5.9
					c0.7-0.5,3.5,5.6,4,5.2c0.9-0.7-4.1-4.7-3.7-5.1c0,0,4.9,7.1,6,6.4L42,40.7c0.2-0.1,4.2,6.1,4.6,5.9c1.2-0.8-5.6-5.5-4.5-6.3
					c0.3-0.2,7.5,8.6,7.5,8.6c1.2-0.9-5.7-7.8-5.7-7.8c0.6-0.5,6.1,7.4,6.1,7.4s-4.3-5-3.9-5.3c0.3-0.2,6.2,7.1,6.2,7.1
					c0.1-0.1-4.9-4.7-3.9-5.4c0,0,6.9,6.3,6.9,6.3c0.6-0.5-2-2.7-2-2.7c0.1-0.1,2.8,3.4,2.8,3.4c0.1-0.1-2-2-1.6-2.2
					c0.3-0.2,1.5,1.7,1.8,1.5c0.5-0.4-1.9-2.7-1.9-2.7c0.1-0.1,3.6,4.3,3.7,4.3l-4.1-5.7c0,0,4.9,5.7,5.1,5.6c0,0-6.1-6-4.9-6.8
					c0.9-0.7,5.3,6.2,5.5,6c1-0.7-5.6-4.4-4-5.6c0.6-0.4,5.2,8.6,6.5,7.7c1.1-0.8-8.4-8.4-6.9-9.5c1.1-0.8,6.9,8.1,7,8
					c0.1-0.1-1.4-1.9-1.4-1.9c0,0,4.9,3.5,4.9,3.5L64.7,53l3.1,1.4c0.1-0.1-1.7-2.3-1.7-2.3c0.2-0.2,2.4,1,2.7,0.8
					c0,0-0.5-0.3-0.4-0.5"/>
				<path class="st5" d="M40.6,49.6c0,0-5.7-5.9-4.7-6.5c0.1-0.1,4.8,7.3,5.3,6.9c0,0-6-6.9-5.4-7.4c0.2-0.2,5.9,8.5,6.4,8.1L36,42
					c0.9-0.7,11,13.8,11.7,13.3c1.9-1.4-10.5-14.5-10.5-14.5c0.7-0.5,11.7,18.6,13.9,17.1c0.7-0.5-6.5-8.2-6.1-8.5
					c0,0,8.4,10.3,8.9,9.9c0.4-0.3-5.7-5.9-4.8-6.6c0,0,5,7.5,5.5,7.1c1.5-1.1-5-5.5-4.3-6l9,9.3c0.1-0.1-4-5.5-4-5.5
					c0.4-0.3,3.2,4.7,3.7,4.3c1-0.8-3.3-3.3-2.7-3.7c0.5-0.3,5.2,5.8,5.2,5.8c0.3-0.2-3.2-3.5-2.8-3.8c0,0,1.5,2.2,1.6,2.1
					c0,0-2.2-1.6-1.5-2.1c0.1-0.1,2.2,3.9,2.7,3.6c0.7-0.5-2.4-3.3-2.4-3.3c0.1,0,2.8,3.7,3.1,3.4c0.5-0.3-1.8-1.6-1.4-1.9
					c0.2-0.1,3.1,1.5,3.3,1.4c0,0-0.5-0.7-0.5-0.7c0.1-0.1,0.8,0.1,0.8,0.1c0.5-0.4-0.3-0.5-0.3-0.5l2.5,1.7c0,0-1.8-1.5-1.3-1.8
					c0,0,2.4,1.3,2.6,1.1l-0.4-0.5c0,0,2.6,0.6,2.6,0.5c0.3-0.3-1.6-1.8-1.4-1.9c0.1-0.1,2.1,1.9,2.3,1.7c0.5-0.4-1.7-1.7-1.4-1.9
					c0,0,1.2,2.1,1.5,1.9l-1.4-1.9c0.3-0.2,2.1,0.5,2.4,0.3c0.2-0.1-0.2-0.2-0.2-0.2c0,0,2.5,1.4,2.7,1.2c0.4-0.3-0.4-0.3-0.3-0.4
					c0,0,0.4,0.5,0.5,0.5l-1.5-2c0.1-0.1,1.6,2.1,1.7,2c0.5-0.3-2-1.7-1.5-2c0.2-0.1,1.8,1.2,1.8,1.2c0.3-0.2-1.2-0.7-0.7-1
					c0.2-0.1,1,1.5,1.2,1.4c0,0-0.7-0.8-0.6-0.9c0,0,0.8,0.9,0.8,0.9c0.2-0.2-0.2-0.3-0.2-0.3l2.8,0.6c0,0-1.3-1.2-1-1.4
					c0,0,1.4,1.4,1.4,1.4c0.4-0.3-0.9-1.2-0.9-1.2c0.1-0.1,1.5,1.4,1.6,1.3c0.2-0.2-1.3-0.3-0.6-0.8"/>
			</g>
		</g>
	</g>
	<g>
		<defs>
			<path id="SVGID_1_" d="M64.4,46.5c4.1,1.4,6.1,2,15.1,2s24.6-20,24.6-30.5S103,0,83,0S55.1,11.6,55.1,25.4S64.4,46.5,64.4,46.5z"
				/>
		</defs>
		<clipPath id="SVGID_2_">
			<use xlink:href="#SVGID_1_"  style="overflow:visible;"/>
		</clipPath>
		<g class="st6">
			<g>
				<path class="st0" d="M82.2,45.8c0,0,15.6-15.2,17.4-23.9c1.8-8.7-1.5-16.4-8.7-17.5C77.3,2.3,72.9,17,72.9,17s3.3-5.7,7.5-7.3
					c4.1-1.6,14.4-2.7,16.2,8c1.7,9.9-16.5,28.3-19.6,31.6c-1,1.1-1.6,3.1-1.6,3.1L82.2,45.8z"/>
			</g>
			<g>
				<path class="st1" d="M70.5,34.5c0,0-2.1,6.6-0.1,10.7c2,4.1,3.3,4.7,3.4,5.1c0,0.4-0.9,2.6-4,0c-3-2.6-9.5-9.5-9.5-17.4
					c0-7.2,3.4-13.8,3.4-13.8c0-0.1-3.8,11-0.1,18.6c3.8,7.7,5.8,8.6,5.8,8.6S67,40.2,70.5,34.5z"/>
				<path class="st1" d="M76.4,23.8c0,0-1.6,2.4-1.3,4.6c0.3,2.2,1.6,7.2-0.8,9.4c-2.4,2.2-3.8,2.3-3.8,2.3s0.1-4.8,1-7.9
					c0.9-3.1-3.5,5.5-3.7,6.6c-0.2,1.1-1.9-2.3-1.2-4.9C67.3,31.3,70.3,25.7,76.4,23.8z"/>
				<path class="st1" d="M71.3,6.2c0,0-2.2,3.3-1.8,6.3c0.4,3,2.2,10-1,13.1c-3.3,3.1-5.3,3.2-5.3,3.2s0.1-6.7,1.4-11
					c1.3-4.3-4.8,7.6-5.1,9.1c-0.3,1.5-2.7-3.2-1.8-6.8C58.6,16.6,62.8,8.7,71.3,6.2z"/>
			</g>
		</g>
	</g>
</g>
</svg>
