<?xml version="1.0" encoding="utf-8"?>
<!-- Generator: Adobe Illustrator 19.2.1, SVG Export Plug-In . SVG Version: 6.00 Build 0)  -->
<svg version="1.1" id="Layer_1" xmlns="http://www.w3.org/2000/svg" xmlns:xlink="http://www.w3.org/1999/xlink" x="0px" y="0px"
	 viewBox="0 0 301 90" style="enable-background:new 0 0 301 90;" xml:space="preserve">
<style type="text/css">
	.st0{fill-rule:evenodd;clip-rule:evenodd;}
	.st1{fill-rule:evenodd;clip-rule:evenodd;fill:#A8B16C;}
	.st2{fill:#A8B16C;}
	.st3{fill:#FFFFFF;}
</style>
<g>
	<path class="st0" d="M-106.5,320.5h-5.5v6.2c0,9.1,5.1,24.4,26.9,24.4c14.9,0,27.3-9.5,27.3-26.3c0-13.9-7-19.8-19.1-24l-14-4.9
		c-8.2-2.8-13.9-7.8-13.9-18.2c0-14.6,9.6-19.5,20.2-19.5c13.3,0,19.1,8.4,19.1,21.1l5.5,0c0-15.7-7.8-25.6-25.2-25.6
		c-14.8,0-25.2,9.4-25.2,24.5c0,12.8,6.7,18.8,19.1,23.1l10.7,3.7c10.6,3.7,17.2,7.9,17.2,20.2c0,12-8.7,21.4-21.8,21.4
		c-13.6,0-21.4-9.2-21.4-21.2V320.5L-106.5,320.5z M-46,349.6h5v-69h-5V349.6L-46,349.6z M-32.6,285h9.4v53.7
		c0,7.5,3,11.6,10.2,11.6c2,0,4.6-0.3,7.1-0.8v-4.5c-2.2,0.7-4.1,0.8-6.2,0.8c-2.9,0-6.1-1.1-6.1-7.7V285h11.5v-4.5h-11.5v-20.5h-5
		v20.5l-9.4-3V285L-32.6,285z M3.8,310.2c0-9,2-26.8,17.3-26.8c14.3,0,16.2,14.3,16.2,26.8L3.8,310.2L3.8,310.2z M42.8,314.7
		c0-22.3-5.3-35.8-21.5-35.8C5.8,279-1.8,292-1.8,313.1c0,23.5,4.5,38,22.3,38c15.6,0,21.4-13.6,21.4-24.2l-5,0
		c0,5.1-2.4,19.7-16.9,19.7c-16.1,0-16.2-20.8-16.2-31.9H42.8L42.8,314.7z M159.6,349.6h5v-43.8c0-11.3,5.8-22.3,17.6-22.3h2.9V279
		h-2.9c-9.1,0-14.8,5.7-17.3,13.6l-0.3,0v-12h-5V349.6L159.6,349.6z M195.3,314.7c0-23.5,6.3-31.3,17.4-31.3
		c10.8,0,16.2,10.2,16.2,30.2c0,18.7-4.4,31.4-16.9,31.4C198.9,345.1,195.3,332.4,195.3,314.7L195.3,314.7z M233.9,280.6h-5V292
		h-0.3c-2.6-8.1-8.2-13.1-17.2-13.1c-18.2,0-21.8,16.9-21.8,35.8c0,18.9,4.5,34.8,20.7,34.8c12.1,0,16.1-7.9,18.1-14l0.4,0v12.7
		c0,14.4-4.9,21.1-16.6,21.1c-9.8,0-14.3-5.5-14.3-12.7l-5,0c0,3.6,1.2,17.2,18.7,17.2c17.2,0,22.2-11.1,22.2-28.1V280.6
		L233.9,280.6z M284.7,297.2c0-9.9-3.7-18.2-18.9-18.2c-16.1,0-19.5,11.9-19.5,21.2l5,0c0-9.5,3.4-16.8,15-16.8
		c7.5,0,13.3,2.6,13.3,15.2c0,5.8-0.8,8.6-6.7,10.2l-14.9,4.1c-9.8,2.6-14,8.6-14,19c0,10.7,5.3,19.3,17.3,19.3
		c9.2,0,16.1-5.6,18.1-12.7h0.3v4.4c0,5.4,3.8,7.5,5.9,7.5c2.2,0,4.2-0.4,5.3-1.2v-4c-0.9,0.5-2,0.7-3.2,0.7c-1.7,0-3-1.3-3-4.6
		V297.2L284.7,297.2z M279.7,323.6c0,13.9-5.7,23.1-17.4,23.1c-8.7,0-12.7-5.8-12.7-14.8c0-8.2,2.9-12.9,11-15.2l10.2-2.8
		c5.1-1.5,7-1.8,8.7-4.6h0.3V323.6L279.7,323.6z M299,349.6h5v-44.2c0-12,5.9-21.9,16.5-21.9c8.6,0,13.7,4.2,13.7,16.5v49.6h5v-52
		c0-13.1-7.7-18.6-17.4-18.6c-9.4,0-15.2,5.9-17.6,12l-0.3,0v-10.4h-5V349.6L299,349.6z M353.2,349.6h5v-40.1h-5V349.6L353.2,349.6z
		 M408.6,327c0,5.1-2.4,19.7-15,19.7c-12.8,0-17.6-10.2-17.6-31.7c0-19.8,4.8-31.5,17.6-31.5c11.9,0,14.6,12.7,14.6,16.9h5.5
		c0-5-3.3-21.4-20.1-21.4c-16.2,0-23.2,12.9-23.2,35.8c0,20.7,4.5,36.4,22.3,36.4c17.8,0,21.4-17.7,21.4-24.2L408.6,327L408.6,327z"
		/>
	<path class="st1" d="M355.5,303.4c-3.1,0-5.6-2.5-5.6-5.6c0-3.1,2.5-5.6,5.6-5.6c3.1,0,5.6,2.5,5.6,5.6
		C361.1,300.9,358.6,303.4,355.5,303.4L355.5,303.4z"/>
	<path class="st1" d="M355.5,290c-1.4,0-2.6-1.1-2.6-2.6c0-1.4,1.2-2.6,2.6-2.6c1.4,0,2.6,1.2,2.6,2.6
		C358,288.9,356.9,290,355.5,290L355.5,290z"/>
	<path class="st1" d="M355.5,283c-0.8,0-1.5-0.7-1.5-1.5c0-0.8,0.7-1.5,1.5-1.5c0.8,0,1.5,0.7,1.5,1.5
		C357,282.4,356.3,283,355.5,283L355.5,283z"/>
	<path class="st1" d="M101.8,242.2c-4.3,0-7.8,3.5-7.8,7.8c0,4.3,3.5,7.8,7.8,7.8c4.3,0,7.8-3.5,7.8-7.8
		C109.6,245.7,106.1,242.2,101.8,242.2L101.8,242.2z"/>
	<path class="st1" d="M101.8,260.8c-2,0-3.6,1.6-3.6,3.6c0,2,1.6,3.6,3.6,3.6c2,0,3.6-1.6,3.6-3.6
		C105.4,262.4,103.8,260.8,101.8,260.8L101.8,260.8z"/>
	<path class="st1" d="M101.8,270.5c-1.2,0-2.1,0.9-2.1,2.1c0,1.2,0.9,2.1,2.1,2.1c1.2,0,2.1-0.9,2.1-2.1S103,270.5,101.8,270.5
		L101.8,270.5z"/>
	<path class="st1" d="M129.1,255.9c3.9,1.9,5.5,6.5,3.6,10.4c-1.9,3.9-6.5,5.5-10.4,3.6c-3.9-1.9-5.5-6.5-3.6-10.4
		C120.6,255.6,125.3,254,129.1,255.9L129.1,255.9z"/>
	<path class="st1" d="M121,272.6c1.8,0.9,2.5,3,1.7,4.8c-0.9,1.8-3,2.5-4.8,1.7c-1.8-0.9-2.5-3-1.7-4.8
		C117.1,272.5,119.2,271.8,121,272.6L121,272.6z"/>
	<path class="st1" d="M116.8,281.3c1,0.5,1.5,1.8,1,2.8c-0.5,1-1.8,1.5-2.8,1c-1-0.5-1.5-1.8-1-2.8
		C114.5,281.3,115.7,280.8,116.8,281.3L116.8,281.3z"/>
	<path class="st1" d="M74.2,256.1c-3.7,2.2-5,6.9-2.8,10.7c2.2,3.7,6.9,5,10.7,2.8c3.7-2.2,5-6.9,2.8-10.7
		C82.7,255.2,78,254,74.2,256.1L74.2,256.1z"/>
	<path class="st1" d="M83.6,272.2c-1.7,1-2.3,3.2-1.3,4.9c1,1.7,3.2,2.3,4.9,1.3c1.7-1,2.3-3.2,1.3-4.9
		C87.5,271.8,85.3,271.2,83.6,272.2L83.6,272.2z"/>
	<path class="st1" d="M88.5,280.6c-1,0.6-1.3,1.9-0.8,2.9c0.6,1,1.9,1.3,2.9,0.8c1-0.6,1.3-1.9,0.8-2.9
		C90.8,280.3,89.5,280,88.5,280.6L88.5,280.6z"/>
	<path class="st1" d="M101.8,381.9c-4.3,0-7.8-3.5-7.8-7.8c0-4.3,3.5-7.8,7.8-7.8c4.3,0,7.8,3.5,7.8,7.8
		C109.6,378.4,106.1,381.9,101.8,381.9L101.8,381.9z"/>
	<path class="st1" d="M101.8,363.3c-2,0-3.6-1.6-3.6-3.6c0-2,1.6-3.6,3.6-3.6c2,0,3.6,1.6,3.6,3.6
		C105.4,361.7,103.8,363.3,101.8,363.3L101.8,363.3z"/>
	<path class="st1" d="M101.8,353.6c-1.2,0-2.1-0.9-2.1-2.1c0-1.2,0.9-2.1,2.1-2.1c1.2,0,2.1,0.9,2.1,2.1
		C103.9,352.7,103,353.6,101.8,353.6L101.8,353.6z"/>
	<path class="st1" d="M129.5,370.9c3.8-2.1,5.1-6.8,3-10.6c-2.1-3.8-6.8-5.1-10.6-3c-3.8,2.1-5.1,6.8-3,10.6
		C121,371.6,125.8,373,129.5,370.9L129.5,370.9z"/>
	<path class="st1" d="M120.5,354.6c1.7-1,2.3-3.1,1.4-4.9c-1-1.7-3.1-2.3-4.9-1.4c-1.7,1-2.3,3.1-1.4,4.9
		C116.6,354.9,118.8,355.6,120.5,354.6L120.5,354.6z"/>
	<path class="st1" d="M115.8,346.1c1-0.6,1.4-1.8,0.8-2.9c-0.6-1-1.8-1.4-2.9-0.8c-1,0.6-1.4,1.8-0.8,2.9
		C113.5,346.3,114.8,346.7,115.8,346.1L115.8,346.1z"/>
	<path class="st1" d="M73.8,370.5c-3.6-2.4-4.5-7.3-2-10.8c2.4-3.6,7.3-4.5,10.8-2c3.6,2.4,4.5,7.3,2,10.8
		C82.2,372,77.3,372.9,73.8,370.5L73.8,370.5z"/>
	<path class="st1" d="M84.3,355.1c-1.6-1.1-2-3.3-0.9-5c1.1-1.6,3.3-2,5-0.9c1.6,1.1,2,3.3,0.9,5C88.1,355.8,85.9,356.2,84.3,355.1
		L84.3,355.1z"/>
	<path class="st1" d="M89.7,347.1c-1-0.7-1.2-2-0.6-2.9c0.7-1,2-1.2,2.9-0.6c1,0.7,1.2,2,0.6,2.9C92,347.5,90.7,347.8,89.7,347.1
		L89.7,347.1z"/>
	<path class="st1" d="M143.3,346.7c2.4-3.6,1.4-8.4-2.2-10.8c-3.6-2.4-8.4-1.4-10.8,2.2c-2.4,3.6-1.4,8.4,2.2,10.8
		C136.1,351.2,140.9,350.2,143.3,346.7L143.3,346.7z"/>
	<path class="st1" d="M127.8,336.3c1.1-1.6,0.6-3.9-1-4.9c-1.6-1.1-3.9-0.6-4.9,1c-1.1,1.6-0.6,3.9,1,4.9
		C124.5,338.4,126.7,338,127.8,336.3L127.8,336.3z"/>
	<path class="st1" d="M119.7,331c0.6-1,0.4-2.3-0.6-2.9c-1-0.6-2.3-0.4-2.9,0.6c-0.6,1-0.4,2.3,0.6,2.9
		C117.8,332.2,119.1,331.9,119.7,331L119.7,331z"/>
	<path class="st1" d="M61.4,346.6c-2.3-3.6-1.3-8.4,2.3-10.8c3.6-2.4,8.4-1.3,10.8,2.3c2.3,3.6,1.3,8.4-2.3,10.8
		C68.6,351.2,63.7,350.2,61.4,346.6L61.4,346.6z"/>
	<path class="st1" d="M77,336.4c-1.1-1.6-0.6-3.9,1-4.9c1.7-1.1,3.9-0.6,4.9,1c1.1,1.7,0.6,3.9-1,4.9
		C80.3,338.5,78.1,338.1,77,336.4L77,336.4z"/>
	<path class="st1" d="M85.1,331.1c-0.6-1-0.4-2.3,0.6-2.9c1-0.6,2.3-0.4,2.9,0.6c0.6,1,0.4,2.3-0.6,2.9
		C87,332.4,85.7,332.1,85.1,331.1L85.1,331.1z"/>
	<path class="st1" d="M142.6,280.2c2.8,3.2,2.5,8.1-0.7,11c-3.2,2.8-8.1,2.5-11-0.7c-2.8-3.2-2.5-8.1,0.7-11
		C134.9,276.6,139.8,277,142.6,280.2L142.6,280.2z"/>
	<path class="st1" d="M128.7,292.5c1.3,1.5,1.2,3.7-0.3,5c-1.5,1.3-3.7,1.2-5-0.3c-1.3-1.5-1.2-3.7,0.3-5
		C125.1,290.9,127.4,291,128.7,292.5L128.7,292.5z"/>
	<path class="st1" d="M121.4,298.9c0.8,0.9,0.7,2.2-0.2,3c-0.9,0.8-2.2,0.7-3-0.2c-0.8-0.9-0.7-2.2,0.2-3
		C119.3,298,120.7,298,121.4,298.9L121.4,298.9z"/>
	<path class="st1" d="M61.6,280.7c-2.5,3.5-1.8,8.3,1.7,10.9c3.5,2.5,8.3,1.8,10.9-1.7c2.5-3.5,1.8-8.3-1.7-10.9
		C69,276.5,64.2,277.3,61.6,280.7L61.6,280.7z"/>
	<path class="st1" d="M76.6,291.7c-1.2,1.6-0.8,3.8,0.8,5c1.6,1.2,3.8,0.8,5-0.8c1.2-1.6,0.8-3.8-0.8-5
		C80,289.8,77.8,290.1,76.6,291.7L76.6,291.7z"/>
	<path class="st1" d="M84.5,297.5c-0.7,0.9-0.5,2.3,0.5,2.9c0.9,0.7,2.3,0.5,2.9-0.5c0.7-0.9,0.5-2.3-0.5-2.9
		C86.5,296.3,85.1,296.5,84.5,297.5L84.5,297.5z"/>
	<path class="st1" d="M146.7,313.2c0-4.3-3.5-7.8-7.8-7.8c-4.3,0-7.8,3.5-7.8,7.8c0,4.3,3.5,7.8,7.8,7.8
		C143.2,321,146.7,317.5,146.7,313.2L146.7,313.2z"/>
	<path class="st1" d="M128.1,313.2c0-2-1.6-3.6-3.6-3.6c-2,0-3.6,1.6-3.6,3.6c0,2,1.6,3.6,3.6,3.6
		C126.5,316.7,128.1,315.1,128.1,313.2L128.1,313.2z"/>
	<path class="st1" d="M118.4,313.2c0-1.2-0.9-2.1-2.1-2.1c-1.2,0-2.1,0.9-2.1,2.1c0,1.2,0.9,2.1,2.1,2.1
		C117.4,315.3,118.4,314.3,118.4,313.2L118.4,313.2z"/>
	<path class="st1" d="M57.8,313.2c0-4.3,3.5-7.8,7.8-7.8c4.3,0,7.8,3.5,7.8,7.8c0,4.3-3.5,7.8-7.8,7.8
		C61.2,321,57.8,317.5,57.8,313.2L57.8,313.2z"/>
	<path class="st1" d="M76.4,313.2c0-2,1.6-3.6,3.6-3.6c2,0,3.6,1.6,3.6,3.6c0,2-1.6,3.6-3.6,3.6C78,316.7,76.4,315.1,76.4,313.2
		L76.4,313.2z"/>
	<path class="st1" d="M86.1,313.2c0-1.2,0.9-2.1,2.1-2.1c1.2,0,2.1,0.9,2.1,2.1c0,1.2-0.9,2.1-2.1,2.1
		C87,315.3,86.1,314.3,86.1,313.2L86.1,313.2z"/>
</g>
<text id="XMLID_1_" transform="matrix(1 0 0 1 -105.928 587.041)" style="font-family:'HelveticaNeueLTStd-LtCn'; font-size:89.0965px;">Site</text>
<path id="XMLID_53_" d="M138.5,539.7h5.3v7.4h0.2c2-5.3,6.4-8.5,11.9-8.5c0.6,0,1.2,0.1,1.9,0.3v5.3c-0.9-0.2-1.8-0.3-2.6-0.3
	c-5.9,0-11.4,4.3-11.4,13.5V587h-5.3V539.7z"/>
<path id="XMLID_55_" d="M187.7,539.7h4.8v43.9c0,13.1-4.8,19.8-15.5,19.8c-9.2,0-14-4.8-14.1-11.6h5.3c0,4.5,4.2,7.1,8.9,7.1
	c6.5,0,10-4.5,10-12.9v-7.5h-0.2c-1.7,5.8-6.1,8.5-11,8.5c-7.3,0-14.6-4.8-14.6-23.7c0-16.3,4.7-24.7,15.1-24.7c5.2,0,9.4,3,11,8.4
	h0.2V539.7z M177,582.6c6.3,0,10.1-4.6,10.1-19.8c0-15.1-3.7-19.7-10.1-19.7s-10.1,4.6-10.1,19.7C167,578,170.7,582.6,177,582.6z"/>
<path id="XMLID_58_" d="M201.8,553.8c0-9.7,4.6-15.1,14.6-15.1c9.8,0,13.4,5.1,13.4,12.6v28c0,2.7,0.9,3.9,2.8,3.9h1.5v3.9
	c-1,0.4-1.8,0.5-2.5,0.5c-4.2,0-6.9-1-6.9-5.9v-1.6h-0.2c-2.1,6.2-6.9,8-12.2,8c-8.3,0-12-5.2-12-13.4c0-6.2,2.9-11.2,9.5-13.1
	l10.1-2.9c3.7-1.1,4.5-2,4.5-7.5c0-6.1-3.4-8.2-8.2-8.2c-6.3,0-9.1,3.8-9.1,10.7H201.8z M224.4,560.3h-0.2c-0.5,1.6-3.6,2.6-5.7,3.1
	l-4.5,1.2c-5.3,1.4-8.1,4.2-8.1,9.8c0,5.5,2.9,9.3,7.5,9.3c6.5,0,11-4.9,11-13.4V560.3z"/>
<path id="XMLID_61_" d="M240.8,539.7h4.8v6.6h0.2c2.7-5.3,7.3-7.7,12.1-7.7c7.2,0,12.1,3.7,12.1,12.7V587h-5.3v-34.2
	c0-6.5-2.7-9.7-8.1-9.7c-6.2,0-10.4,4.8-10.4,12.1V587h-5.3V539.7z"/>
<rect id="XMLID_64_" x="280.7" y="556.6" width="5.3" height="30.4"/>
<path id="XMLID_66_" d="M325.1,571.4c-0.8,10.1-6.3,16.8-15.1,16.8c-10,0-15.9-6.9-15.9-24.8c0-16.4,5.9-24.7,16.3-24.7
	c8.9,0,14.1,5.4,14.6,15.1h-5.3c-0.6-7.4-3.6-10.7-9.3-10.7c-5.8,0-10.6,3.6-10.6,20.3c0,17.8,5.1,20.2,10.1,20.2
	c5.4,0,8.9-4,9.8-12.3H325.1z"/>
<g id="XMLID_6_">
	<g id="XMLID_3_">
		
			<ellipse id="XMLID_2_" transform="matrix(3.333649e-002 -0.9994 0.9994 3.333649e-002 -415.3501 552.5623)" class="st2" cx="78" cy="491" rx="7.1" ry="7.1"/>
		
			<ellipse id="XMLID_4_" transform="matrix(3.333649e-002 -0.9994 0.9994 3.333649e-002 -428.032 564.0351)" class="st2" cx="77.6" cy="503.3" rx="3.1" ry="3.1"/>
		
			<ellipse id="XMLID_5_" transform="matrix(3.333649e-002 -0.9994 0.9994 3.333649e-002 -436.5543 571.7449)" class="st2" cx="77.3" cy="511.6" rx="1.7" ry="1.7"/>
	</g>
	<g id="XMLID_7_">
		
			<ellipse id="XMLID_10_" transform="matrix(0.5705 -0.8213 0.8213 0.5705 -369.2765 303.6983)" class="st2" cx="105.7" cy="504.9" rx="7.1" ry="7.1"/>
		
			<ellipse id="XMLID_9_" transform="matrix(0.5705 -0.8213 0.8213 0.5705 -380.5861 302.2737)" class="st2" cx="98.7" cy="515" rx="3.1" ry="3.1"/>
		
			<ellipse id="XMLID_8_" transform="matrix(0.5705 -0.8213 0.8213 0.5705 -388.1862 301.3163)" class="st2" cx="94" cy="521.8" rx="1.7" ry="1.7"/>
	</g>
	<g id="XMLID_11_">
		
			<ellipse id="XMLID_14_" transform="matrix(0.9759 -0.2181 0.2181 0.9759 -113.2314 37.5583)" class="st2" cx="113.5" cy="531.7" rx="7.1" ry="7.1"/>
		
			<ellipse id="XMLID_13_" transform="matrix(0.9759 -0.2181 0.2181 0.9759 -114.1054 35.005)" class="st2" cx="101.5" cy="534.4" rx="3.1" ry="3.1"/>
		
			<ellipse id="XMLID_12_" transform="matrix(0.9759 -0.2181 0.2181 0.9759 -114.6927 33.2892)" class="st2" cx="93.5" cy="536.2" rx="1.7" ry="1.7"/>
	</g>
	<g id="XMLID_35_">
		
			<ellipse id="XMLID_38_" transform="matrix(0.8213 -0.5705 0.5705 0.8213 -279.0271 119.1014)" class="st2" cx="50.6" cy="504.9" rx="7.1" ry="7.1"/>
		
			<ellipse id="XMLID_37_" transform="matrix(0.8213 -0.5705 0.5705 0.8213 -283.536 124.9099)" class="st2" cx="57.6" cy="515" rx="3.1" ry="3.1"/>
		
			<ellipse id="XMLID_36_" transform="matrix(0.8213 -0.5705 0.5705 0.8213 -286.566 128.8132)" class="st2" cx="62.3" cy="521.8" rx="1.7" ry="1.7"/>
	</g>
	<g id="XMLID_31_">
		
			<ellipse id="XMLID_34_" transform="matrix(0.227 -0.9739 0.9739 0.227 -485.0413 452.4033)" class="st2" cx="42.5" cy="531.7" rx="7.1" ry="7.1"/>
		
			<ellipse id="XMLID_33_" transform="matrix(0.227 -0.9739 0.9739 0.227 -478.5011 466.2268)" class="st2" cx="54.4" cy="534.5" rx="3.1" ry="3.1"/>
		
			<ellipse id="XMLID_32_" transform="matrix(0.227 -0.9739 0.9739 0.227 -474.106 475.5164)" class="st2" cx="62.5" cy="536.4" rx="1.7" ry="1.7"/>
	</g>
	<g id="XMLID_47_">
		
			<ellipse id="XMLID_50_" transform="matrix(3.333649e-002 -0.9994 0.9994 3.333649e-002 -549.9932 683.4944)" class="st2" cx="78.3" cy="626.1" rx="7.1" ry="7.1"/>
		
			<ellipse id="XMLID_49_" transform="matrix(3.333649e-002 -0.9994 0.9994 3.333649e-002 -537.3113 672.0217)" class="st2" cx="78.7" cy="613.8" rx="3.1" ry="3.1"/>
		
			<ellipse id="XMLID_48_" transform="matrix(3.333649e-002 -0.9994 0.9994 3.333649e-002 -528.7889 664.3119)" class="st2" cx="79" cy="605.5" rx="1.7" ry="1.7"/>
	</g>
	<g id="XMLID_43_">
		
			<ellipse id="XMLID_46_" transform="matrix(0.5705 -0.8213 0.8213 0.5705 -481.0213 304.4432)" class="st2" cx="50.6" cy="612.1" rx="7.1" ry="7.1"/>
		
			<ellipse id="XMLID_45_" transform="matrix(0.5705 -0.8213 0.8213 0.5705 -469.7118 305.8678)" class="st2" cx="57.6" cy="602" rx="3.1" ry="3.1"/>
		
			<ellipse id="XMLID_44_" transform="matrix(0.5705 -0.8213 0.8213 0.5705 -462.1116 306.8252)" class="st2" cx="62.3" cy="595.3" rx="1.7" ry="1.7"/>
	</g>
	<g id="XMLID_39_">
		
			<ellipse id="XMLID_42_" transform="matrix(0.9759 -0.2181 0.2181 0.9759 -126.3644 23.3946)" class="st2" cx="42.8" cy="584.1" rx="7.1" ry="7.1"/>
		
			<ellipse id="XMLID_41_" transform="matrix(0.9759 -0.2181 0.2181 0.9759 -125.4904 25.9479)" class="st2" cx="54.8" cy="581.4" rx="3.1" ry="3.1"/>
		
			<ellipse id="XMLID_40_" transform="matrix(0.9759 -0.2181 0.2181 0.9759 -124.9031 27.6637)" class="st2" cx="62.9" cy="579.6" rx="1.7" ry="1.7"/>
	</g>
	<g id="XMLID_27_">
		
			<ellipse id="XMLID_30_" transform="matrix(0.8213 -0.5705 0.5705 0.8213 -330.3429 169.7142)" class="st2" cx="105.7" cy="612.1" rx="7.1" ry="7.1"/>
		
			<ellipse id="XMLID_29_" transform="matrix(0.8213 -0.5705 0.5705 0.8213 -325.8341 163.9058)" class="st2" cx="98.7" cy="602" rx="3.1" ry="3.1"/>
		
			<ellipse id="XMLID_28_" transform="matrix(0.8213 -0.5705 0.5705 0.8213 -322.804 160.0024)" class="st2" cx="94" cy="595.3" rx="1.7" ry="1.7"/>
	</g>
	<g id="XMLID_23_">
		
			<ellipse id="XMLID_26_" transform="matrix(0.227 -0.9739 0.9739 0.227 -480.8285 562.374)" class="st2" cx="113.8" cy="584.1" rx="7.1" ry="7.1"/>
		
			<ellipse id="XMLID_25_" transform="matrix(0.227 -0.9739 0.9739 0.227 -487.3687 548.5504)" class="st2" cx="101.9" cy="581.3" rx="3.1" ry="3.1"/>
		
			<ellipse id="XMLID_24_" transform="matrix(0.227 -0.9739 0.9739 0.227 -491.7638 539.2608)" class="st2" cx="93.8" cy="579.4" rx="1.7" ry="1.7"/>
	</g>
	<g id="XMLID_15_">
		
			<ellipse id="XMLID_18_" transform="matrix(2.863999e-002 -0.9996 0.9996 2.863999e-002 -516.7397 584.3006)" class="st2" cx="42.3" cy="558" rx="7.1" ry="7.1"/>
		
			<ellipse id="XMLID_17_" transform="matrix(2.863999e-002 -0.9996 0.9996 2.863999e-002 -505.1498 596.9318)" class="st2" cx="54.6" cy="558.4" rx="3.1" ry="3.1"/>
		
			<ellipse id="XMLID_16_" transform="matrix(2.863999e-002 -0.9996 0.9996 2.863999e-002 -497.3612 605.4202)" class="st2" cx="62.8" cy="558.6" rx="1.7" ry="1.7"/>
	</g>
	<g id="XMLID_19_">
		
			<ellipse id="XMLID_22_" transform="matrix(0.9996 -2.863999e-002 2.863999e-002 0.9996 -15.9567 3.4835)" class="st2" cx="113.6" cy="558.8" rx="7.1" ry="7.1"/>
		
			<ellipse id="XMLID_21_" transform="matrix(0.9996 -2.863999e-002 2.863999e-002 0.9996 -15.9719 3.1316)" class="st2" cx="101.3" cy="559.1" rx="3.1" ry="3.1"/>
		
			<ellipse id="XMLID_20_" transform="matrix(0.9996 -2.863999e-002 2.863999e-002 0.9996 -15.982 2.8951)" class="st2" cx="93.1" cy="559.4" rx="1.7" ry="1.7"/>
	</g>
</g>
<g id="XMLID_51_">
	<circle id="XMLID_65_" class="st2" cx="283.3" cy="544.6" r="7.1"/>
	<circle id="XMLID_63_" class="st2" cx="283.3" cy="532.3" r="3.1"/>
	<circle id="XMLID_52_" class="st2" cx="283.3" cy="524" r="1.7"/>
</g>
<path d="M-42.7-442.6c0-9.1-4.2-14.6-13.2-14.6c-9,0-14,5.9-14,13.2c0,22,35.8,9.9,35.8,35.9c0,14.3-8.9,21.6-22.3,21.6
	c-13.9,0-21.5-7.4-21.5-21.9v-2.2h6.6v2.8c0,9.4,5,15.7,14.7,15.7c9.3,0,15.9-4.7,15.9-15c0-21.9-35.8-9.4-35.8-36.2
	c0-11.6,7.6-19.6,20.4-19.6c13.8,0,20.1,7,20.1,20.2H-42.7z"/>
<rect x="-24.8" y="-442.6" width="6.2" height="54.9"/>
<path d="M-3.9-437.4h-7.6v-5.2h7.6v-15.2h6.2v15.2H12v5.2H2.3v39.4c0,4.3,1.9,5.8,5.9,5.8c1.2,0,2.5-0.2,3.8-0.6v5.2
	c-0.7,0.4-2.3,0.6-4.3,0.6c-8.4,0-11.6-2.3-11.6-9.6V-437.4z"/>
<path d="M52.6-405.9c-0.9,11.7-7.3,19.4-17.7,19.4c-11.6,0-18.4-8.1-18.4-28.8c0-19,6.8-28.7,18.9-28.7c12.2,0,17.7,8.4,17.7,26.7
	v2.3h-30v2.6c0,15.8,5.6,20.7,11.7,20.7c6.5,0,10.6-4.7,11.6-14.3H52.6z M46.5-420.1c-0.2-13.7-4-18.6-11.7-18.6
	c-7.7,0-11.5,5-11.7,18.6H46.5z"/>
<path id="XMLID_132_" d="M165.2-442.6h6.2v8.6h0.2c2.4-6.1,7.4-9.8,13.9-9.8c0.7,0,1.4,0.1,2.2,0.3v6.2c-1-0.2-2.1-0.3-3-0.3
	c-6.8,0-13.2,5-13.2,15.6v34.3h-6.2V-442.6z"/>
<path id="XMLID_129_" d="M222.3-442.6h5.6v51c0,15.2-5.6,23-18,23c-10.7,0-16.2-5.6-16.3-13.4h6.2c0,5.2,4.9,8.3,10.3,8.3
	c7.6,0,11.6-5.3,11.6-15v-8.7h-0.2c-2,6.7-7.1,9.8-12.8,9.8c-8.5,0-17-5.6-17-27.5c0-18.9,5.5-28.7,17.6-28.7c6,0,10.9,3.5,12.8,9.7
	h0.2V-442.6z M210-392.9c7.3,0,11.7-5.4,11.7-23c0-17.5-4.3-22.9-11.7-22.9s-11.7,5.4-11.7,22.9C198.3-398.2,202.6-392.9,210-392.9z
	"/>
<path id="XMLID_126_" d="M238.7-426.3c0-11.3,5.4-17.6,17-17.6c11.4,0,15.5,5.9,15.5,14.6v32.5c0,3.1,1,4.6,3.2,4.6h1.8v4.6
	c-1.1,0.4-2.1,0.6-2.9,0.6c-4.9,0-8-1.1-8-6.8v-1.9h-0.2c-2.5,7.2-8.1,9.3-14.2,9.3c-9.6,0-14-6-14-15.5c0-7.2,3.3-13,11.1-15.2
	l11.7-3.3c4.3-1.2,5.3-2.3,5.3-8.7c0-7-3.9-9.5-9.5-9.5c-7.3,0-10.6,4.4-10.6,12.4H238.7z M265-418.7h-0.2c-0.6,1.9-4.1,3-6.6,3.6
	l-5.2,1.3c-6.2,1.7-9.4,4.9-9.4,11.4c0,6.4,3.3,10.8,8.7,10.8c7.6,0,12.7-5.7,12.7-15.5V-418.7z"/>
<path id="XMLID_124_" d="M283.9-442.6h5.6v7.7h0.2c3.1-6.1,8.5-8.9,14.1-8.9c8.4,0,14.1,4.3,14.1,14.7v41.5h-6.2v-39.7
	c0-7.6-3.1-11.3-9.4-11.3c-7.2,0-12.1,5.6-12.1,14.1v36.9h-6.2V-442.6z"/>
<rect id="XMLID_123_" x="330.2" y="-423" width="6.2" height="35.3"/>
<path id="XMLID_121_" d="M381.9-405.9c-0.9,11.7-7.3,19.4-17.5,19.4c-11.6,0-18.4-8.1-18.4-28.8c0-19,6.8-28.7,18.9-28.7
	c10.3,0,16.3,6.3,17,17.6h-6.2c-0.7-8.6-4.1-12.4-10.8-12.4c-6.7,0-12.3,4.1-12.3,23.6c0,20.7,5.9,23.5,11.7,23.5
	c6.3,0,10.3-4.7,11.4-14.3H381.9z"/>
<g id="XMLID_72_">
	<g id="XMLID_117_">
		
			<ellipse id="XMLID_120_" transform="matrix(3.333649e-002 -0.9994 0.9994 3.333649e-002 570.3575 -347.4584)" class="st2" cx="105.6" cy="-468.6" rx="6.7" ry="6.7"/>
		
			<ellipse id="XMLID_119_" transform="matrix(3.333649e-002 -0.9994 0.9994 3.333649e-002 558.3661 -336.6104)" class="st2" cx="105.2" cy="-457" rx="2.9" ry="2.9"/>
		
			<ellipse id="XMLID_118_" transform="matrix(3.333649e-002 -0.9994 0.9994 3.333649e-002 550.3078 -329.3203)" class="st2" cx="104.9" cy="-449.1" rx="1.7" ry="1.7"/>
	</g>
	<g id="XMLID_113_">
		
			<ellipse id="XMLID_116_" transform="matrix(0.5705 -0.8213 0.8213 0.5705 430.6313 -87.3379)" class="st2" cx="131.8" cy="-455.4" rx="6.7" ry="6.7"/>
		
			<ellipse id="XMLID_115_" transform="matrix(0.5705 -0.8213 0.8213 0.5705 419.9374 -88.685)" class="st2" cx="125.2" cy="-445.9" rx="2.9" ry="2.9"/>
		
			<ellipse id="XMLID_114_" transform="matrix(0.5705 -0.8213 0.8213 0.5705 412.7511 -89.5902)" class="st2" cx="120.7" cy="-439.4" rx="1.7" ry="1.7"/>
	</g>
	<g id="XMLID_109_">
		
			<ellipse id="XMLID_112_" transform="matrix(0.9759 -0.2181 0.2181 0.9759 97.1501 19.9989)" class="st2" cx="139.2" cy="-430.1" rx="6.7" ry="6.7"/>
		
			<ellipse id="XMLID_111_" transform="matrix(0.9759 -0.2181 0.2181 0.9759 96.3237 17.5846)" class="st2" cx="127.8" cy="-427.5" rx="2.9" ry="2.9"/>
		
			<ellipse id="XMLID_110_" transform="matrix(0.9759 -0.2181 0.2181 0.9759 95.7684 15.9622)" class="st2" cx="120.2" cy="-425.8" rx="1.7" ry="1.7"/>
	</g>
	<g id="XMLID_105_">
		
			<ellipse id="XMLID_108_" transform="matrix(0.8213 -0.5705 0.5705 0.8213 274.0561 -35.9367)" class="st2" cx="79.7" cy="-455.4" rx="6.7" ry="6.7"/>
		
			<ellipse id="XMLID_107_" transform="matrix(0.8213 -0.5705 0.5705 0.8213 269.7928 -30.4445)" class="st2" cx="86.3" cy="-445.9" rx="2.9" ry="2.9"/>
		
			<ellipse id="XMLID_106_" transform="matrix(0.8213 -0.5705 0.5705 0.8213 266.9277 -26.7537)" class="st2" cx="90.8" cy="-439.4" rx="1.7" ry="1.7"/>
	</g>
	<g id="XMLID_101_">
		
			<ellipse id="XMLID_104_" transform="matrix(0.227 -0.9739 0.9739 0.227 474.4645 -262.325)" class="st2" cx="72" cy="-430" rx="6.7" ry="6.7"/>
		
			<ellipse id="XMLID_103_" transform="matrix(0.227 -0.9739 0.9739 0.227 480.6486 -249.254)" class="st2" cx="83.3" cy="-427.4" rx="2.9" ry="2.9"/>
		
			<ellipse id="XMLID_102_" transform="matrix(0.227 -0.9739 0.9739 0.227 484.8044 -240.4702)" class="st2" cx="90.9" cy="-425.6" rx="1.7" ry="1.7"/>
	</g>
	<g id="XMLID_97_">
		
			<ellipse id="XMLID_100_" transform="matrix(3.333649e-002 -0.9994 0.9994 3.333649e-002 443.0452 -223.655)" class="st2" cx="105.9" cy="-340.9" rx="6.7" ry="6.7"/>
		
			<ellipse id="XMLID_99_" transform="matrix(3.333649e-002 -0.9994 0.9994 3.333649e-002 455.0366 -234.5031)" class="st2" cx="106.3" cy="-352.5" rx="2.9" ry="2.9"/>
		
			<ellipse id="XMLID_98_" transform="matrix(3.333649e-002 -0.9994 0.9994 3.333649e-002 463.095 -241.7932)" class="st2" cx="106.6" cy="-360.3" rx="1.7" ry="1.7"/>
	</g>
	<g id="XMLID_93_">
		
			<ellipse id="XMLID_96_" transform="matrix(0.5705 -0.8213 0.8213 0.5705 324.9705 -86.6336)" class="st2" cx="79.7" cy="-354" rx="6.7" ry="6.7"/>
		
			<ellipse id="XMLID_95_" transform="matrix(0.5705 -0.8213 0.8213 0.5705 335.6642 -85.2865)" class="st2" cx="86.3" cy="-363.6" rx="2.9" ry="2.9"/>
		
			<ellipse id="XMLID_94_" transform="matrix(0.5705 -0.8213 0.8213 0.5705 342.8506 -84.3813)" class="st2" cx="90.7" cy="-370" rx="1.7" ry="1.7"/>
	</g>
	<g id="XMLID_89_">
		
			<ellipse id="XMLID_92_" transform="matrix(0.9759 -0.2181 0.2181 0.9759 84.7322 6.6064)" class="st2" cx="72.3" cy="-380.5" rx="6.7" ry="6.7"/>
		
			<ellipse id="XMLID_91_" transform="matrix(0.9759 -0.2181 0.2181 0.9759 85.5585 9.0206)" class="st2" cx="83.6" cy="-383.1" rx="2.9" ry="2.9"/>
		
			<ellipse id="XMLID_90_" transform="matrix(0.9759 -0.2181 0.2181 0.9759 86.1139 10.643)" class="st2" cx="91.3" cy="-384.8" rx="1.7" ry="1.7"/>
	</g>
	<g id="XMLID_85_">
		
			<ellipse id="XMLID_88_" transform="matrix(0.8213 -0.5705 0.5705 0.8213 225.5343 11.9205)" class="st2" cx="131.8" cy="-354" rx="6.7" ry="6.7"/>
		
			<ellipse id="XMLID_87_" transform="matrix(0.8213 -0.5705 0.5705 0.8213 229.7976 6.4283)" class="st2" cx="125.2" cy="-363.6" rx="2.9" ry="2.9"/>
		
			<ellipse id="XMLID_86_" transform="matrix(0.8213 -0.5705 0.5705 0.8213 232.6627 2.7374)" class="st2" cx="120.7" cy="-370" rx="1.7" ry="1.7"/>
	</g>
	<g id="XMLID_81_">
		
			<ellipse id="XMLID_84_" transform="matrix(0.227 -0.9739 0.9739 0.227 478.4479 -158.3417)" class="st2" cx="139.5" cy="-380.6" rx="6.7" ry="6.7"/>
		
			<ellipse id="XMLID_83_" transform="matrix(0.227 -0.9739 0.9739 0.227 472.2639 -171.4126)" class="st2" cx="128.2" cy="-383.2" rx="2.9" ry="2.9"/>
		
			<ellipse id="XMLID_82_" transform="matrix(0.227 -0.9739 0.9739 0.227 468.108 -180.1964)" class="st2" cx="120.5" cy="-385" rx="1.7" ry="1.7"/>
	</g>
	<g id="XMLID_77_">
		
			<ellipse id="XMLID_80_" transform="matrix(2.863999e-002 -0.9996 0.9996 2.863999e-002 474.7735 -321.8247)" class="st2" cx="71.8" cy="-405.2" rx="6.7" ry="6.7"/>
		
			<ellipse id="XMLID_79_" transform="matrix(2.863999e-002 -0.9996 0.9996 2.863999e-002 485.7324 -309.8812)" class="st2" cx="83.4" cy="-404.9" rx="2.9" ry="2.9"/>
		
			<ellipse id="XMLID_78_" transform="matrix(2.863999e-002 -0.9996 0.9996 2.863999e-002 493.0969 -301.8549)" class="st2" cx="91.2" cy="-404.6" rx="1.7" ry="1.7"/>
	</g>
	<g id="XMLID_73_">
		
			<ellipse id="XMLID_76_" transform="matrix(0.9996 -2.863999e-002 2.863999e-002 0.9996 11.6418 3.8228)" class="st2" cx="139.3" cy="-404.5" rx="6.7" ry="6.7"/>
		
			<ellipse id="XMLID_75_" transform="matrix(0.9996 -2.863999e-002 2.863999e-002 0.9996 11.6274 3.49)" class="st2" cx="127.6" cy="-404.2" rx="2.9" ry="2.9"/>
		
			<ellipse id="XMLID_74_" transform="matrix(0.9996 -2.863999e-002 2.863999e-002 0.9996 11.6178 3.2664)" class="st2" cx="119.8" cy="-403.9" rx="1.7" ry="1.7"/>
	</g>
</g>
<g id="XMLID_68_">
	<circle id="XMLID_71_" class="st2" cx="333.3" cy="-437" r="8.2"/>
	<circle id="XMLID_70_" class="st2" cx="333.3" cy="-451.3" r="3.6"/>
	<circle id="XMLID_69_" class="st2" cx="333.3" cy="-460.9" r="2"/>
</g>
<g>
	<path class="st3" d="M-73.9-175.2h-4.8v5.4c0,7.9,4.5,21.4,23.7,21.4c13,0,24-8.5,24-23.1c0-12.1-6.2-17.5-16.9-21.2l-12.4-4.2
		c-7.1-2.3-12.1-6.8-12.1-15.8c0-13,8.5-17.2,17.8-17.2c11.8,0,16.9,7.3,16.9,18.6h4.8c0-13.8-6.8-22.6-22.3-22.6
		c-13,0-22.3,8.2-22.3,21.4c0,11.3,5.9,16.6,16.9,20.3l9.3,3.4c9.3,3.1,15,7.1,15,17.8c0,10.4-7.6,18.9-19.2,18.9
		c-11.8,0-18.9-8.2-18.9-18.6v-4.5H-73.9z"/>
	<polygon class="st3" points="-20.6,-149.5 -16.1,-149.5 -16.1,-210.1 -20.6,-210.1 -20.6,-149.5 	"/>
	<path class="st3" d="M-9-206.5h8.2v47.1c0,6.5,2.5,10.2,9,10.2c1.7,0,3.9-0.3,6.2-0.8v-3.9c-2,0.6-3.7,0.6-5.4,0.6
		c-2.5,0-5.4-0.8-5.4-6.8v-46.3h10.2v-3.9H3.7v-17.8h-4.5v18.1H-9L-9-206.5L-9-206.5z"/>
	<path class="st3" d="M23.1-184.2c0-7.9,1.7-23.4,15.2-23.4c12.4,0,14.4,12.4,14.4,23.4H23.1L23.1-184.2z M57.2-180.2
		c0-19.5-4.5-31.3-18.9-31.3C24.5-211.6,18-200,18-181.7c0,20.6,3.9,33.3,19.5,33.3c13.8,0,18.9-11.8,18.9-21.2h-4.5
		c0,4.5-2,17.2-15,17.2c-14.1,0-14.4-18.3-14.4-28.2h34.7V-180.2z"/>
</g>
<g>
	<path class="st3" d="M159.9-149.5h4.5v-38.6c0-9.9,5.1-19.5,15.5-19.5h2.5v-3.9h-2.5c-7.9,0-13,5.1-15.2,11.8h-0.3v-10.4h-4.5
		V-149.5L159.9-149.5z"/>
	<path class="st3" d="M191.2-180.2c0-20.6,5.6-27.4,15.2-27.4c9.6,0,14.4,9,14.4,26.5c0,16.4-3.9,27.6-15,27.6
		C194.6-153.5,191.2-164.7,191.2-180.2L191.2-180.2z M225.4-210.1h-4.5v10.2h-0.3c-2.3-7.1-7.1-11.6-15-11.6
		c-16.1,0-19.2,15-19.2,31.3c0,16.6,3.9,30.7,18.3,30.7c10.7,0,14.1-7.1,15.8-12.4h0.3v11c0,12.7-4.2,18.6-14.7,18.6
		c-8.5,0-12.4-4.8-12.4-11h-4.5c0,3.1,1.1,15,16.4,15c15,0,19.5-9.9,19.5-24.8v-57H225.4z"/>
	<path class="st3" d="M269.9-195.8c0-8.7-3.4-16.1-16.6-16.1c-14.1,0-17.2,10.4-17.2,18.6h4.5c0-8.5,3.1-14.7,13.3-14.7
		c6.5,0,11.8,2.3,11.8,13.3c0,5.1-0.6,7.6-5.9,9l-13,3.7c-8.5,2.3-12.4,7.6-12.4,16.6c0,9.3,4.5,16.9,15.2,16.9
		c8.2,0,14.1-4.8,15.8-11.3h0.3v3.9c0,4.8,3.4,6.8,5.4,6.8s3.7-0.3,4.5-1.1v-3.4c-0.8,0.6-1.7,0.6-2.8,0.6c-1.4,0-2.5-1.1-2.5-3.9
		v-38.9H269.9z M265.4-172.3c0,12.1-5.1,20.3-15.2,20.3c-7.6,0-11-5.1-11-13c0-7.1,2.5-11.3,9.6-13.3l9-2.5c4.5-1.4,6.2-1.7,7.6-3.9
		h0.3v12.4H265.4z"/>
	<path class="st3" d="M282.3-149.5h4.5v-38.9c0-10.4,5.4-19.2,14.4-19.2c7.6,0,12.1,3.7,12.1,14.4v43.7h4.5v-45.7
		c0-11.6-6.8-16.4-15.2-16.4c-8.2,0-13.3,5.4-15.5,10.4h-0.3v-9h-4.5V-149.5L282.3-149.5z"/>
	<polygon class="st3" points="330,-149.5 334.5,-149.5 334.5,-185 330,-185 330,-149.5 	"/>
	<path class="st3" d="M378.8-169.5c0,4.5-2,17.2-13.3,17.2c-11.3,0-15.5-9-15.5-27.9c0-17.5,4.2-27.6,15.5-27.6c10.4,0,13,11,13,15
		h4.8c0-4.5-2.8-18.9-17.5-18.9c-14.4,0-20.3,11.3-20.3,31.3c0,18.3,3.9,32.2,19.5,32.2c15.8,0,18.9-15.5,18.9-21.2H378.8
		L378.8-169.5z"/>
	<path class="st3" d="M332-190.1c-2.8,0-4.8-2.3-4.8-4.8c0-2.8,2.3-4.8,4.8-4.8c2.8,0,4.8,2.3,4.8,4.8
		C337.1-192.4,334.8-190.1,332-190.1L332-190.1z"/>
	<path class="st3" d="M332-202c-1.1,0-2.3-1.1-2.3-2.3s1.1-2.3,2.3-2.3c1.1,0,2.3,1.1,2.3,2.3C334.2-203.1,333.4-202,332-202
		L332-202z"/>
	<path class="st3" d="M332-208.2c-0.8,0-1.4-0.6-1.4-1.4s0.6-1.4,1.4-1.4s1.4,0.6,1.4,1.4S332.8-208.2,332-208.2L332-208.2z"/>
</g>
<g>
	<path class="st3" d="M109.1-244c-3.7,0-6.8,3.1-6.8,6.8c0,3.7,3.1,6.8,6.8,6.8c3.9,0,6.8-2.8,6.8-6.8
		C115.9-240.9,113.1-244,109.1-244L109.1-244z"/>
	<path class="st3" d="M109.1-227.6c-1.7,0-3.1,1.4-3.1,3.1s1.4,3.1,3.1,3.1c1.7,0,3.1-1.4,3.1-3.1S110.8-227.6,109.1-227.6
		L109.1-227.6z"/>
	<path class="st3" d="M109.1-219.2c-1.1,0-2,0.8-2,2s0.8,2,2,2c1.1,0,2-0.8,2-2S110.3-219.2,109.1-219.2L109.1-219.2z"/>
	<path class="st3" d="M133.1-231.9c3.4,1.7,4.8,5.6,3.1,9c-1.7,3.4-5.6,4.8-9,3.1c-3.4-1.7-4.8-5.6-3.1-9
		C125.8-232.1,129.7-233.6,133.1-231.9L133.1-231.9z"/>
	<path class="st3" d="M126.1-217.2c1.7,0.8,2.3,2.5,1.4,4.2c-0.8,1.7-2.5,2.3-4.2,1.4c-1.7-0.8-2.3-2.5-1.4-4.2
		C122.7-217.5,124.4-218,126.1-217.2L126.1-217.2z"/>
	<path class="st3" d="M122.4-209.6c0.8,0.6,1.4,1.7,0.8,2.5c-0.6,0.8-1.7,1.4-2.5,0.8c-0.8-0.6-1.4-1.7-0.8-2.5
		S121.6-210.1,122.4-209.6L122.4-209.6z"/>
	<path class="st3" d="M84.9-231.9c-3.4,2-4.2,6.2-2.5,9.3c2,3.4,6.2,4.2,9.3,2.5c3.4-2,4.2-6.2,2.5-9.3
		C92.5-232.4,88.3-233.6,84.9-231.9L84.9-231.9z"/>
	<path class="st3" d="M93.4-217.5c-1.4,0.8-2,2.8-1.1,4.2c0.8,1.4,2.8,2,4.2,1.1c1.4-0.8,2-2.8,1.1-4.2
		C96.7-218,94.8-218.6,93.4-217.5L93.4-217.5z"/>
	<path class="st3" d="M97.6-210.1c-0.8,0.6-1.1,1.7-0.6,2.5c0.6,0.8,1.7,1.1,2.5,0.6c0.8-0.6,1.1-1.7,0.6-2.5
		C99.6-210.4,98.4-210.7,97.6-210.1L97.6-210.1z"/>
	<path class="st3" d="M109.1-121.3c-3.7,0-6.8-3.1-6.8-6.8c0-3.7,3.1-6.8,6.8-6.8c3.7,0,6.8,3.1,6.8,6.8
		C115.9-124.4,113.1-121.3,109.1-121.3L109.1-121.3z"/>
	<path class="st3" d="M109.1-137.7c-1.7,0-3.1-1.4-3.1-3.1s1.4-3.1,3.1-3.1c1.7,0,3.1,1.4,3.1,3.1S110.8-137.7,109.1-137.7
		L109.1-137.7z"/>
	<path class="st3" d="M109.1-146.1c-1.1,0-2-0.8-2-2c0-1.1,0.8-2,2-2c1.1,0,2,0.8,2,2C111.1-147,110.3-146.1,109.1-146.1
		L109.1-146.1z"/>
	<path class="st3" d="M133.4-130.9c3.4-1.7,4.5-5.9,2.5-9.3c-1.7-3.4-5.9-4.5-9.3-2.5c-3.4,1.7-4.5,5.9-2.5,9.3
		C126.1-130.3,130.3-129.2,133.4-130.9L133.4-130.9z"/>
	<path class="st3" d="M125.5-145.3c1.4-0.8,2-2.8,1.1-4.2c-0.8-1.4-2.8-2-4.2-1.1c-1.4,0.8-2,2.8-1.1,4.2
		C122.1-145,124.1-144.4,125.5-145.3L125.5-145.3z"/>
	<path class="st3" d="M121.6-152.6c0.8-0.6,1.1-1.7,0.8-2.5c-0.6-0.8-1.7-1.1-2.5-0.8c-0.8,0.6-1.1,1.7-0.8,2.5
		C119.6-152.6,120.7-152,121.6-152.6L121.6-152.6z"/>
	<path class="st3" d="M84.6-131.2c-3.1-2.3-3.9-6.5-1.7-9.6c2.3-3.1,6.5-3.9,9.6-1.7c3.1,2.3,3.9,6.5,1.7,9.6
		C91.9-129.8,87.7-129.2,84.6-131.2L84.6-131.2z"/>
	<path class="st3" d="M93.6-144.7c-1.4-0.8-1.7-2.8-0.8-4.2c0.8-1.4,2.8-1.7,4.2-0.8c1.4,0.8,1.7,2.8,0.8,4.2
		C97-144.1,95.3-143.9,93.6-144.7L93.6-144.7z"/>
	<path class="st3" d="M98.7-151.8c-0.8-0.6-1.1-1.7-0.6-2.5c0.6-0.8,1.7-1.1,2.5-0.6s1.1,1.7,0.6,2.5
		C100.7-151.5,99.3-151.2,98.7-151.8L98.7-151.8z"/>
	<path class="st3" d="M145.5-152.3c2-3.1,1.1-7.3-2-9.6c-3.1-2-7.3-1.1-9.6,2c-2,3.1-1.1,7.3,2,9.6
		C139.3-148.1,143.6-148.9,145.5-152.3L145.5-152.3z"/>
	<path class="st3" d="M132-161.3c0.8-1.4,0.6-3.4-0.8-4.2c-1.4-0.8-3.4-0.6-4.2,0.8c-0.8,1.4-0.6,3.4,0.8,4.2
		C129.2-159.4,131.1-159.9,132-161.3L132-161.3z"/>
	<path class="st3" d="M124.9-165.9c0.6-0.8,0.3-2-0.6-2.5c-0.8-0.6-2-0.3-2.5,0.6c-0.6,0.8-0.3,2,0.6,2.5
		C123.3-165,124.4-165,124.9-165.9L124.9-165.9z"/>
	<path class="st3" d="M73.6-152.3c-2-3.1-1.1-7.3,2-9.6c3.1-2,7.3-1.1,9.6,2c2,3.1,1.1,7.3-2,9.6S75.6-148.9,73.6-152.3L73.6-152.3z
		"/>
	<path class="st3" d="M87.4-161.1c-0.8-1.4-0.6-3.4,0.8-4.2c1.4-0.8,3.4-0.6,4.2,0.8c0.8,1.4,0.6,3.4-0.8,4.2
		C90.2-159.4,88.3-159.7,87.4-161.1L87.4-161.1z"/>
	<path class="st3" d="M94.5-165.9c-0.6-0.8-0.3-2,0.6-2.5c0.8-0.6,2-0.3,2.5,0.6c0.6,0.8,0.3,2-0.6,2.5
		C96.2-164.7,95-165,94.5-165.9L94.5-165.9z"/>
	<path class="st3" d="M145-210.7c2.5,2.8,2.3,7.1-0.6,9.6c-2.8,2.5-7.1,2.3-9.6-0.6c-2.5-2.8-2.3-7.1,0.6-9.6
		C138.2-213.8,142.4-213.5,145-210.7L145-210.7z"/>
	<path class="st3" d="M132.8-199.7c1.1,1.4,1.1,3.4-0.3,4.5c-1.4,1.1-3.4,1.1-4.5-0.3c-1.1-1.4-1.1-3.4,0.3-4.5
		C129.7-201.1,131.7-201.1,132.8-199.7L132.8-199.7z"/>
	<path class="st3" d="M126.4-194.1c0.6,0.8,0.6,2-0.3,2.5c-0.8,0.6-2,0.6-2.5-0.3c-0.6-0.8-0.6-2,0.3-2.5
		C124.7-194.9,125.8-194.9,126.4-194.1L126.4-194.1z"/>
	<path class="st3" d="M73.9-210.1c-2.3,3.1-1.7,7.3,1.4,9.6c3.1,2.3,7.3,1.7,9.6-1.4c2.3-3.1,1.7-7.3-1.4-9.6S76.1-213.3,73.9-210.1
		L73.9-210.1z"/>
	<path class="st3" d="M87.1-200.6c-1.1,1.4-0.8,3.4,0.6,4.5s3.4,0.8,4.5-0.6c1.1-1.4,0.8-3.4-0.6-4.5C90-202.2,88-202,87.1-200.6
		L87.1-200.6z"/>
	<path class="st3" d="M93.9-195.5c-0.6,0.8-0.6,2,0.3,2.5c0.8,0.6,2,0.6,2.5-0.3c0.6-0.8,0.6-2-0.3-2.5S94.5-196.3,93.9-195.5
		L93.9-195.5z"/>
	<path class="st3" d="M148.6-181.7c0-3.7-3.1-6.8-6.8-6.8s-6.8,3.1-6.8,6.8s3.1,6.8,6.8,6.8S148.6-177.7,148.6-181.7L148.6-181.7z"
		/>
	<path class="st3" d="M132.3-181.7c0-1.7-1.4-3.1-3.1-3.1c-1.7,0-3.1,1.4-3.1,3.1s1.4,3.1,3.1,3.1
		C130.9-178.6,132.3-180,132.3-181.7L132.3-181.7z"/>
	<path class="st3" d="M123.8-181.7c0-1.1-0.8-2-2-2c-1.1,0-2,0.8-2,2s0.8,2,2,2S123.8-180.5,123.8-181.7L123.8-181.7z"/>
	<path class="st3" d="M70.5-181.7c0-3.7,3.1-6.8,6.8-6.8c3.7,0,6.8,3.1,6.8,6.8s-3.1,6.8-6.8,6.8S70.5-177.7,70.5-181.7L70.5-181.7z
		"/>
	<path class="st3" d="M86.9-181.7c0-1.7,1.4-3.1,3.1-3.1s3.1,1.4,3.1,3.1s-1.4,3.1-3.1,3.1S86.9-180,86.9-181.7L86.9-181.7z"/>
	<path class="st3" d="M95.3-181.7c0-1.1,0.8-2,2-2c1.1,0,2,0.8,2,2s-0.8,2-2,2S95.3-180.5,95.3-181.7L95.3-181.7z"/>
</g>
<g>
	<g>
		<path d="M6,52.9H3v3.4C3,61.3,5.9,70,18.1,70c8.3,0,15.3-5.4,15.3-14.8c0-7.7-4-11.2-10.8-13.5L14.7,39c-4.5-1.4-7.7-4.3-7.7-10.1
			c0-8.3,5.4-11,11.3-11c7.6,0,10.8,4.7,10.8,11.9h3.1c0-8.8-4.3-14.4-14.2-14.4c-8.3,0-14.2,5.2-14.2,13.7c0,7.2,3.8,10.6,10.8,13
			l5.9,2.2c5.9,2,9.5,4.5,9.5,11.3c0,6.7-4.9,12.1-12.2,12.1c-7.6,0-12.1-5.2-12.1-11.9v-2.9H6z"/>
		<polygon points="40,69.3 42.9,69.3 42.9,30.6 40,30.6 40,69.3 		"/>
		<path d="M47.4,32.9h5.2v30c0,4.1,1.6,6.5,5.8,6.5c1.1,0,2.5-0.2,4-0.5v-2.5c-1.3,0.4-2.3,0.4-3.4,0.4c-1.6,0-3.4-0.5-3.4-4.3V32.9
			H62v-2.5h-6.5V19.1h-2.9v11.5h-5.2L47.4,32.9L47.4,32.9z"/>
		<path d="M67.9,47.1c0-5,1.1-14.9,9.7-14.9c7.9,0,9.2,7.9,9.2,14.9H67.9L67.9,47.1z M89.7,49.7c0-12.4-2.9-20-12.1-20
			c-8.8,0-13,7.4-13,19.1c0,13.1,2.5,21.2,12.4,21.2c8.8,0,12.1-7.6,12.1-13.5h-2.9c0,2.9-1.3,11-9.5,11c-9,0-9.2-11.7-9.2-18h22.1
			V49.7z"/>
	</g>
	<g>
		<g>
			<path d="M155.2,69.3h2.9V44.6c0-6.3,3.2-12.4,9.9-12.4h1.6v-2.5H168c-5,0-8.3,3.2-9.7,7.6h-0.2v-6.7h-2.9V69.3L155.2,69.3z"/>
			<path d="M175.1,49.7c0-13.1,3.6-17.5,9.7-17.5S194,38,194,49.1c0,10.4-2.5,17.6-9.5,17.6C177.3,66.7,175.1,59.5,175.1,49.7
				L175.1,49.7z M196.9,30.6H194v6.5h-0.2c-1.4-4.5-4.5-7.4-9.5-7.4c-10.3,0-12.2,9.5-12.2,20c0,10.6,2.5,19.6,11.7,19.6
				c6.8,0,9-4.5,10.1-7.9h0.2v7c0,8.1-2.7,11.9-9.4,11.9c-5.4,0-7.9-3.1-7.9-7h-2.9c0,2,0.7,9.5,10.4,9.5c9.5,0,12.4-6.3,12.4-15.8
				V30.6H196.9z"/>
			<path d="M225.3,39.8c0-5.6-2.2-10.3-10.6-10.3c-9,0-11,6.7-11,11.9h2.9c0-5.4,2-9.4,8.5-9.4c4.1,0,7.6,1.4,7.6,8.5
				c0,3.2-0.4,4.9-3.8,5.8l-8.3,2.3c-5.4,1.4-7.9,4.9-7.9,10.6c0,5.9,2.9,10.8,9.7,10.8c5.2,0,9-3.1,10.1-7.2h0.2v2.5
				c0,3.1,2.2,4.3,3.4,4.3c1.3,0,2.3-0.2,2.9-0.7v-2.2c-0.5,0.4-1.1,0.4-1.8,0.4c-0.9,0-1.6-0.7-1.6-2.5V39.8H225.3z M222.5,54.7
				c0,7.7-3.2,13-9.7,13c-4.9,0-7-3.2-7-8.3c0-4.5,1.6-7.2,6.1-8.5l5.8-1.6c2.9-0.9,4-1.1,4.9-2.5h0.2v7.9H222.5z"/>
			<path d="M233.3,69.3h2.9V44.4c0-6.7,3.4-12.2,9.2-12.2c4.9,0,7.7,2.3,7.7,9.2v27.9h2.9V40.1c0-7.4-4.3-10.4-9.7-10.4
				c-5.2,0-8.5,3.4-9.9,6.7h-0.2v-5.8h-2.9V69.3L233.3,69.3z"/>
			<polygon points="263.7,69.3 266.5,69.3 266.5,46.6 263.7,46.6 263.7,69.3 			"/>
			<path d="M294.8,56.5c0,2.9-1.3,11-8.5,11s-9.9-5.8-9.9-17.8c0-11.2,2.7-17.6,9.9-17.6c6.7,0,8.3,7,8.3,9.5h3.1
				c0-2.9-1.8-12.1-11.2-12.1c-9.2,0-13,7.2-13,20c0,11.7,2.5,20.5,12.4,20.5C296,70,298,60.1,298,56.5H294.8L294.8,56.5z"/>
			<path class="st2" d="M264.9,43.4c-1.8,0-3.1-1.4-3.1-3.1c0-1.8,1.4-3.1,3.1-3.1c1.8,0,3.1,1.4,3.1,3.1
				C268.2,41.9,266.7,43.4,264.9,43.4L264.9,43.4z"/>
			<path class="st2" d="M264.9,35.8c-0.7,0-1.4-0.7-1.4-1.4s0.7-1.4,1.4-1.4s1.4,0.7,1.4,1.4C266.4,35.1,265.8,35.8,264.9,35.8
				L264.9,35.8z"/>
			<path class="st2" d="M264.9,31.8c-0.5,0-0.9-0.4-0.9-0.9c0-0.5,0.4-0.9,0.9-0.9c0.5,0,0.9,0.4,0.9,0.9
				C265.8,31.5,265.5,31.8,264.9,31.8L264.9,31.8z"/>
		</g>
	</g>
	<g>
		<path class="st2" d="M122.8,9c-2.3,0-4.3,2-4.3,4.3s2,4.3,4.3,4.3c2.5,0,4.3-1.8,4.3-4.3C127.1,11,125.3,9,122.8,9L122.8,9z"/>
		<path class="st2" d="M122.8,19.4c-1.1,0-2,0.9-2,2s0.9,2,2,2s2-0.9,2-2S123.9,19.4,122.8,19.4L122.8,19.4z"/>
		<path class="st2" d="M122.8,24.8c-0.7,0-1.3,0.5-1.3,1.3s0.5,1.3,1.3,1.3c0.7,0,1.3-0.5,1.3-1.3S123.5,24.8,122.8,24.8L122.8,24.8
			z"/>
		<path class="st2" d="M138.1,16.7c2.2,1.1,3.1,3.6,2,5.8c-1.1,2.2-3.6,3.1-5.8,2c-2.2-1.1-3.1-3.6-2-5.8
			C133.4,16.6,135.9,15.7,138.1,16.7L138.1,16.7z"/>
		<path class="st2" d="M133.6,26.1c1.1,0.5,1.4,1.6,0.9,2.7c-0.5,1.1-1.6,1.4-2.7,0.9c-1.1-0.5-1.4-1.6-0.9-2.7
			C131.4,25.9,132.5,25.5,133.6,26.1L133.6,26.1z"/>
		<path class="st2" d="M131.2,30.9c0.5,0.4,0.9,1.1,0.5,1.6c-0.4,0.5-1.1,0.9-1.6,0.5c-0.5-0.4-0.9-1.1-0.5-1.6
			C130,30.9,130.7,30.6,131.2,30.9L131.2,30.9z"/>
		<path class="st2" d="M107.3,16.7c-2.2,1.3-2.7,4-1.6,5.9c1.3,2.2,4,2.7,5.9,1.6c2.2-1.3,2.7-4,1.6-5.9
			C112.2,16.4,109.5,15.7,107.3,16.7L107.3,16.7z"/>
		<path class="st2" d="M112.7,25.9c-0.9,0.5-1.3,1.8-0.7,2.7c0.5,0.9,1.8,1.3,2.7,0.7c0.9-0.5,1.3-1.8,0.7-2.7
			C114.9,25.5,113.6,25.2,112.7,25.9L112.7,25.9z"/>
		<path class="st2" d="M115.4,30.6c-0.5,0.4-0.7,1.1-0.4,1.6c0.4,0.5,1.1,0.7,1.6,0.4c0.5-0.4,0.7-1.1,0.4-1.6S116,30.2,115.4,30.6
			L115.4,30.6z"/>
		<path class="st2" d="M122.8,87.3c-2.3,0-4.3-2-4.3-4.3s2-4.3,4.3-4.3s4.3,2,4.3,4.3C127.1,85.3,125.3,87.3,122.8,87.3L122.8,87.3z
			"/>
		<path class="st2" d="M122.8,76.8c-1.1,0-2-0.9-2-2c0-1.1,0.9-2,2-2s2,0.9,2,2C124.8,75.9,123.9,76.8,122.8,76.8L122.8,76.8z"/>
		<path class="st2" d="M122.8,71.4c-0.7,0-1.3-0.5-1.3-1.3c0-0.7,0.5-1.3,1.3-1.3c0.7,0,1.3,0.5,1.3,1.3
			C124.1,70.9,123.5,71.4,122.8,71.4L122.8,71.4z"/>
		<path class="st2" d="M138.3,81.1c2.2-1.1,2.9-3.8,1.6-5.9c-1.1-2.2-3.8-2.9-5.9-1.6c-2.2,1.1-2.9,3.8-1.6,5.9
			C133.6,81.5,136.3,82.2,138.3,81.1L138.3,81.1z"/>
		<path class="st2" d="M133.2,72c0.9-0.5,1.3-1.8,0.7-2.7c-0.5-0.9-1.8-1.3-2.7-0.7c-0.9,0.5-1.3,1.8-0.7,2.7
			C131.1,72.1,132.3,72.5,133.2,72L133.2,72z"/>
		<path class="st2" d="M130.7,67.3c0.5-0.4,0.7-1.1,0.5-1.6c-0.4-0.5-1.1-0.7-1.6-0.5c-0.5,0.4-0.7,1.1-0.5,1.6
			C129.5,67.3,130.2,67.6,130.7,67.3L130.7,67.3z"/>
		<path class="st2" d="M107.1,81c-2-1.4-2.5-4.1-1.1-6.1c1.4-2,4.1-2.5,6.1-1.1c2,1.4,2.5,4.1,1.1,6.1
			C111.8,81.9,109.1,82.2,107.1,81L107.1,81z"/>
		<path class="st2" d="M112.9,72.3c-0.9-0.5-1.1-1.8-0.5-2.7c0.5-0.9,1.8-1.1,2.7-0.5c0.9,0.5,1.1,1.8,0.5,2.7
			C115.1,72.7,114,72.9,112.9,72.3L112.9,72.3z"/>
		<path class="st2" d="M116.1,67.8c-0.5-0.4-0.7-1.1-0.4-1.6c0.4-0.5,1.1-0.7,1.6-0.4c0.5,0.4,0.7,1.1,0.4,1.6
			C117.4,68,116.5,68.2,116.1,67.8L116.1,67.8z"/>
		<path class="st2" d="M146,67.5c1.3-2,0.7-4.7-1.3-6.1c-2-1.3-4.7-0.7-6.1,1.3c-1.3,2-0.7,4.7,1.3,6.1
			C142,70.2,144.7,69.6,146,67.5L146,67.5z"/>
		<path class="st2" d="M137.4,61.7c0.5-0.9,0.4-2.2-0.5-2.7c-0.9-0.5-2.2-0.4-2.7,0.5c-0.5,0.9-0.4,2.2,0.5,2.7
			C135.6,63,136.8,62.6,137.4,61.7L137.4,61.7z"/>
		<path class="st2" d="M132.9,58.8c0.4-0.5,0.2-1.3-0.4-1.6s-1.3-0.2-1.6,0.4s-0.2,1.3,0.4,1.6C131.8,59.4,132.5,59.4,132.9,58.8
			L132.9,58.8z"/>
		<path class="st2" d="M100.1,67.5c-1.3-2-0.7-4.7,1.3-6.1c2-1.3,4.7-0.7,6.1,1.3c1.3,2,0.7,4.7-1.3,6.1
			C104.3,70.2,101.4,69.6,100.1,67.5L100.1,67.5z"/>
		<path class="st2" d="M108.9,61.9c-0.5-0.9-0.4-2.2,0.5-2.7c0.9-0.5,2.2-0.4,2.7,0.5c0.5,0.9,0.4,2.2-0.5,2.7
			C110.7,63,109.5,62.8,108.9,61.9L108.9,61.9z"/>
		<path class="st2" d="M113.4,58.8c-0.4-0.5-0.2-1.3,0.4-1.6c0.5-0.4,1.3-0.2,1.6,0.4c0.4,0.5,0.2,1.3-0.4,1.6
			C114.5,59.5,113.8,59.4,113.4,58.8L113.4,58.8z"/>
		<path class="st2" d="M145.6,30.2c1.6,1.8,1.4,4.5-0.4,6.1c-1.8,1.6-4.5,1.4-6.1-0.4c-1.6-1.8-1.4-4.5,0.4-6.1
			C141.3,28.2,144,28.4,145.6,30.2L145.6,30.2z"/>
		<path class="st2" d="M137.9,37.2c0.7,0.9,0.7,2.2-0.2,2.9s-2.2,0.7-2.9-0.2s-0.7-2.2,0.2-2.9C135.9,36.3,137.2,36.3,137.9,37.2
			L137.9,37.2z"/>
		<path class="st2" d="M133.8,40.8c0.4,0.5,0.4,1.3-0.2,1.6c-0.5,0.4-1.3,0.4-1.6-0.2c-0.4-0.5-0.4-1.3,0.2-1.6
			C132.7,40.3,133.4,40.3,133.8,40.8L133.8,40.8z"/>
		<path class="st2" d="M100.3,30.6c-1.4,2-1.1,4.7,0.9,6.1c2,1.4,4.7,1.1,6.1-0.9c1.4-2,1.1-4.7-0.9-6.1
			C104.4,28.2,101.7,28.6,100.3,30.6L100.3,30.6z"/>
		<path class="st2" d="M108.8,36.7c-0.7,0.9-0.5,2.2,0.4,2.9c0.9,0.7,2.2,0.5,2.9-0.4s0.5-2.2-0.4-2.9
			C110.6,35.6,109.3,35.8,108.8,36.7L108.8,36.7z"/>
		<path class="st2" d="M113.1,39.9c-0.4,0.5-0.4,1.3,0.2,1.6s1.3,0.4,1.6-0.2c0.4-0.5,0.4-1.3-0.2-1.6
			C114.2,39.4,113.4,39.4,113.1,39.9L113.1,39.9z"/>
		<path class="st2" d="M148,48.8c0-2.3-2-4.3-4.3-4.3c-2.3,0-4.3,2-4.3,4.3s2,4.3,4.3,4.3C146,53.1,148,51.3,148,48.8L148,48.8z"/>
		<path class="st2" d="M137.5,48.8c0-1.1-0.9-2-2-2c-1.1,0-2,0.9-2,2c0,1.1,0.9,2,2,2C136.6,50.7,137.5,49.8,137.5,48.8L137.5,48.8z
			"/>
		<path class="st2" d="M132.1,48.8c0-0.7-0.5-1.3-1.3-1.3s-1.3,0.5-1.3,1.3c0,0.7,0.5,1.3,1.3,1.3C131.6,50,132.1,49.5,132.1,48.8
			L132.1,48.8z"/>
		<path class="st2" d="M98.1,48.8c0-2.3,2-4.3,4.3-4.3s4.3,2,4.3,4.3s-2,4.3-4.3,4.3C100.1,53.1,98.1,51.3,98.1,48.8L98.1,48.8z"/>
		<path class="st2" d="M108.6,48.8c0-1.1,0.9-2,2-2c1.1,0,2,0.9,2,2c0,1.1-0.9,2-2,2C109.5,50.7,108.6,49.8,108.6,48.8L108.6,48.8z"
			/>
		<path class="st2" d="M114,48.8c0-0.7,0.5-1.3,1.3-1.3c0.7,0,1.3,0.5,1.3,1.3c0,0.7-0.5,1.3-1.3,1.3C114.5,50,114,49.5,114,48.8
			L114,48.8z"/>
	</g>
</g>
</svg>
